<svg xmlns="http://www.w3.org/2000/svg" width="246" height="172"><path fill="#fff" d="M104.8 69.322c-7.35.02-9.498-4.917-10.232-8.202-.261-1.16-.181-2.213-.021-3.266.51-2.303 2.006-4.078 4.057-4.078.552 0 3.227.088 3.227 2.553 0 2.466-1.832 2.947-2.472 2.968-.805.027-1.554-.284-1.775-.284-1.168-.239-2.341.387-1.841 2.601.976 4.301 4.153 6.967 9.214 6.987 15.118.06 19.335-20.508 21.628-28.417 2.499-8.624 8.612-22.284 16.508-30.694-3.074-2.297-8.031-5.153-15.72-5.153-.962 0-1.895.05-2.805.137 1.615 1.987 2.204 2.824 3.02 6.348 1.304 7.023-.193 13.09-1.587 17.61-2.69 8.617-8.816 15.124-16.091 15.124-6.255 0-9.871-4.987-11.12-10.232-1.923-8.065 1.773-15.62 5.27-19.984 2.868-3.58 8.106-8.594 16.876-10.233-.664-.387-1.064-.578-2.572-.847-7.338-1.313-12.486 2.84-17.221 9.236-3.017 4.443-4.55 8.067-5.61 13.356.769-6.447 1.617-8.921 4.754-14.352 4.733-7.068 10.895-10.478 17.772-9.499 1.95.25 3.507.9 4.754 1.803a33.199 33.199 0 014.222-.268c7.522 0 12.757 2.276 17.339 5.613 2.16-1.878 3.617-2.635 7.625-2.794l-.206.053c-1.58.382-3.224 1.131-5.614 4.275 3.459 2.57 9.594 10.628 6.648 17.746-2.295 5.55-7.392 6.398-8.866 6.84 2.083 1.022 6.535 3.201 8.698 9.377 2.09 7.728-.542 14.833-2.673 18.176-3.767 5.905-9.17 7.456-12.766 7.708-3.704.26-6.506-1.69-7.77-6.254-.962-3.478.373-11.032 4.628-14.017 3.155-2.213 5.454-1.07 7.656-.464.257.071.234.258.234.258-1.573-.377-4.675-1.799-7.585.556-3.75 3.388-5.077 8.817-3.952 13.213.687 2.684 3.129 4.276 5.124 4.354 4.483.174 8.81-4.576 10.3-7.848.778-1.788 1.446-3.673 1.893-5.76.538-2.6 1.104-7.242.069-10.944-.26-.922-1.13-5.626-5.425-7.314l-3.19.304c-2.831.17-3.836-.642-3.916-1.58-.211-2.474 2.976-2.017 3.39-1.944 1.03.182 2.354.57 3.876 1.071 3.417-1.107 5.24-3.214 6.585-6.14 1.71-3.938 1.637-10.5-4.36-15.899-4.224 4.931-7.048 10.396-9.217 17.011-1.058 3.19-3.951 13.788-3.951 13.788-3.771 13.107-8.865 27.401-26.808 27.401zm-9.406-43.256l-.314 1.316c.142-.887.292-1.728.453-2.53-.047.39-.093.794-.14 1.214zm31.075-13.97c-.237-2.78-1.28-5.668-3.03-7.49-4.8.654-13.043 2.255-18.876 11.183-10.045 15.375-1.71 23.761.356 24.88 8.57 4.642 16.165-4.82 19.082-12.619 1.592-4.444 3.033-9.324 2.468-15.955z"/><path fill="#fff" d="M125.372 41.685s4.52-18.562 16.686-32.232l-.177-.125s-10.36 8.885-17.518 30.112c-3.859 11.443-6.139 25.592-16.999 27.67l-3.11.683c13.434-.435 16.831-12.775 21.118-26.108zM76.17 104.188c0-1.215.813-2.133 1.84-2.133 1.245 0 1.835 1.198 1.835 2.174 0 1.227-.817 2.138-1.84 2.138-1.017 0-1.835-.923-1.835-2.18zm3.062.134c0-1.256-.572-2.068-1.25-2.068-.556 0-1.198.526-1.198 1.847 0 1.244.543 2.068 1.256 2.068.684 0 1.192-.737 1.192-1.847zm85.778 29.973c-.518.22-1.062.19-1.555.19-.327 0-.353.192-.353.328v.163c0 .137.026.328.353.328.356 0 .656-.054 1.448-.109.98-.082 1.58-.136 2.127-.136.545 0 1.145.054 2.127.136.79.055 1.09.11 1.446.11.327 0 .355-.192.355-.329v-.163c0-.136-.028-.328-.355-.328-.491 0-1.036.03-1.555-.19-.736-.328-.846-.874-.846-1.692v-6.983h10.255v6.983c0 .818-.11 1.364-.846 1.692-.52.22-1.065.19-1.556.19-.327 0-.354.192-.354.328v.163c0 .137.027.328.354.328.355 0 .656-.054 1.446-.109.982-.082 1.582-.136 2.127-.136.547 0 1.147.054 2.129.136.79.055 1.09.11 1.445.11.328 0 .355-.192.355-.329v-.163c0-.136-.027-.328-.355-.328-.491 0-1.037.03-1.554-.19-.737-.328-.847-.874-.847-1.692V118.91c0-.818.11-1.364.847-1.69.517-.22 1.063-.193 1.554-.193.328 0 .355-.19.355-.327v-.164c0-.135-.027-.327-.355-.327-.354 0-.655.055-1.445.11-.982.082-1.582.135-2.13.135-.544 0-1.144-.053-2.126-.135-.79-.055-1.091-.11-1.446-.11-.327 0-.354.192-.354.327v.137c0 .246 0 .327.354.354.546.028 1.01-.053 1.556.192.736.327.846.873.846 1.691v5.564h-10.255v-5.564c0-.818.11-1.364.846-1.69.519-.22 1.064-.193 1.555-.193.327 0 .355-.19.355-.327v-.164c0-.135-.028-.327-.355-.327-.355 0-.655.055-1.446.11-.982.082-1.582.135-2.127.135-.546 0-1.146-.053-2.127-.135-.792-.055-1.092-.11-1.448-.11-.327 0-.353.192-.353.327v.164c0 .137.026.327.353.327.493 0 1.037-.027 1.556.192.736.327.846.873.846 1.691v13.693c0 .818-.11 1.364-.846 1.692zm22.47 0c-.518.22-1.063.19-1.555.19-.328 0-.355.192-.355.328v.136c0 .22 0 .327.354.355 1.01.028 2.427-.245 3.301-.245.654 0 1.281.081 1.936.136 1.008.11 1.991.137 3 .11 1.718-.029 3.983-.192 5.592-1.61 1.5-1.337 1.719-3.056 1.719-4.42 0-1.336-.272-2.727-1.419-3.927-1.145-1.2-2.89-1.8-4.583-1.8-1.172 0-2.727.3-3.845.954l-.082.327.054.164.245.191c.955-.355 1.828-.518 2.728-.518 1.065 0 2.32.245 3.275 1.362.655.766 1.064 1.966 1.064 3.466 0 1.31-.41 2.536-1.146 3.328-1.12 1.255-2.646 1.336-3.956 1.336-1.09 0-1.8-.053-2.291-.354-.818-.49-.846-1.309-.846-1.856V118.91c0-.818.11-1.364.846-1.69.519-.22 1.064-.193 1.555-.193.327 0 .354-.19.354-.327v-.164c0-.135-.027-.327-.354-.327-.354 0-.654.055-1.445.11-.983.082-1.582.135-2.127.135-.546 0-1.147-.053-2.127-.135-.792-.055-1.092-.11-1.447-.11-.327 0-.354.192-.354.327v.164c0 .137.027.327.354.327.492 0 1.037-.027 1.555.192.737.327.845.873.845 1.691v13.693c0 .818-.108 1.364-.845 1.692zM47.925 106.33c-.059 0-.14-.006-.14-.099 0-.094.075-.11.134-.129l.064-.017c.128-.036.234-.117.351-.503l.923-3.003c.052-.176.076-.263.111-.362.012-.029.03-.088.117-.088.1 0 .122.07.134.1l.035.105c.018.052.03.1.047.152l1.027 3.23c.117.363.17.386.34.404.093.011.151.023.151.117 0 .035-.017.093-.117.093-.198 0-.39-.035-.583-.035-.21 0-.42.035-.637.035-.04 0-.152-.006-.152-.11 0-.083.047-.118.175-.112.035 0 .064.006.1 0 .105-.018.134-.087.134-.158 0-.093-.017-.134-.036-.204l-.22-.748c-.042-.14-.1-.146-.147-.146h-.83c-.129 0-.129.06-.146.128l-.175.65a.725.725 0 00-.03.215c0 .263.241.27.345.275.094.006.135.017.135.111 0 .046-.018.1-.129.1-.157 0-.315-.036-.473-.036-.17 0-.339.035-.508.035zm.981-1.846c-.006.023-.023.053-.023.093 0 .041.03.047.058.047h.713c.047 0 .111-.006.07-.14l-.385-1.25c-.006-.03-.012-.065-.03-.065-.023 0-.023.035-.029.06zm18.158 1.419c-.047.21-.217.222-.34.234-.063.006-.103.012-.103.1 0 .093.057.104.116.104.169 0 .333-.035.502-.035.163 0 .326.035.484.035.07 0 .118-.017.118-.105 0-.093-.052-.093-.105-.099-.148-.006-.328 0-.363-.32-.035-.322-.023-.545-.023-.854l-.012-2.122 2.116 3.36c.11.181.123.216.199.216.144 0 .127-.117.127-.192v-3.05c0-.123.007-.427.048-.532.034-.088.116-.176.21-.18l.122-.013c.077-.006.089-.052.089-.099 0-.047-.013-.099-.119-.099-.162 0-.32.034-.484.034-.152 0-.31-.034-.462-.034-.087 0-.116.017-.116.1 0 .08.046.092.081.098l.13.012c.11.011.18.093.215.181.035.093.041.222.041.526v2.015l-1.753-2.793c-.076-.116-.076-.139-.198-.139h-.842c-.059 0-.116.011-.116.1 0 .086.034.092.11.098.117.012.286.023.333.234.017.087.023.24.023.31l-.006 2.6c0 .076-.005.222-.023.31z"/><path fill="#fff" d="M206.997 117.22c.52-.22 1.064-.192 1.555-.192.328 0 .355-.19.355-.327v-.165c0-.134-.027-.327-.355-.327-.355 0-.655.055-1.446.11-.98.083-1.583.136-2.127.136-.546 0-1.146-.053-2.128-.135-.79-.056-1.09-.111-1.446-.111-.327 0-.354.193-.354.327v.165c0 .137.027.327.354.327.491 0 1.036-.027 1.555.192.736.327.846.873.846 1.69v13.694c0 .818-.11 1.364-.846 1.692-.519.218-1.064.19-1.555.19-.327 0-.354.192-.354.328v.163c0 .137.027.328.354.328.356 0 .655-.055 1.446-.11.982-.081 1.582-.136 2.128-.136.544 0 1.146.055 2.127.137.791.054 1.091.109 1.446.109.328 0 .355-.191.355-.328v-.163c0-.136-.027-.328-.355-.328-.49 0-1.036.028-1.555-.19-.736-.328-.845-.874-.845-1.692V118.91c0-.817.11-1.363.845-1.69zm-149.52-11.317c-.046.21-.215.222-.338.234-.065.006-.105.012-.105.1 0 .093.058.104.117.104.17 0 .332-.035.502-.035.164 0 .328.035.486.035.068 0 .115-.017.115-.105 0-.093-.051-.093-.104-.099-.146-.006-.327 0-.361-.32-.037-.322-.025-.545-.025-.854l-.012-2.122 2.116 3.36c.11.181.123.216.199.216.145 0 .129-.117.129-.192v-3.05c0-.123.005-.427.046-.532.035-.088.117-.176.21-.18l.123-.013c.075-.006.088-.052.088-.099 0-.047-.012-.099-.118-.099-.164 0-.32.034-.485.034-.152 0-.31-.034-.462-.034-.087 0-.116.017-.116.1 0 .08.047.092.081.098l.13.012c.11.011.18.093.215.181.035.093.042.222.042.526v2.015l-1.754-2.793c-.075-.116-.075-.139-.197-.139h-.843c-.058 0-.115.011-.115.1 0 .086.034.092.11.098.116.012.286.023.332.234.018.087.024.24.024.31l-.006 2.6c0 .076-.005.222-.023.31zm108.508.223c-.11.006-.11.07-.11.1 0 .099.075.105.145.105.24 0 .48-.036.72-.036.163 0 .332.036.495.036.06 0 .141-.006.141-.105 0-.082-.036-.1-.105-.1-.182-.006-.316.041-.328-.467l-.075-2.764c-.006-.316.012-.426.268-.45.094-.012.163.006.163-.105 0-.088-.04-.099-.11-.099-.129 0-.258.017-.386.017-.134 0-.268-.017-.42-.017-.106 0-.129.023-.147.081l-.935 2.776c-.01.034-.023.052-.028.052 0 0-.012-.018-.024-.052l-.894-2.753c-.023-.075-.048-.104-.146-.104-.287 0-.01.017-.333.017-.432 0-.38-.017-.485-.017-.088 0-.135.005-.135.093 0 .035.006.082.088.105.053.012.106 0 .158 0 .234.006.222.263.211.485l-.135 2.682c-.024.491-.112.514-.35.52-.024 0-.105 0-.105.105 0 .035.005.1.104.1.164 0 .327-.036.486-.036.157 0 .315.036.473.036.14 0 .163-.041.163-.105 0-.053-.017-.077-.029-.082-.018-.012-.04-.012-.117-.018-.228-.012-.385-.023-.363-.607l.088-2.496c0-.023.006-.035.018-.035 0 0 .018.006.023.024l.906 2.781c.065.205.082.263.111.351.018.052.03.087.111.087.076 0 .093-.035.117-.093.052-.135.047-.187.105-.351l.946-2.799c.012-.029.024-.046.03-.046.011 0 .017.017.017.058l.053 2.647c.012.491-.135.467-.38.479zm16.09 0c-.054.006-.112.012-.112.1 0 .034.024.105.117.105.222 0 .427-.036.637-.036.211 0 .42.036.63.036.06 0 .118-.012.118-.105 0-.094-.053-.094-.105-.1-.176-.012-.357-.035-.357-.427v-2.833c0-.386.181-.415.357-.427.035 0 .105-.006.105-.099 0-.088-.047-.099-.118-.099-.21 0-.419.035-.63.035-.21 0-.426-.035-.637-.035-.059 0-.117.011-.117.099 0 .088.035.093.112.099.187.018.35.035.35.427v2.833c0 .363-.128.409-.35.427zm-89.407-.024c.31-.012.357-.146.357-.543v-2.694c0-.427-.088-.41-.275-.363a.602.602 0 01-.152.03c-.06 0-.07-.047-.07-.076 0-.082.04-.111.216-.158.158-.04.707-.193 1.315-.193 1.419 0 2.092 1.006 2.092 2.08 0 1.04-.678 2.122-1.941 2.122-.268 0-.537-.036-.8-.036-.24 0-.485.036-.73.036-.035 0-.117 0-.117-.111 0-.03.01-.088.105-.094zm.964-3.646c-.041.076-.03.193-.03.339v2.507c0 .292-.005.496.089.63.117.17.303.176.402.176.853 0 1.443-.736 1.443-1.9 0-1.197-.642-1.904-1.495-1.904-.3 0-.38.093-.41.152zm79.438-.028l.1.012c.163.017.262.075.543.537l.824 1.35-.7 1.185c-.323.55-.44.585-.638.603-.106.01-.176.01-.176.117 0 .04.018.099.106.099.146 0 .158-.03.508-.03.216 0 .432.03.655.03.058 0 .14-.006.14-.1 0-.122-.118-.111-.222-.111-.065 0-.246-.011-.246-.181 0-.075.03-.163.117-.321l.596-1.04c.012-.024.023-.035.036-.035.005 0 .01.017.022.035l.661 1.12c.081.142.111.212.111.276 0 .129-.14.14-.222.14h-.094c-.058 0-.094.059-.094.106 0 .035.018.11.153.11.21 0 .415-.034.62-.034.204 0 .402.035.607.035.134 0 .14-.041.14-.1 0-.087 0-.087-.14-.111-.18-.03-.228-.151-.39-.421l-1.025-1.688.608-1c.222-.367.363-.542.725-.565.158-.013.163-.042.163-.106 0-.03 0-.1-.11-.1-.188 0-.374.024-.556.024-.21 0-.415-.023-.648-.023-.04 0-.11 0-.11.093 0 .106.063.106.174.112l.076.005c.076.006.152.012.152.146 0 .07-.035.152-.157.368l-.439.783c-.017.035-.047.03-.064 0l-.526-.894c-.036-.058-.105-.198-.105-.262 0-.06.03-.13.18-.135h.082c.077 0 .17-.006.17-.112 0-.046-.029-.104-.14-.104-.269 0-.527.029-.783.029-.205 0-.415-.03-.625-.03-.077 0-.14.006-.14.1 0 .018 0 .076.081.088zm23.447 3.702c-.052.005-.111.011-.111.1 0 .034.024.104.117.104.222 0 .427-.035.637-.035.21 0 .42.035.63.035.059 0 .118-.012.118-.105 0-.094-.053-.094-.106-.1-.175-.01-.355-.035-.355-.426v-2.834c0-.386.18-.415.355-.427.035 0 .106-.005.106-.099 0-.088-.047-.099-.118-.099-.21 0-.42.035-.63.035-.21 0-.426-.035-.637-.035-.058 0-.117.011-.117.1 0 .087.036.093.11.098.188.018.352.036.352.427v2.834c0 .362-.13.41-.351.426zm-40.492-.004c-.11.006-.11.07-.11.1 0 .099.076.105.145.105.24 0 .48-.036.72-.036.163 0 .333.036.495.036.06 0 .142-.006.142-.105 0-.082-.036-.1-.106-.1-.182-.006-.316.041-.327-.467l-.076-2.764c-.006-.316.012-.426.268-.45.094-.012.164.006.164-.105 0-.088-.04-.099-.11-.099-.129 0-.258.017-.387.017-.133 0-.268-.017-.42-.017-.105 0-.128.023-.146.081l-.935 2.776c-.012.034-.024.052-.029.052 0 0-.012-.018-.024-.052l-.894-2.753c-.023-.075-.047-.104-.146-.104-.287 0-.01.017-.333.017-.432 0-.38-.017-.485-.017-.087 0-.135.005-.135.093 0 .035.007.082.088.105.053.012.106 0 .158 0 .234.006.222.263.211.485l-.134 2.682c-.025.491-.112.514-.352.52-.023 0-.104 0-.104.105 0 .035.006.1.104.1.164 0 .327-.036.486-.036.158 0 .315.036.473.036.14 0 .163-.041.163-.105 0-.053-.017-.077-.029-.082-.018-.012-.04-.012-.117-.018-.228-.012-.385-.023-.363-.607l.09-2.496c0-.023.004-.035.017-.035 0 0 .017.006.022.024l.907 2.781c.064.205.081.263.11.351.018.052.03.087.111.087.076 0 .094-.035.117-.093.053-.135.047-.187.105-.351l.947-2.799c.012-.029.024-.046.03-.046.011 0 .017.017.017.058l.052 2.647c.013.491-.134.467-.38.479zm66.929 12.659s.115.403.48.418c.367.015.591-.461.591-.461.344-1.673.731-2.23 1.502-2.873.986-.814 2.657-1.757 4.244-3.43 2.015-2.143 2.872-4.886 2.486-7.545 0 0 .007-.547-.51-.557-.61-.006-.647.47-.647.47 0 .259 0 .944-.086 1.374-.214.899-1.072 1.715-1.886 2.444-1.543 1.37-2.915 2.358-4.287 4.286-1.759 2.488-1.973 4.416-1.887 5.874zm-33.658-12.655c-.053.005-.111.011-.111.1 0 .034.023.104.117.104.222 0 .426-.035.636-.035.21 0 .42.035.63.035.06 0 .119-.012.119-.105 0-.094-.053-.094-.106-.1-.176-.01-.356-.035-.356-.426v-2.834c0-.386.18-.415.356-.427.035 0 .106-.005.106-.099 0-.088-.047-.099-.118-.099-.21 0-.42.035-.631.035-.21 0-.426-.035-.636-.035-.06 0-.117.011-.117.1 0 .087.035.093.11.098.188.018.352.036.352.427v2.834c0 .362-.13.41-.351.426zm-87.128-1.893c0-1.215.812-2.132 1.84-2.132 1.245 0 1.836 1.198 1.836 2.174 0 1.227-.819 2.137-1.842 2.137-1.015 0-1.834-.922-1.834-2.179zm3.061.135c0-1.256-.571-2.068-1.25-2.068-.554 0-1.196.526-1.196 1.846 0 1.244.542 2.068 1.255 2.068.684 0 1.192-.736 1.192-1.846zm9.309 1.73c-.11.006-.11.07-.11.1 0 .099.076.105.145.105.24 0 .48-.036.72-.036.163 0 .332.036.496.036.058 0 .14-.006.14-.105 0-.082-.036-.1-.105-.1-.182-.006-.315.04-.327-.467l-.076-2.764c-.006-.316.012-.426.268-.45.094-.012.163.006.163-.105 0-.088-.04-.1-.11-.1-.129 0-.257.018-.386.018-.134 0-.268-.017-.42-.017-.106 0-.128.023-.147.08l-.935 2.777c-.01.034-.023.052-.023.052-.012 0-.018-.018-.029-.052l-.894-2.753c-.023-.075-.047-.104-.145-.104-.288 0-.013.017-.334.017-.432 0-.379-.017-.485-.017-.088 0-.135.006-.135.093 0 .035.006.082.088.105.052.012.106 0 .16 0 .232.006.22.263.21.485l-.136 2.682c-.024.49-.11.514-.35.52-.024 0-.105 0-.105.105 0 .035.006.1.104.1.164 0 .327-.036.486-.036.158 0 .315.036.473.036.14 0 .163-.041.163-.105 0-.053-.017-.077-.029-.082-.018-.012-.04-.012-.116-.018-.229-.012-.386-.023-.363-.607l.087-2.496c0-.023.006-.035.018-.035 0 0 .018.006.023.024l.907 2.78c.063.206.081.264.11.352.02.052.03.087.111.087.076 0 .093-.035.117-.093.052-.135.046-.187.105-.351l.946-2.8c.012-.028.024-.045.03-.045.011 0 .017.017.017.058l.053 2.647c.012.49-.134.467-.38.479zm25.782-3.687c.035 0 .105-.006.105-.1 0-.087-.046-.099-.117-.099-.21 0-.42.035-.63.035-.21 0-.426-.035-.637-.035-.059 0-.117.012-.117.099 0 .088.035.094.111.1.187.018.35.035.35.427v2.833c0 .362-.128.409-.35.427-.053.005-.11.011-.11.099 0 .035.022.105.116.105.221 0 .426-.035.636-.035.21 0 .421.035.631.035.06 0 .117-.012.117-.105 0-.094-.052-.094-.105-.099-.175-.012-.356-.036-.356-.427v-2.833c0-.386.181-.416.356-.427zm-7.776.193c.034-.088.116-.175.21-.182l.122-.011c.076-.006.088-.053.088-.1 0-.046-.012-.1-.117-.1-.163 0-.322.037-.485.037-.152 0-.31-.036-.462-.036-.087 0-.117.017-.117.1 0 .08.047.093.082.099l.129.01c.11.013.18.095.216.183.035.093.04.222.04.525v2.016l-1.752-2.792c-.076-.117-.076-.141-.198-.141h-.842c-.058 0-.116.012-.116.1 0 .087.034.093.11.099.117.01.286.023.333.234.018.087.024.239.024.309l-.006 2.6c0 .076-.006.222-.023.31-.048.21-.216.222-.34.234-.064.006-.105.01-.105.099 0 .094.059.105.117.105.17 0 .333-.035.502-.035.164 0 .328.035.486.035.07 0 .117-.017.117-.105 0-.093-.053-.093-.106-.1-.146-.005-.326 0-.362-.321-.035-.32-.023-.543-.023-.853l-.012-2.121 2.115 3.36c.11.18.123.216.199.216.146 0 .128-.117.128-.192v-3.05c0-.123.007-.427.048-.532zm-9.267-.193c.034 0 .104-.006.104-.1 0-.087-.046-.099-.116-.099-.21 0-.42.035-.632.035-.21 0-.425-.035-.636-.035-.059 0-.117.012-.117.099 0 .088.035.094.111.1.187.018.35.035.35.427v2.833c0 .362-.127.409-.35.427-.053.005-.11.011-.11.099 0 .035.023.105.116.105.221 0 .426-.035.636-.035.211 0 .421.035.632.035.058 0 .116-.012.116-.105 0-.094-.05-.094-.104-.099-.176-.012-.356-.036-.356-.427v-2.833c0-.386.18-.416.356-.427zm54.291 51.593c-.127 0-.166.146-.215.283-.116.311-.253.672-.535.886a1.267 1.267 0 01-.75.224h-.419c-.497 0-.74-.224-.74-1.08v-1.736c0-.312.096-.303.243-.303h.418c.683 0 .761.177.896.683.06.205.08.468.245.468.166 0 .127-.234.117-.4-.039-.506-.059-.838-.02-1.286.02-.322.05-.477.05-.575 0-.039-.02-.205-.128-.205-.078 0-.137.06-.205.312-.068.263-.145.624-.73.624h-.634c-.253 0-.253-.156-.253-.35v-1.804c0-.292-.01-.409.672-.409.312 0 .84-.019 1.15.263.185.166.302.458.38.682.04.107.068.234.176.234.145 0 .126-.205.126-.273v-.409l.01-.487v-.215c0-.214-.04-.185-.253-.166-.284.03-1.179.03-1.404.03l-1.286-.01c-.322 0-.79-.029-1.072-.029-.117 0-.224 0-.224.175 0 .146.097.156.165.156.566.03.595.332.595.906v4.337c0 .595-.029.858-.585.907-.098.01-.175.01-.175.165 0 .127.087.175.204.175.468 0 .907-.058 1.355-.058.448 0 .565.03 1.501.05l.565.008c.721.01.692.05.711-.194 0-.02.04-.604.088-.877l.06-.342c.028-.185.057-.36-.099-.36zm-10.469-4.716c.059 0 .176-.01.176-.166 0-.087-.02-.165-.205-.165-.351 0-.702.039-1.052.039-.313 0-.624-.04-.937-.04h-.74c-.233 0-.458.02-.691.02-.254 0-.507-.02-.77-.02-.04 0-.205 0-.205.157 0 .165.098.175.186.175.38.01.652-.02.652.916 0 .702-.068 2.105-.185 2.934-.205 1.47-.497 1.939-.702 1.939-.088 0-.136-.06-.184-.127-.05-.068-.127-.204-.342-.204-.282 0-.545.204-.545.623 0 .39.243.604.604.604.565 0 1.178-.351 1.559-2.465.165-.936.214-1.784.253-2.534.039-.711.039-.975.068-1.18.03-.184.098-.457.546-.457h.34c.352 0 .614 0 .614.565v4.629c0 .809-.165.877-.593.906-.098.01-.176.01-.176.166s.107.175.195.175c.35 0 .702-.058 1.053-.058.35 0 .7.058 1.052.058.195 0 .205-.127.205-.175 0-.147-.098-.156-.176-.166-.39-.03-.595-.058-.595-.906v-4.532c0-.652.264-.682.595-.711zm-35.956 3.108c0 2.047-1.365 3.567-3.071 3.567-1.694 0-3.06-1.54-3.06-3.635 0-2.027 1.355-3.556 3.07-3.556 2.076 0 3.06 1.997 3.06 3.624zm-3.012 3.236c1.14 0 1.988-1.228 1.988-3.08 0-2.095-.955-3.45-2.085-3.45-.926 0-1.998.878-1.998 3.08 0 2.076.907 3.45 2.095 3.45zm60.802-.196c-.205-.02-.36-.097-.702-.76l-.721-1.393c-.458-.887-.945-1.053-1.266-1.082v-.04c.272-.087.632-.311.886-1.198l.185-.662c.078-.292.156-.653.36-.653.117 0 .157.098.196.185.068.176.146.38.429.38.262 0 .535-.214.535-.623 0-.283-.145-.741-.741-.741-.302 0-.828.137-1.12 1.179l-.224.789c-.117.42-.39 1.228-1.091 1.228h-.156c-.254 0-.283-.04-.283-.292v-1.55c0-.964.283-.886.595-.905.097-.01.184-.06.184-.166 0-.166-.078-.175-.282-.175-.321 0-.643.058-.974.058-.331 0-.663-.058-.985-.058-.175 0-.272.009-.272.175 0 .039.019.166.176.166.389 0 .593.048.593.906v4.327c0 .847-.204.877-.584.906-.088.009-.185.019-.185.166 0 .058.039.175.205.175.36 0 .7-.06 1.052-.06.35 0 .702.06 1.062.06.049 0 .194-.01.194-.175 0-.147-.057-.157-.174-.166-.322-.04-.605.039-.605-.906v-1.891c0-.137-.058-.253.273-.253.244 0 .545.019 1.013 1.013l.789 1.657c.166.35.332.72.839.72.048 0 .108-.01.155-.01.079-.01.147-.01.225-.01.165 0 .32.02.487.02a.174.174 0 00.175-.174c0-.127-.03-.147-.243-.166zm-38.559-.194c-.127.166-.321.185-.478.195-.068.01-.174.02-.174.165 0 .166.106.176.194.176.352 0 .712-.059 1.062-.059.351 0 .692.06 1.042.06.088 0 .206-.01.206-.177 0-.156-.088-.156-.176-.165-.155-.01-.361-.04-.477-.195-.068-.098-.117-.283-.117-.71v-4.669c0-.303.039-.527.818-.527h1.073c.789 0 .798.293.798.546v4.65c0 .3.01.554-.117.71-.117.155-.311.185-.467.195-.069 0-.186.01-.186.165 0 .176.127.176.215.176.35 0 .692-.059 1.043-.059.35 0 .702.06 1.053.06.097 0 .194-.02.194-.177 0-.156-.087-.156-.175-.165-.156-.01-.36-.04-.477-.195-.059-.088-.118-.254-.118-.71v-4.338c0-.458.059-.624.118-.712.117-.156.321-.184.477-.195.088-.009.175-.009.175-.165 0-.088-.029-.166-.214-.166-.351 0-.691.06-1.043.06-.438 0-.887-.06-1.335-.06h-.965c-.428 0-.847.06-1.276.06-.371 0-.741-.06-1.121-.06-.098 0-.204.01-.204.166s.087.156.174.165c.166.011.361.04.478.195.088.117.117.312.117.712v4.337c0 .301.01.555-.117.711zm-7.815-16.187c-.244-.002-.273-.244-.273-.244v-3.51a11.247 11.247 0 01-1.373-.11c-.628-.054-1.064-.136-1.446-.136-.52 0-1.064.109-1.72.164-.571.082-.926.082-1.172.082-.136 0-.491-.028-.491-.273v-.163c0-.165.082-.273.274-.328.299-.108.436.027 1.036-.108.518-.11.845-.328.845-.874 0-.272-.054-.546-.164-.792l-1.691-4.417h-7.337l-1.828 4.417c-.191.438-.245.684-.245.874 0 .874 1.008.845 1.582.845.164 0 .572 0 .572.356v.163c0 .272-.272.3-.436.3-.136 0-.355 0-1.146-.082-.682-.055-1.227-.164-1.691-.164-.245 0-.518.028-1.118.109-.464.055-.845.137-1.201.137-.381 0-.463-.164-.463-.273v-.163c0-.383.218-.354.492-.383.409-.053.98-.3 1.28-.545.273-.245.629-.791.765-1.091l7.2-16.722c.138-.3.192-.681.519-.681.409 0 .546.464.628.654l6.6 17.213c.11.272.47.909.995 1.072.39.12 2.389.048 2.67-.227l8.103-18.195s.174-.302.328-.3c.152.004.245.273.245.273l6.845 18.222c1.173.218.956-.11 1.775-.11.435 0 .435.384.435.793v3.973s.003.21-.273.244a.502.502 0 01-.436-.163c-.753-4.216-2.914-3.591-3.955-3.591h-10.093c-1.718 0-3.495-.746-4.18 3.47 0 0-.076.288-.457.284zm3.273-4.9h11.293l-5.183-13.666h-.245zm-9.884-6.955l-3.11-8.102-3.328 8.102zm63.272 26.736c-.077 0-.097.048-.126.107-.156.35-.37.848-.683 1.179-.243.254-.545.41-.935.41-.965 0-2.115-.994-2.115-3.333 0-1.744.799-3.196 2.173-3.196.79 0 1.092.526 1.326.964.166.33.214.419.312.419.155 0 .136-.224.116-.438l-.04-.44c-.028-.35-.037-.437-.213-.525-.301-.166-1.023-.312-1.491-.312-1.871 0-3.206 1.598-3.206 3.635 0 1.9 1.189 3.557 3.099 3.557.4 0 .868-.078 1.442-.38.439-.224.429-.468.439-.644l.019-.37c.01-.243.098-.633-.117-.633zm9.657-13.941H30.203s-.297.01-.297.349c0 .337.297.348.297.348h178.674s.263-.036.263-.349c0-.293-.263-.349-.263-.349zm0-28.497H30.203s-.297.01-.297.349c0 .338.297.349.297.349h178.674s.263-.035.263-.349c0-.293-.263-.349-.263-.349z"/><path fill="#fff" d="M244.644 140.914c-.867 0-1.832.049-2.748-.337-1.301-.58-1.494-1.543-1.494-2.99v-25.124c0-1.735.627-2.701 1.735-3.616 0 0 .422-.438.268-.781-.155-.342-.654-.28-.654-.28-1.156.24-2.796.918-5.062 3.76l-19.145 24.113v-22.28c0-1.446.192-2.41 1.495-2.99.917-.385 1.88-.337 2.75-.337.57 0 .624-.326.625-.568-.001-.241-.055-.567-.625-.567-.627 0-1.16.097-2.556.193-1.738.143-2.799.24-3.764.24-.964 0-2.025-.083-3.76-.24-.764-.07-1.033-.05-1.312-.067-.569-.037-.626.203-.628.442.002.24.057.57.628.567.29 0 .99.052 1.505.338 1.246.69 1.496 1.543 1.496 2.99v29.56s.036.482.384.482c.543 0 .675-.29.675-.29l21.796-27.486v21.94c0 1.448-.193 2.412-1.495 2.99-.916.387-1.88.338-2.748.338-.57 0-.625.328-.626.568.001.24.056.569.626.569.627 0 1.157-.096 2.555-.194 1.736-.144 2.798-.24 3.763-.24.963 0 2.025.096 3.76.24 1.4.098 1.928.194 2.556.194.57 0 .625-.328.627-.57-.001-.24-.056-.567-.626-.567zm-107.15 13.659c-.04.82-.187.857-.585.868-.039 0-.176 0-.176.175 0 .06.01.165.176.165.273 0 .545-.058.81-.058.261 0 .525.058.788.058.234 0 .272-.068.272-.175 0-.088-.029-.127-.049-.137-.029-.019-.067-.019-.194-.028-.38-.02-.644-.04-.605-1.014l.147-4.16c0-.04.01-.06.03-.06.01 0 .03.01.038.04l1.511 4.638c.107.341.137.438.185.584.03.088.048.147.184.147.128 0 .157-.059.196-.156.087-.224.078-.312.175-.585l1.578-4.668c.02-.048.04-.077.04-.077.03 0 .04.03.04.097l.086 4.414c.02.82-.224.78-.632.8-.186.01-.186.116-.186.165 0 .166.127.175.244.175.4 0 .8-.058 1.198-.058.273 0 .555.058.83.058.095 0 .232-.009.232-.175 0-.137-.059-.165-.175-.165-.303-.01-.526.068-.546-.78l-.127-4.609c-.009-.527.02-.712.45-.75.155-.02.272.01.272-.176 0-.146-.068-.166-.186-.166-.214 0-.428.03-.643.03-.224 0-.447-.03-.7-.03-.177 0-.215.04-.244.136l-1.56 4.63c-.02.058-.039.087-.049.087-.01 0-.019-.029-.039-.088l-1.49-4.589c-.04-.127-.078-.176-.244-.176-.478 0-.02.03-.556.03-.72 0-.633-.03-.808-.03-.147 0-.224.01-.224.156 0 .06.01.136.145.175.088.02.176 0 .263 0 .391.011.371.44.352.81zM19.993 124.19c4.795.57 7.926 3.987 7.926 8.592 0 3.132-1.328 5.554-3.18 7.025-2.658 2.136-6.455 2.278-8.64 2.278-1.471 0-1.937-.095-2.934-.142-1.186-.094-4.984-.285-6.03-.285-1.091 0-2.135.094-3.226.191-1.282.141-1.9.236-2.516.236-.664 0-.664-.236-.664-.52v-.287c0-.617.332-.617.617-.617.855 0 1.804.048 2.706-.332 1.28-.57 1.47-1.52 1.47-2.944v-23.829c0-1.424-.19-2.373-1.47-2.942-.902-.382-1.851-.333-2.706-.333-.57 0-.617-.332-.617-.57v-.284c0-.238.048-.57.617-.57H15.91c2.42 0 5.837.094 8.165 2.184 1.329 1.187 2.23 3.085 2.23 5.411a7.64 7.64 0 01-1.613 4.747c-1.044 1.328-2.706 2.421-4.7 2.894zm1.566 13.291c1.377-1.662 1.757-3.418 1.757-5.08 0-3.513-1.424-5.553-3.94-6.55-1.614-.618-4.17-1.005-5.214-1.005h-1.448c-.19 0-.617.155-.617-.46v-.476c0-.38.285-.379.712-.379h1.733c1.756 0 3.742-.482 5.214-1.62 1.186-.903 2.088-2.706 2.088-4.937 0-2.848-1.424-4.224-1.993-4.7-1.567-1.233-3.553-1.424-5.547-1.424-1.804 0-3.37.142-4.698.286v26.06c0 1.424 1.084 2.895 5.545 2.895 2.658 0 4.747-.617 6.408-2.61zm32.258 17.959c-.312-.028-.42-.243-.683-.77l-.662-1.334c-.234-.468-.546-1.062-1.297-1.121v-.04c.518-.174.781-.672.898-1.188l.145-.662c.118-.527.263-.663.37-.663.118 0 .157.117.186.185.06.146.146.38.42.38.214 0 .545-.136.545-.643 0-.331-.205-.711-.702-.711-.75 0-1.004.682-1.14 1.179l-.204.76c-.117.429-.4 1.237-1.082 1.237h-.068c-.332 0-.274-.166-.274-.292v-1.56c0-.35-.088-.866.585-.905.156-.01.186-.088.186-.166 0-.146-.078-.165-.196-.165-.35 0-.702.058-1.052.058-.35 0-.71-.058-1.063-.058-.116 0-.194.019-.194.165 0 .078.03.156.185.166.672.039.584.555.584.906v1.559c0 .126.06.292-.272.292h-.069c-.68 0-.964-.808-1.082-1.237l-.204-.76c-.136-.497-.389-1.18-1.14-1.18-.497 0-.7.38-.7.712 0 .507.33.643.543.643.274 0 .362-.234.42-.38.03-.068.07-.185.185-.185.107 0 .254.136.37.663l.147.662c.117.516.38 1.014.896 1.189v.039c-.75.059-1.06.653-1.296 1.12l-.663 1.336c-.263.526-.37.74-.682.77-.087.009-.243.009-.243.166 0 .165.136.175.185.175.127 0 .244-.02.37-.02.41 0 .186.03.565.03.39 0 .556-.371.644-.575l.74-1.628c.117-.263.41-.828.653-1.043.175-.156.322-.156.43-.156.242 0 .203.088.203.254v1.89c0 .858-.204.867-.594.907-.117.009-.175.019-.175.166 0 .106.068.175.194.175.361 0 .712-.06 1.063-.06.35 0 .692.06 1.052.06.127 0 .196-.07.196-.175 0-.147-.059-.157-.176-.166-.39-.04-.595-.05-.595-.906v-1.891c0-.166-.039-.254.205-.254a.57.57 0 01.43.156c.242.215.535.78.651 1.043l.741 1.628c.088.204.254.575.644.575.38 0 .155-.03.565-.03.126 0 .244.02.37.02.048 0 .185-.01.185-.175 0-.157-.156-.157-.243-.166zm-22.422-36.53v16.722s.014.272.219.272.382-.163.382-.163l12.329-15.549v12.411c0 .818-.11 1.365-.846 1.692-.52.22-1.063.191-1.554.191-.328 0-.355.191-.355.327v.164c0 .136.027.328.355.328.354 0 .655-.055 1.445-.11.983-.082 1.582-.136 2.129-.136.543 0 1.143.054 2.125.136.792.055 1.092.11 1.447.11.328 0 .355-.192.355-.328v-.164c0-.136-.028-.327-.355-.327-.49 0-1.036.028-1.555-.19-.736-.328-.845-.875-.845-1.693v-14.212c0-.98.354-1.526.982-2.045 0 0 .195-.252.119-.435-.076-.182-.338-.165-.338-.165-.654.136-1.582.518-2.863 2.128l-10.83 13.64V118.91c0-.818.109-1.363.845-1.69.519-.22 1.065-.192 1.555-.192.327 0 .356-.19.356-.327v-.165c0-.135-.03-.327-.356-.327-.353 0-.654.055-1.445.11-.983.082-1.581.135-2.128.135-.545 0-1.146-.053-2.127-.135-.792-.055-1.091-.11-1.446-.11-.328 0-.354.192-.354.327v.165c0 .136.026.327.354.327.49 0 1.037-.028 1.555.192.737.327.845.872.845 1.69zm21.587 15.385c-.519.22-1.064.19-1.556.19-.327 0-.353.192-.353.328v.164c0 .136.026.327.353.327.355 0 .656-.054 1.447-.109.982-.082 1.582-.136 2.127-.136.546 0 1.145.054 2.128.136.791.055 1.091.11 1.446.11.327 0 .354-.192.354-.328v-.164c0-.136-.027-.328-.354-.328-.49 0-1.036.03-1.555-.19-.736-.328-.846-.874-.846-1.692v-6.983h10.254v6.983c0 .818-.11 1.364-.845 1.692-.519.22-1.066.19-1.556.19-.328 0-.355.192-.355.328v.164c0 .136.027.327.355.327.354 0 .655-.054 1.446-.109.982-.082 1.582-.136 2.127-.136.546 0 1.147.054 2.128.136.791.055 1.092.11 1.445.11.33 0 .356-.192.356-.328v-.164c0-.136-.027-.328-.356-.328-.49 0-1.036.03-1.554-.19-.737-.328-.846-.874-.846-1.692V118.91c0-.818.11-1.364.846-1.69.518-.22 1.064-.193 1.554-.193.33 0 .356-.19.356-.327v-.164c0-.135-.027-.327-.356-.327-.353 0-.654.055-1.445.11-.98.082-1.582.135-2.128.135-.545 0-1.145-.053-2.127-.135-.79-.055-1.092-.11-1.446-.11-.328 0-.355.192-.355.327v.137c0 .246 0 .327.355.354.546.028 1.01-.053 1.556.192.735.327.845.873.845 1.691v5.564H56.173v-5.564c0-.818.11-1.364.846-1.69.52-.22 1.064-.193 1.555-.193.327 0 .354-.19.354-.327v-.164c0-.135-.027-.327-.354-.327-.355 0-.655.055-1.446.11-.983.082-1.582.135-2.128.135-.545 0-1.145-.053-2.127-.135-.79-.055-1.092-.11-1.447-.11-.327 0-.353.192-.353.327v.164c0 .137.026.327.353.327.492 0 1.037-.027 1.556.192.736.327.845.873.845 1.691v13.693c0 .818-.109 1.364-.845 1.692zm28.794 1.473c-4.774 0-7.448-2.101-8.866-4.72-.846-1.527-1.2-3.271-1.2-5.02 0-1.717.409-3.435 1.09-4.826 1.72-3.41 5.266-5.455 8.976-5.455 3.68 0 7.255 2.046 8.974 5.427.709 1.364 1.09 3.055 1.09 4.774 0 1.773-.381 3.573-1.2 5.1-1.09 1.992-3.49 4.72-8.864 4.72zm-6.684-13.885c-.437 1.2-.654 2.538-.654 3.847 0 1.364.217 2.727.628 3.928 1.609 4.555 5.1 5.046 6.71 5.046 1.527 0 5.1-.491 6.71-5.046.409-1.173.627-2.536.627-3.9 0-1.337-.218-2.674-.655-3.875-1.5-4.118-4.582-5.073-6.682-5.073-1.392 0-4.993.382-6.684 5.073zm35.25 12.412c-.52.22-1.064.19-1.556.19-.327 0-.353.192-.353.328v.164c0 .136.026.327.353.327.355 0 .656-.054 1.447-.109.982-.082 1.582-.136 2.127-.136.545 0 1.147.054 2.128.136.79.055 1.09.11 1.446.11.326 0 .354-.192.354-.328v-.164c0-.136-.028-.328-.354-.328-.491 0-1.036.03-1.555-.19-.736-.328-.847-.874-.847-1.692v-13.747c0-.655.71-1.5 3.219-1.5 1.392 0 2.975.135 4.174 1.335 1.01 1.01 1.31 2.347 1.31 3.628 0 1.337-.355 2.646-1.065 3.546-.544.683-1.608 1.474-3.435 1.474-.873 0-1.582-.164-2.73-.6-.217-.109-.545-.056-.545.163v.328c0 .11.11.191.192.245.49.301 1.936.791 3.682.791 1.28 0 3.383-.244 4.909-1.882.902-.954 1.556-2.4 1.556-4.065 0-2.292-1.037-3.709-2.101-4.555-1.691-1.336-3.655-1.555-5.237-1.555-1.091 0-2.428.192-5.101.192-.846 0-1.363 0-2.127-.082-.655-.055-1.037-.11-1.447-.11-.327 0-.353.192-.353.327v.164c0 .137.026.327.353.327.492 0 1.037-.027 1.556.192.736.327.845.873.845 1.691v13.693c0 .818-.11 1.364-.845 1.692zm-15.771 0c-.518.22-1.064.19-1.555.19-.327 0-.354.192-.354.328v.164c0 .136.027.327.354.327.41 0 .873-.054 1.447-.136a19.918 19.918 0 012.126-.109c.955 0 1.555.054 2.128.11.573.081 1.036.135 1.445.135.327 0 .355-.19.355-.327v-.164c0-.136-.028-.328-.355-.328-.463 0-1.064.03-1.555-.19-.79-.354-.846-1.064-.846-1.692v-15.248h3.574c1.091 0 2.237.082 3.328 1.173.654.654 1.31 1.882 1.582 2.455.246.3.628.11.6-.3l-1.446-5.156-.189-.08h-.22l-.136.135c.054.328-.137.627-.518.627h-11.32c-.327 0-.354.192-.354.327v.164c0 .137.027.327.354.327.52 0 1.01-.027 1.555.192.736.3.845.71.845 1.691v13.693c0 .818-.109 1.364-.845 1.692zm.315 21.145c-.078.01-.175.01-.175.167 0 .165.136.175.195.175.36 0 .7-.06 1.052-.06.35 0 .7.06 1.063.06.028 0 .194 0 .194-.175 0-.147-.068-.157-.185-.166-.38-.03-.585-.088-.585-.838v-.098l2.69-3.722v3.752c0 .857-.205.877-.585.906-.117.009-.185.019-.185.166 0 .165.136.175.195.175.36 0 .7-.06 1.053-.06.35 0 .7.06 1.062.06.029 0 .194 0 .194-.175 0-.157-.087-.157-.174-.166-.43-.03-.595-.098-.595-.906v-4.337c0-.906.234-.877.595-.906.096-.01.165-.02.165-.166 0-.165-.146-.165-.185-.165-.341 0-.683.058-1.014.058-.36 0-.731-.058-1.101-.058-.176 0-.195.078-.195.165 0 .156.087.156.175.166.35.019.595.078.595.779v.049l-2.69 3.732v-3.654c0-.721.107-.877.585-.906.087-.01.175-.01.175-.166 0-.165-.146-.165-.184-.165-.362 0-.712.058-1.063.058-.342 0-.691-.058-1.043-.058-.185 0-.204.087-.204.165 0 .156.087.156.175.166.458.029.595.146.595.906v4.337c0 .76-.137.877-.595.906zm-29.164 0c-.43-.028-.595-.097-.595-.905v-4.337c0-.906.235-.877.595-.906.098-.01.166-.02.166-.166 0-.165-.146-.165-.186-.165-.34 0-.681.058-1.013.058-.361 0-.731-.058-1.101-.058-.176 0-.194.078-.194.165 0 .156.087.156.175.166.35.019.594.078.594.779v.049l-2.69 3.732v-3.654c0-.721.107-.877.585-.906.088-.01.176-.01.176-.166 0-.165-.147-.165-.185-.165-.361 0-.712.058-1.062.058-.341 0-.692-.058-1.043-.058-.185 0-.204.087-.204.165 0 .156.086.156.174.166.458.029.595.146.595.906v4.337c0 .76-.137.877-.595.906-.078.009-.174.009-.174.166 0 .165.135.175.195.175.36 0 .7-.06 1.052-.06.35 0 .7.06 1.062.06.028 0 .194 0 .194-.175 0-.147-.068-.157-.185-.166-.38-.03-.584-.088-.584-.838v-.098l2.689-3.722v3.752c0 .857-.205.877-.585.906-.117.009-.184.019-.184.166 0 .165.136.175.194.175.36 0 .7-.06 1.053-.06.35 0 .7.06 1.06.06.03 0 .197 0 .197-.175 0-.157-.088-.157-.176-.166zm53.072.342c.049 0 .107-.01.156-.01.078-.01.146-.01.224-.01.166 0 .322.02.488.02a.175.175 0 00.175-.175c0-.127-.03-.147-.244-.166-.204-.02-.361-.097-.701-.761l-.721-1.393c-.458-.887-.946-1.052-1.268-1.082v-.04c.273-.086.634-.311.887-1.197l.186-.663c.078-.292.156-.652.36-.652.117 0 .156.097.195.185.069.175.146.38.429.38.263 0 .536-.215.536-.624 0-.283-.146-.741-.741-.741-.302 0-.828.137-1.12 1.179l-.225.79c-.117.419-.39 1.228-1.092 1.228h-.155c-.254 0-.283-.04-.283-.293v-1.55c0-.964.283-.886.595-.905.097-.01.184-.06.184-.166 0-.166-.077-.175-.282-.175-.321 0-.643.058-.975.058-.331 0-.663-.058-.983-.058-.176 0-.273.009-.273.175 0 .039.019.166.174.166.39 0 .596.048.596.906v4.327c0 .848-.206.877-.585.906-.088.009-.185.019-.185.166 0 .058.039.175.204.175.36 0 .702-.06 1.052-.06.352 0 .703.06 1.063.06.049 0 .194-.01.194-.175 0-.147-.057-.157-.175-.166-.321-.04-.604.039-.604-.906v-1.891c0-.136-.06-.253.272-.253.245 0 .546.019 1.015 1.014l.789 1.656c.165.35.33.72.838.72zm-19.364-8.509a.558.558 0 00.039-.176c0-.097-.077-.136-.146-.136-.107 0-.185.175-.361.478-.262.467-.497.643-.808.643-.341 0-.517-.273-.556-.654-.03-.253.02-.496-.194-.496-.205 0-.566.526-.566.847 0 .468.545.877 1.13.877.78 0 1.209-.78 1.462-1.383zm-13.423 1.503c2.075 0 3.059 1.997 3.059 3.624 0 2.047-1.365 3.567-3.07 3.567-1.695 0-3.06-1.54-3.06-3.635 0-2.027 1.355-3.556 3.07-3.556zm.048 6.86c1.14 0 1.988-1.23 1.988-3.08 0-2.095-.955-3.45-2.085-3.45-.925 0-2 .878-2 3.08 0 2.076.909 3.45 2.097 3.45zm-8.939-6.344c.058 0 .175-.01.175-.166 0-.087-.02-.165-.204-.165-.352 0-.702.039-1.053.039-.312 0-.624-.04-.936-.04h-.74c-.233 0-.458.02-.692.02-.254 0-.507-.02-.77-.02-.039 0-.205 0-.205.157 0 .165.098.175.186.175.38.01.652-.02.652.916 0 .702-.067 2.105-.184 2.934-.206 1.47-.498 1.939-.703 1.939-.088 0-.135-.06-.184-.127-.049-.068-.127-.204-.342-.204-.282 0-.545.204-.545.623 0 .39.243.604.605.604.564 0 1.178-.351 1.558-2.465.166-.936.215-1.784.253-2.534.04-.711.04-.975.068-1.18.03-.184.098-.457.546-.457h.341c.351 0 .614 0 .614.565v4.629c0 .809-.166.877-.594.906-.098.01-.175.01-.175.166s.107.175.195.175c.35 0 .701-.058 1.052-.058.351 0 .701.058 1.053.058.194 0 .204-.127.204-.175 0-.147-.098-.156-.175-.166-.39-.03-.595-.058-.595-.906v-4.532c0-.652.263-.682.595-.711zm88.021-100.305l.845.359c-.003-.001.124.008.028-.043-.163-.085-.694-.307-.965-.486-.086-.045.088-.12.412-.228.077-.026-.048-.047-.048-.047s-.52.17-.564.137c-.19-.142-.406-.302-.527-.457-.545-.68-.482-.643-.491-.813-.008-.17.26-.817 1.025-1.211.295-.141.514-.207.802-.102.11.039.658.85.658.85s.028.03.056.006c.03-.024-.007-.06-.007-.06l-.481-.711s.353.09.645.089c.705-.072 1.189-.487 1.45-.547.262-.06.425-.012.425-.012l.048-.027-.012-.05s-.224-.08-.566.046c-.123.045-1.024.482-1.308.515-.336.042-.561-.11-.774-.183-.227-.08-.5-.105-.781-.035-.02.006.079-.2.183-.413.127-.198.259-.264.325-.332.039-.042-.024-.057-.031-.054-.025.01-.24.173-.348.36-.138.236-.292.549-.385.579-.288.099-.691.543-.928.819.007-.168.046-.53.036-.688-.021-.274-.061-.541-.025-.975a6.476 6.476 0 01.392-1.8c.099-.177.63-.448.712-.501.039-.022.336-.143.326-.208-.008-.067-.995.544-.97.486.338-.708.825-1.241.824-1.24-.014.01.04-.05.032-.07-.01-.018-.065.019-.078.03-.49.443-1.042 1.539-1.31 2.79-.018.088-.371-.594-.453-.807-.01-.027-.067-.036-.011.097.117.285.415.856.406.93-.032.582-.015.976.004 1.254.023.302.007.545-.087.905-.06.084-.13.072-.13.072-.001 0-.09-.016-.307-.408a50.836 50.836 0 00-.98-1.666c-.027-.043-.005-.505-.025-.536-.041-.065-.045.332-.118.354-.073.02-.887-.48-.887-.48s-.033-.016-.051.016c-.015.033.028.062.028.062s.676.392.852.565c.176.173 1.038 1.662 1.093 1.764.122.217.283.4.27.513-.013.11-.808.247-1.272.266-.036 0-.338-.35-.358-.368-.011-.01-.085-.026-.05.027.072.107.29.334.264.335-.242 0-.576-.112-.801-.221-.032-.016-.07-.002-.046.019.096.085.28.162.58.249.485.14 1.448-.025 1.742-.074.403-.066.573.434.864.755.278.302.795.585.848.604zm-11.841 30.262s-.28-.417-.54-.68a5 5 0 00-.653-.529l-.01.059.094.148s.274.169.526.448c.223.246.339.411.358.506.109.519-.91 1.53-1.166 2.091-.794 1.717-2.564 2.122-2.567 2.123-.297-.027-.375-.143-1.392-.957-.285-.226-.73-.759-.677-1.249-.057-.082 1.293-.753 1.293-.753s-.018-.058-.137-.011c-.375.147-1.304.455-1.35.37-.333-.583.176-1.411.362-1.764.06-.114 0-.094-.001-.097 0 0-.468.459-.593.746-.126.287.048 2.131.688 2.854.592.553 1.48.906 1.346 1.486-.147.646-.666 2.843-.513 4.245 0 0 .133.905.18 1.183.049.278.116.18.097-.007-.02-.189-.171-1.301-.107-1.983.006-.074.469.56.673.7.068.048.1-.078.086-.098-.033-.05-.732-.867-.722-.954.144-1.096.344-2.956.693-2.699.145.185 1.184.591 1.458.67 2.117.614 4.247 3.766 4.503 4.577.01.001.113.004.125.006-.087-.473-.992-1.891-1.61-2.668-.06-.074 1.794.063 1.744-.026-.054-.092-1.914-.095-1.971-.187-.613-.992-2.246-1.854-3.282-2.253-.643-.247-.762-.613-.635-.774.127-.16 1.593-.293 2.2-.284.556.006 1.39-.067 2.318-.251.163-.032 1.53.664 2.023.845.149.056.229-.037.19-.05-.426-.136-1.72-.849-1.55-.894 4.694-2.029 6.3-.394 6.822-.063.109.07-.225-.411-.55-.601-.2-.117-2.028-1.063-3.476-.467-.1.054.83-1.249.713-1.258-.047-.004-1.051 1.297-1.17 1.352-.87.401-1.984.736-3.383.933-.851.12-1.411.158-1.955.152-.317-.006-1.158.107-1.503.14.7-.283 1.693-1.321 1.9-1.883.064-.175 1.447-.273 1.894-.547.349-.214.71-.501.647-.585-.066-.085-.348.248-.706.431-.403.206-1.671.376-1.651.337.386-.783.632-.933 1.026-1.638.277-.496.984-1.01 1.087-1.353.134-.446 1.174-1.839 1.273-2.008.056-.091.114-.156.155-.218.046.004-.066-.034-.177-.053-.217.331-1 1.269-1.371 2.187-.151.364-1.056 1.253-1.056 1.253zm10.764-40.736l-.02-.087c-.25 0-.396.062-.73.006-.028-.005.179-.198.24-.289.045-.065-.046-.039-.06-.03-.021.014-.306.305-.35.297-.54-.108-1.183-.299-1.494-.478.084-.057.168-.174.259-.359.042-.087.082-.186.123-.297.233-.658.476-1.136.719-1.363.09-.085.266-.208.448-.27.302-.107.572-.123.572-.123s.086-.025.073-.064c-.013-.04-.141.01-.141.01s-.345.047-.542.11c-.2.062-.513.266-.513.266 0 .002-.174-.439-.207-.383-.016.027.142.424.119.462-.354.513-.543 1.115-.75 1.538-.162.333-.305.314-.308.315 0 0-.076-.048-.152-.136a2.463 2.463 0 01-.247-.843c-.026-.25-.051-.682-.194-1.108-.117-.235.203-.573.27-.815.05-.176-.05-.112-.055-.08-.048.181-.31.662-.342.585-.386-.914-1.045-1.78-1.491-2.187-.123-.113-.17-.139-.196-.073 0 0 .374.293.792.891.034.048-.126.007-.124.061.003.02.22.053.255.11.25.413.617 1.042.794 1.68.107.39.113.684.14.93.015.141.117.476.153.631-.288-.286-.756-.773-1.05-.895-.176-.077-.272-.315-.435-.53-.088-.115-.048-.157-.219-.243-.044-.022-.019.031-.025.028-.019-.008.054.067.167.24.127.193.263.4.243.391-.272-.09-.507-.052-.7-.008-.178.04-.406.071-.59.027-.138-.032-.153-.005-.153-.005s-.08.001.18.082c.205.065.544.018.544.018l-.373.487s-.04.032-.014.07c.026.037.064.002.064.002s.388-.529.482-.55c.246-.058.453-.027.75.13.498.258 1.048.883 1.17 1.061.091.11.067.354-.282.78-.098.12-.284.216-.45.31-.026.014-.382-.058-.535-.24-.046-.058-.084.036-.084.036s.49.266.438.291c-.245.166-.718.198-.856.244-.136.047.005.073.005.073l.744-.153c.05-.008.541-.219.771-.445.244-.244.23-.57.665-.438.327.1 1.412.361 2.08.35zm-22.07 45.8c-.86-.48-2.474-.714-4.399-.333-.14.03.47-.95.728-1.226.024-.026-.098-.098-.184.003-.289.334-.828 1.356-.955 1.393-.718.208-1.563.67-1.952.888-.426.24-1.363.636-1.614.556-.27-.12.042-.51.042-.51-.002-.008 0 0 .42-.629.14-.212.218-.445.505-.674.287-.229 1.884-.888 1.884-.888s.341-.168.06-.1c-.188.044-1.646.76-1.659.648-.013-.11 1.81-1.904 1.823-1.917 0 0 .801-.734 1.272-1.153l-.029-.07a83.405 83.405 0 00-1.329 1.175c-.072.067-1.819 1.882-2.06 2.06-.243.179-.207-.433-.24-.6-.046-.223.031-.915-.124-.627-.154.293.183 1.452.183 1.452a18.49 18.49 0 00-.55.756c-.234.348-.462.816-.626.859-.164.042-.828-1.4-1.219-2.19-.025-.052.25-.583.332-.82.05-.2-.057-.06-.056-.072.014-.077-.35.703-.38.632a9.158 9.158 0 01-.515-1.393s-.11-.075-.069.102c.044.18.294.849.294.849.27 1.124 1.13 2.677 1.421 3.128.392.608-.168 1.023-.418 1.698-.233.633-.252 1.607-.242 1.699l.087 1.21c0-.007.196.3.21-.082.007-.27-.153-.89-.119-1.23.013-.117.65.216.65.216s-.643-.53-.625-.622c.064-.384.221-.973.353-1.268.473-1.047.47-1.08.667-1.213.001-.001 1.032-.336 2.458.743.38.358.53.69.565 1.186.014.193-.61 1.449-.61 1.449l.174-.047.53-1.126s.095.656.297.956c.3.45.805.82 1.233 1.09a1.21 1.21 0 01.102-.187c-.449-.286-1.066-.684-1.203-.932-.16-.289-.148-.76-.176-1.12a2.414 2.414 0 00-.435-1.204c-.022-.028.362-.007.723.012.324.016.696.22.677.197-.015-.019.05-.199-.129-.275-.115-.05-.448-.005-.576-.022-.415-.059-.984-.08-1.087-.202-.327-.389-1.392-.705-2.048-.782a19.841 19.841 0 001.263-.587c.383-.213 1.282-.663 2.052-.913.825-.267 1.71-.387 2.313-.247.56.13.988 1.133 1.157 1.024.082-.054-.754-1.065-.659-1.057 1.172.08 2.055.614 2.071.566.014-.044-.23-.215-.26-.23zm-25.925 5.75s2.654-.133 3.657-.175c-.222-.23-.512-.459-.735-.689-.85.053-2.024.16-2.9.15z"/><path fill="#fff" d="M154.273 70.335c-1.237-1.012-1.421-2.312-1.421-2.312s2.044-.977 2.188-1.077c.088-.06.26-.25.219-.504-.075-.46.105-1.881.375-2.906.106-.4.223-.743.35-1.016.615-1.323 1.154-1.962 1.176-1.99l.61-.715s.15.864.433 1.093c.076.056.404.176.669.276.8.293 1.484.797 1.898 1.179.028-.033.2-.455.939-.835.106-.3.206-.602.303-.904-.672.315-1.34.275-1.736.25-.635-.037-1.6-.475-1.705-.524l-.261-.12s.457-1.192.319-1.504c-.14-.31-2.361-2.314-2.337-2.462.015-.09.862-.562 1.02-.644.407-.212.69-.357.897-.42.233-.073.572-.057.895-.012l-.172-.59c-.237-.82.37-1.621.965-2.393l.049-.066c.323-.421.802-1.37.802-1.37s.94.25 1.246.31c.184.035.386.074.593.119.389.066.713.162.989.272.004-.182.008-.364.01-.545-.092-.388-.258-.711-.67-1.08-.462-.334-.85-.373-1.141-.284.032.005.063.009.095.017.23.057.552.229.563.536-.01.578-.528.72-.868.659-.125-.026-.563-.18-.541-.627.006-.121.083-.316.257-.48l-.135.013a1.19 1.19 0 00-.505.157.421.421 0 00-.161.17.442.442 0 00-.031.234.308.308 0 00.058.127c.03.04.143.122.217.088a.246.246 0 00.139-.22c.006-.082-.078-.163-.146-.18l.026-.017c.048.01.166.115.162.205a.254.254 0 01-.157.23c-.204.075-.33-.15-.34-.2a.556.556 0 01.185-.51c.153-.11.338-.167.54-.203.105-.017.216-.027.332-.027.18-.104.425-.17.744-.148.382.027.682.193.887.389.21.205.38.402.484.627l.007.014a34.803 34.803 0 00-.035-1.295 2.643 2.643 0 01-.248-.328c-.233.237-.885.504-1.354.41-.706-.143-1.942-1.51-1.942-1.51s.359-.52.502-.957c.054-.161.12-.293.197-.401a1.702 1.702 0 01-.47-.464c-.241-.36-.69-1.25-.707-1.284l-.201-.4s.919-.182 1.676-.567c.187-.104.605-.288.854-.285a1.057 1.057 0 01-.072-.408c.008-.607.172-.97.53-1.424-.034-.124-.07-.248-.106-.372a3.78 3.78 0 00-.744-.566c-.368-.215-.597-.17-.795-.12-.006 0 .666.007.826.89.018.142.023.676-.484.83-.165.05-.867.215-1.251-.602-.078-.168-.123-.576.094-.837-.861.232-.965.742-.992.892-.058.324.272.985.72.615.105-.127.107-.305.047-.467-.045-.144-.223-.226-.341-.215l.03-.043c.08-.01.345.09.397.242.07.175.097.404-.058.572-.352.336-.717-.001-.796-.173-.095-.204-.242-.511.062-1 .158-.251.418-.39.669-.508.132-.06.268-.11.414-.144.149-.184.394-.314.668-.354.595-.086 1.158.279 1.363.432a34.653 34.653 0 00-.444-1.307c-.248.327-.592.682-.914.77-.382.106-.885-.046-1.11-.157-.33-.162-1.068-.273-1.21-.274l-.118-1.14a1.285 1.285 0 01.002-.417 2.062 2.062 0 01-.638-.231c-.385-.22-1.138-.774-1.17-.798l-.417-.308s.824-.362 1.07-.667c.099-.12.255-.318.402-.471a.867.867 0 01.528-.281c-.12-.11-.851-.792-.29-1.982.5-1.054 1.585-1.768 1.585-1.768s-.016.51.52.826c.676.396 2.023.845 2.023.845.218.08.33.533.42.65.128-.092.328-.511.568-.545.112-.016.242-.026.38-.03.429-.016 1.758.427 1.758.427s-.1.127-.222.399c-.032.344.416 1.042.478 1.613.056.503-.551.916-.95 1.189.1.062.47.29.59.376.654.477 1.006 1.428 1.006 1.428-.695-.095-1.37.16-1.476.232-.304.205-.726.54-1.477.596a1.828 1.828 0 01-.494-.024c.155.45.3.904.438 1.358.763-.687 2.204-1.379 2.258-1.408 0 0 .008.564.226.941.087.187 1.87 1.903 1.87 1.903.235.194.249.43.27.623.253-.09.752-.138 1.06-.092.019.001 1.355.152 2.003.927-.186.176-.225.278-.545 1.9-.071.378-.144.766-.268 1.1-.193.526-.71.911-1.69 1.076.076.112.462.788.56 1.524.115.87-.328 1.424-.328 1.424s-.67-.545-1.108-.716c-.396-.17-.804-.093-.804-.093-.525.062-1.1.081-1.817-.182a2.72 2.72 0 01-.282-.125c.02.717.023 1.437-.003 2.16.482.342.638.677.648.702.453-.133 1.203-.172 1.919-.196.229-.008.544-.018.629-.035.538-.07.909-.48.909-.48s.472.992.522 2.037c.032 1.936-1.084 3.346-1.074 3.444.007.068 1.022.928 1.77 1.607l.313.285-.375.276c-.05.036-1.195.861-2.53.926-1.885.095-3.184-.734-3.605-1.048a6.192 6.192 0 01-.414.496c-.13.45-.266.895-.414 1.338.694-.19 1.648-.315 2.962-.275.393.005.775.018 1.133.03.613.021 2.79-.084 2.79-.084s-.543 1.557-.462 3.063c.08 1.508.21 2.622-.374 3.7-.491.927-2.058 1.782-2.058 1.782 1.599.17 4.128 3.764 4.128 3.764-1.252 1.99-5.773 1.166-6.121 1.261 0 0-1.023-.036-1.303.65-.23.597-.203 1.604-.203 1.604s-2.161-.495-3.09-1.18c-1.831-1.312-1.928-3.78-2.075-3.929-.052-.055-.364-.07-.81-.132a39.05 39.05 0 01-2.25 2.69c1.608-.494 2.417-1.142 2.417-1.142s1.767 1.94 1.868 2.755c.13 1.06-.795 2.125-.986 2.468-.006.008.646-.013 1.382.395.736.41 2.047 1.815 3.42 2.553.545.292 2.52 1.012 2.52 1.012s-2.603 3.475-4.226 4.413c-1.594.923-2.948.032-3.201-.252.139.235.414 1.106.248 2.281-.207 2.018.222 3.261.222 3.261s-4.133.002-5.211-.635c-.884-.454-1.208-1.15-1.308-1.457-.122.231-.67.614-1.211.774-1.364.402-2.198 1.244-2.198 1.244-.134-.207-.64-1.176-1.044-1.495-.192-.15-.81-.572-.93-.668-.331-.258-.731-.812-.832-1.523-.116-.823.665-2.24 1.31-2.838a2.925 2.925 0 01-.916-.488c-.525-.412-.934-1.007-1.21-1.764a5.119 5.119 0 01-.211-.747c-.23.137-.46.274-.691.407.078.124.14.238.18.333.27.62.569 1.633 1.079 1.785 0 0-1.041.598-1.617 1.383a4.06 4.06 0 01-1.33 1.162c.197.027.397.062.603.12.507.145.85.317 1.236.772.284.332.453.767.509 1.166.215.271.385.56.518.86.079.243.128.453.12.705-.02.254-.085.527-.27.776a2.862 2.862 0 01-.325.307c-.323.27-.801.285-1.013.24l.035-.166a.97.97 0 00.478-.036c.138-.048.26-.116.359-.194.098-.073.2-.162.273-.272a1.28 1.28 0 00.208-.683 1.184 1.184 0 00-.151-.592 3.874 3.874 0 00-.24-.418c-.131.585-.322.918-.834 1.19-.275.154-1.376.398-2.094-.319-.452-.56-.396-1.522.079-1.919.195-.175.448-.335.764-.414.317-.08.688-.047.984.07.242.09.443.218.618.36a1.443 1.443 0 00-.24-.41c-.45-.438-.734-.606-1.167-.712-.398-.095-.825-.11-1.255-.09-.067.02-.132.042-.2.06-.64.171-1.341.144-1.918.005-.006 0 .28.807.367 1.476.147 1.123 1.16 2.707 1.16 2.707s-1.343-.122-2.342-.17c-1-.048-1.611.401-2.557-.155-.472-.312-.79-.702-1.007-.993-.374 1.191-1.335 1.305-1.462 1.318-.63.092-2.206 0-2.206 0s-.084-.009.084-.852c.12-.604-.343-.72-.682-1.15-.444-.606-.724-.888-.576-1.599.025-.119.057-.235.093-.349-1.113.244-1.921.421-3.057.587 0 0 1.04-.976 1.052-.979.005.001 1.546-.35 2.444-.57a6.02 6.02 0 01.393-.58l-.002-.014c-.066-.13-.362-.713-.718-1.36-.426-.78-.536-1.58-.581-2.109-.053-.608.166-1.338.407-1.746.095-.16.246-.357.484-.667.19-.245.842-1.147.887-1.267l.709.083c.1.06.063-.029.528.18.569.255.868.816 1.047 1.184.555-.796 2.06-1.398 2.06-1.398.97-.45 3.817-.584 3.817-.584s-.19.298.146 1.12c.263.647.14 1.254.09 1.646.263-.055 1.775-.399 2.429-.212.258.073.516.23.752.423.446-.704.76-1.698.488-2.329-.075-.18-.3-.477-.617-.7.044.725-.323 1.288-.496 1.53-.45.535-.92.505-1.144.45-.227-.06-.834-.316-.754-1.059.033-.484.32-.98.798-1.239.225-.124.665-.265 1.413-.012-.125-.64-.63-1.007-.953-1.265 0 0 .672.195.972.902.062.146.103.288.13.425.397.25.717.525.928.985.222.476.074 1.18-.103 1.675-.094.27-.265.553-.454.821.037.035.073.072.109.108a46.79 46.79 0 001.138-.656c.003-.61.125-1.128.227-1.553.112-.476.343-3.23.343-3.23.088-.005 1.399-.15 2.948.511.483.206.85.397 1.124.56.187-1.02.582-2.689 1.805-3.033.575-.162 1.342.006 1.995-.09.14-.022.275-.046.408-.07l.334-.342c.216-.455.398-.929.455-1.415.045-.41-.013-.72-.25-1.279a1.713 1.713 0 00-.291-.39c.055.183.067.346.07.591.008.3-.047.956-.741 1.383-.497.248-1.305.067-1.656-.617-.395-.9.074-1.745.296-1.918.419-.347.783-.366 1.384-.223l.078.033c-.182-.316-.445-.632-.852-.83-.691-.335-1.045.01-1.141.063-.098.055-.346.48-.372.637l-.06-.014a1.2 1.2 0 01.479-.818c.39-.237.858-.138 1.084-.055.186.08.724.453 1.152 1.177.312.214.606.544.803.916.27.504.325 1.207.158 2.116a38.164 38.164 0 001.846-2.178c-.642-.156-1.378-.433-2.013-.967zm-1.345 2.395c.977-.57.597-1.649.52-1.858a4.047 4.047 0 00-.065-.176c-.376-.268-.87-.43-1.351-.116-.274.192-.557.635-.47 1.277.054.596.615 1.085 1.366.872zm-10.41 7.22c.228-.59.27-1.046.205-1.41-.425-.17-.94-.19-1.414.226-.291.183-.904 1.56.199 1.775.165.026.657.069 1.01-.59zm1.284 10.86c.513-.343.627-.846.58-1.3a3.225 3.225 0 00-.276-.271 1.925 1.925 0 00-.63-.375c-.68-.247-1.144.163-1.301.316-.582.691-.185 1.41.206 1.617.393.217 1.09.224 1.42.014zm.74-6.037c-.111-.372-.492-1.064-.6-1.328-.166-.416-.931-1.585-1.823-1.66-1.19-.087-2.171.274-2.184.277-.05.008-.552.116-.406-.504.048-.314.156-1.042-.067-1.63-.167-.436-.153-.38-.185-.695-.182.134-1.936.052-3.207.601-.084.043-1.232.448-1.808 1.228-.173.333-.506.777-.7.122-.516-1.324-1.823-1.47-1.828-1.458-.132.246-1.306 1.454-1.428 2.657-.27 2.644 1.536 3.887 1.54 3.894 0 0-1.062 1.35-1.234 2.162-.073.346.049.733.65 1.352 1.018.999.576 1.642.624 1.787.225-.09.614.1 1.182-.005.432-.054 1.164-.161 1.525-1.262.022-.073.29-.964.536-.506.279.577.556.776 1 1.117.59.452 1.53.068 2.095.105.374.022 1.4.064 1.577.12-.226-.364-.562-.9-.67-1.355-.108-.456-.517-2.353-.276-2.628.302-.317 1.453.345 2.754-.084 1.316-.432 2.047-1.921 2.933-2.306zm12.563-11.102c-.002-.002-1.886 1.156-3.511 1.273-.678.05-1.933.048-2.46.253-.903.348-1.323 2.385-1.361 3.27 0 0-1.178-.6-2.27-1.087-.667-.296-1.144-.313-1.824-.376.138.208-.063 1.641-.215 2.25-.196.792-.423 1.7.014 2.95.24.689.59 1.22 1.04 1.579.588.47 1.15.474 1.15.474l.675.077-.394.703c-.66.91-1.62 2.53-1.551 3.078.06.469.227.68.513.91.115.092.768.545.988.72.464.372.689.76.888 1.172.428-.337 1.014-.51 1.89-.871 1.002-.413 1.705-1.232 1.705-1.232.002.014-.04 1.564 1.297 2.045.822.297 4.084.599 4.084.599s.546-4.097-.57-5.635c-.307-.493.087-.77.595-.343.324.273 1.339 1 2.256.918 2.27-.206 3.567-3.441 4.37-3.932-.332.042-2.461-.84-3.73-2.173-1.623-1.706-3.511-1.667-3.511-1.667s1.115-1.58 1.23-2.178c.252-1.28-.847-2.415-1.298-2.777zm3.75-32.949c-.236-.097-.517-.076-.546-.076a.797.797 0 00-.272.81c.056.223.283.401.527.462.239.066.536.033.649-.182.144-.274.019-.622-.05-.74a.638.638 0 00-.307-.274zm.947 8.983a1.149 1.149 0 00-.252-.04c-.22.14-.347.352-.362.499-.02.528.518.567.755.488a.546.546 0 00.372-.502c-.006-.155-.104-.339-.513-.446zm-.245-11.157s.748.514 1.49.598c.554.03.907-.22 1.219-.413.27-.166.997-.294.969-.398.002-.604-1.492-1.453-1.492-1.453.485-.187 1.299-.781 1.245-1.066a5.95 5.95 0 00-.247-.802c-.167-.472-.308-.865-.262-1.166-.148-.027-.861-.215-.951-.208-.302-.03-.613.105-.731.262-.118.158-.275.4-.275.4-.364-.04-.577-.239-.634-.589-.026-.159-.04-.165-.091-.186 0 0-1.675-.484-2.645-1.257a1.375 1.375 0 01-.1-.105c-.248.255-.515.568-.651.853-.317.668-.46.991-.26 1.415.07.15.94 1.164.94 1.164s-.724-.176-1.364.167c-.343.267-.822.804-1.194.907.297.222.67.484.922.635.473.244 1.116.294 1.116.294s.148 1.3.049 1.707c.195.027.947.416 1.45.413.503-.003 1.497-1.173 1.497-1.173zm1.916 9.536s.123.892 1.247 1.34c.619.247 2.255-.23 3.364.538.27-1.023-.68-2.414-.68-2.414s1.522-.317 1.996-1c.419-.717.356-2.155.657-2.725-.56-.388-1.605-.675-2.2-.432-.297.122-.504.255-.713.21-.295-.06-.371-.305-.148-.897.074-.197-.138-.39-.138-.39-1.23-1.107-1.946-1.392-2.031-2.275-.031-.087-2.086 1.061-2.44 2.352-.184.74.027 1.363.027 1.363s-.276-.142-1.06.11c-.305.077-1.447.511-1.531.525.559 1.37 1.28 1.711 1.295 1.713 0 0-.301.507-.432.859-.108.283-.064.514-.162.688.159.1.73.751 1.249.877.903.257 1.7-.442 1.7-.442zm-4.528 11.84c2.194 1.164 3.6-.251 3.758-.47.243-.27.445-.557.394-.653-.052-.095-.652.445-1.093.67-.9.45-2.305.45-2.405.463-.102.012-.138-.057-.034-.076.215-.04.756-.036 1.172-.147.073-.018-.267-.235-.374-.324-.028-.025-.017-.094.035-.062.053.03.432.336.739.29.414-.093.679-.201.887-.326.752-.434.929-.7.914-.843-.017-.142-.53-.895-1.322-1.244-.387-.164-.575-.245-.974-.176-.154.026-1.135.679-1.135.679s-.043.005-.066-.037c-.02-.042.027-.057.027-.057l.763-.522s-.583.045-.858-.018c-.416-.098-1.116-.314-1.404-.456-.257-.125-.131-.185-.056-.158.125.045 1.094.426 1.428.48.255.043.783.002 1.068-.048.314-.055.598-.04.973.052.029.007-.087-.22-.192-.433-.096-.191-.435-.443-.33-.367-.056-.064.02-.09.078-.05.095.069.264.296.339.415.155.238.343.515.47.555.407.128 1.2 1.137 1.275 1.077.074-.061.04-.521.126-.842.08-.28.216-.818.24-1.268.04-.742-.283-1.142-.485-1.622-.028-.065-.416-.183-.41-.208.025-.064.364.056.334-.002-.383-.85-.943-1.123-.943-1.123s.009-.084.065-.047c.625.406 1.36 1.408 1.552 2.668.012.082.814-.642.814-.642s.144.013.095.072c-.253.302-.84.754-.84.829.017.493-.19 1.099-.275 1.384-.22 1.002.167 1.049.167 1.049.004 0 .248.038.69-.336.56-.478 1.265-1.464 1.624-1.991.03-.045-.176-1.1-.19-1.142-.11-.39.092-.27.12-.067.012.068.075 1.14.314.907l.943-1.415s.04-.043.063-.008c.023.036.015.074.015.074s-1.264 2.013-2.101 3.057c-.042.05.973.093 1.03.11.109.034.043.085-.012.1-.203.062-1.112-.074-1.15-.035-.127.125-.817.826-.982.889a7.266 7.266 0 002.028.642c.058.008.495-.298.68-.383.036-.018.064.027.073.025.07-.022-.607.385-.53.395.427.054 1.18.009 1.56.027.11.006-.038.069-.038.069s-1.216.055-2.008-.074c-.664-.11-1.883-.632-1.981-.435-.097.199 2.033 1.288 3.117 1.249 1.258-.035 1.954-.675 2.118-.914-.541-.55-1.54-1.255-1.557-1.748.232-.535.902-1.907.99-2.59a4.503 4.503 0 00-.213-2.09 8.153 8.153 0 01-1.017.078c-1.748-.028-2.428.49-2.428.49s-.047-1.327-3.533-2.106c-.09.259-.135.43-.55.927 0 0-1.334 1.246-1.038 2.328 0 0 .402 1.215.01 1.31-.391.105-.767-.134-1.39.018-.147.044-1.18.566-1.286.62.995 1.339 2.305 1.906 2.344 1.99 0 0-.374 1.126-.232 1.568zm-3.776 7.598c-.222.15-1.25.57-1.85.81.179.408.517 1.057 1.01 1.467 1.379 1.14 2.922.988 3.266.937.034-.014.139-.166.036-.204-.765-.272-1.777-.68-2.371-1.091l-.777-.54c-.044-.052.014-.085.092-.037.298.183.783.556 1.156.738.07.034-.27-.702-.225-.642.012.014.007-.105.07.01.125.22.359.742.4.76.645.294 1.363.527 1.872.626.124.024.28-.033.24-.247-.022-.118-.17-1.127-.214-1.342-.105-.52-.186-1.374-.208-2.303-.002-.085-.82-.894-.82-.977-.002-.09.81.763.81.673-.01-.79-.084-1.956-.077-2.431.004-.255.088-.073.088-.073l.087 2.127c.003.026.133 2.54.484 3.757.202.693.204.789.358.792.153.003.49-.033.777-.894.105-.393.442-1.354.807-1.96.056-.093-.33-1.095-.397-1.625-.013-.105.122.025.122.025s.418 1.395.493 1.296c.327-.435.68-.821 1.045-1.16.064-.058.005-1.4.163-1.437.063-.014-.023 1.294.026 1.254 1.012-.841 2.245-1.442 3.148-1.58 0 0 .212.09.028.155-.383.135-1.41.368-2.19.928-.09.064.632.162.609.268-.01.042-.737-.158-.996-.017-.803.548-1.45 1.344-1.957 2.324a7.213 7.213 0 00-.555 1.475c-.06.222-.315.662-.41.879.562-.16 1.529-.464 2.114-.342.187.039.649-.178 1.049-.378.318-.16.825-.194.876-.184.018.003.177.094.03.128-.163.039-.66.113-.813.208-.32.2-.633.32-.592.332a3.952 3.952 0 011.432.742c.35.288.773.693 1.184.85.555.213 2.736.546 3.007.599.4.079.218.16-.011.113-.228-.048-1.708-.176-3.09-.612-.457-.144-1.137-.642-1.137-.642l.672 1.344s.083.085-.045.097c-.127.012-.14-.1-.14-.1s-.63-1.371-.813-1.52c-.47-.391-1.024-.68-1.642-.751-.995-.121-2.288.508-2.305.526l-.004.002c-.032.202.013.545.499 1.582.137.288.315.502.854.578.04.05 1.323.065 1.596.107.142.022.083.149.083.149s-1.502-.071-1.42.026c.412.474.965.528 1.188.748.1.1-.141.102-.138.104l-1.195-.676c-.08-.07-.8-.233-1.125-.83-.272-.49-.297-.953-.633-1.262-.056-.053-.124.014-.101.103.038.15.05.322.066.519.026.346.063.82.223 1.426.262 1.002.942 1.534 1.698 2.049.393.268 1.36.567 1.945.75.087-.26-.21-1.356.93-2.031.833-.505 4.828.484 6.277-.95-.566-.501-1.414-1.607-1.65-1.831-1.457-1.466-3.151-1.455-3.151-1.455l2.61-2.113c.966-.786.897-2.433.767-4.042l-.012-.173a4.944 4.944 0 01.279-2.055c-.456.01-.984-.011-1.601-.037a67.57 67.57 0 00-1.213-.044c-1.127-.023-3.086-.063-3.954.696-.228.202-.713.572-.833 1.106-.14.427-.453.457-.48.038-.047-.256-.306-1.11-2.26-1.677-.633-.196-.78-.695-.825-.737-.555.74-1.19 2.102-1.294 2.482-.334 1.223-.455 2.576-.42 2.805.038.23.147 1.076-.622 1.492z"/><path fill="#fff" d="M128.24 87.025l-5.299 4.93-5.299-4.934 5.298-4.933zm-5.299 3.914l4.207-3.914-4.208-3.92-4.206 3.915zm6.112-1.589c-.86.01-1.58-.043-2.39-.092-.214.222-.468.437-.682.658 1.013.046 3.092.148 3.092.148z"/><path fill="#fff" d="M74.828 47.014c-.594-1.487-.651-1.575-.882-1.694.6-.934 2.053-1.451 2.074-1.458.333-.13.89-.221 1.182-.203-.004-.194-.023-.427.206-.682 0 0 1.715-2.162 1.784-2.367.185-.426.111-.977.111-.977.07.015 2.119.343 2.964.885.284.182.508.337.687.497.138-.464.287-.926.445-1.386a1.87 1.87 0 01-.469.02c-.751-.056-1.173-.39-1.478-.597-.105-.071-.781-.327-1.476-.232 0 0 .352-.951 1.005-1.428.12-.087.491-.314.59-.376-.397-.273-1.005-.686-.949-1.19.063-.57.511-1.268.479-1.612-.123-.272-.224-.4-.224-.4s1.33-.441 1.759-.427c.137.005.268.016.38.032.239.033.44.452.566.544.092-.117.204-.57.422-.65 0 0 1.348-.45 2.022-.845.538-.316.521-.825.521-.825s1.085.713 1.583 1.767c.563 1.189-.169 1.872-.287 1.982.156.023.332.08.527.28.148.154.303.352.402.472.247.305 1.071.667 1.071.667l-.418.308c-.031.024-.784.579-1.17.798-.198.112-.414.19-.639.232.023.119.028.257.003.416l-.119 1.14c-.141 0-.881.112-1.209.274-.225.11-.727.262-1.109.158-.328-.09-.679-.457-.929-.79a34.627 34.627 0 00-.654 1.995c.268-.35.72-.844 1.201-.96.279-.068.564-.04.774.078.153-.023.304-.03.452-.023.287.016.588.047.831.226.468.346.435.692.416.923-.015.193-.249.652-.71.47-.21-.1-.266-.326-.26-.521-.003-.163.217-.36.298-.381l.046.029c-.12.035-.262.18-.254.335-.001.177.063.345.211.425.567.178.651-.576.478-.861-.079-.131-.361-.575-1.28-.463.304.163.407.568.39.757-.081.923-.712 1.058-.949 1.055-.549-.007-.793-.41-.814-.603-.159-.9.537-1.204.53-1.203-.209.028-.494.114-.774.459a4.13 4.13 0 00-.663 1.157 1.01 1.01 0 01-.033.233c.275-.072.763-.008.987.04.891.165 1.932.088 1.932.088l-.163.444c-.014.038-.377 1.028-.592 1.444a2.115 2.115 0 01-.448.58c.101.084.193.194.276.336.223.385.697.792.697.792s-1.163 1.67-1.921 2.004c-.504.222-1.264.143-1.555-.023a3.112 3.112 0 01-.379.593c-.019.329-.035.659-.045.989.143-.24.334-.49.592-.725.327-.302.905-.58 1.52-.613.519-.025.899.083 1.171.249.198 0 .386.02.566.05.328.062.626.16.876.335a.847.847 0 01.309.8c-.027.156-.214.426-.544.303a.41.41 0 01-.259-.364c-.009-.14.18-.3.257-.315l.042.027c-.11.026-.244.149-.232.28a.353.353 0 00.222.318c.12.055.403-.084.443-.293a.795.795 0 00-.314-.645c-.232-.144-.513-.22-.818-.258l-.291-.036c.257.256.356.56.369.75.023.776-.605.993-.808 1.03-.546.09-1.287-.117-1.307-1.068.008-.503.499-.77.868-.853.038-.008.074-.011.111-.017-.487-.171-1.138-.141-1.902.39-.599.593-.795.966-.882 1.357.424-.127 1.114-.357 1.114-.357s.586 1.002.964 1.439l.059.069c.698.802 1.412 1.634 1.209 2.544l-.147.653c.347-.071.715-.111.973-.047.229.056.549.195 1.006.399.177.078 1.132.538 1.154.634.037.16-2.252 2.489-2.382 2.837-.13.348.447 1.616.447 1.616l-.277.148c-.113.06-1.133.6-1.823.684-.164.02-.371.046-.604.053.228.675.478 1.343.75 2.002a5.832 5.832 0 011.606-.93c.266-.1.592-.22.669-.276.283-.228.433-1.092.433-1.092l.61.715c.023.028.561.667 1.176 1.99.126.273.244.616.351 1.016.269 1.025.45 2.447.375 2.906-.042.254.131.444.217.505.145.1 2.19 1.076 2.19 1.076s-.185 1.3-1.421 2.313c-.295.247-.61.437-.928.588.395.485.679.84 1.101 1.309.006-.626.131-1.12.373-1.478.223-.335.534-.621.851-.794.476-.648 1.023-.951 1.208-1.008.223-.058.677-.107 1.025.156.311.273.37.63.378.823l-.06.007c-.009-.153-.204-.58-.293-.64-.085-.061-.388-.422-1.078-.17-.405.15-.685.424-.888.708.025-.008.05-.018.076-.024.586-.08.929-.026 1.295.344.194.186.559 1.034.096 1.85-.399.618-1.184.713-1.633.429-.873-.561-.604-1.554-.448-1.94a1.681 1.681 0 00-.315.343c-.356.57-.367 1.208-.288 1.72.265.288.659.694.934.976.143.026.288.052.44.075.652.097 1.42-.071 1.995.09 1.222.345 1.616 2.013 1.805 3.034.273-.163.64-.354 1.123-.56 1.549-.661 2.86-.516 2.949-.511 0 0 .229 2.755.343 3.23.101.428.224.948.226 1.563.313.184.628.366.947.545-.198-.477-.441-1.104-.468-1.526-.038-.525.006-1.243.345-1.642.327-.388.708-.568 1.157-.703.062-.126.139-.252.238-.376.477-.602 1.177-.611 1.177-.611-.381.162-.964.38-1.254.966.788-.045 1.175.207 1.359.386.392.376.536.93.441 1.408-.121.736-.775.82-1.009.82-.233-.007-.693-.103-.984-.737-.102-.28-.307-.92-.072-1.61-.364.133-.66.36-.781.513-.511.639-.213 2.28.164 3.093.287-.271.616-.501.947-.596.654-.186 2.166.158 2.428.213-.049-.392-.173-1 .091-1.647.336-.821.146-1.12.146-1.12s2.847.134 3.816.586c0 0 1.506.6 2.061 1.397.179-.368.479-.93 1.047-1.185.465-.208.429-.12.528-.18l.709-.082c.045.12.698 1.022.887 1.267.238.31.39.507.484.667.242.408.46 1.138.408 1.746-.045.528-.156 1.329-.581 2.108a44.08 44.08 0 00-.718 1.36l-.003.013c.115.15.256.35.394.584.957.226 2.48.598 2.482.599.34.34.726.653 1.065.993-1.181-.17-1.949-.374-3.107-.627.035.112.067.227.092.344.147.71-.132.993-.576 1.598-.339.43-.802.547-.683 1.15.167.843.084.853.084.853s-1.576.092-2.205 0c-.127-.014-1.089-.127-1.463-1.318-.217.292-.534.68-1.007.993-.945.556-1.557.107-2.557.155-.999.048-2.341.17-2.341.17s1.012-1.584 1.16-2.707c.087-.668.365-1.476.365-1.476a4 4 0 01-1.918-.005 4.493 4.493 0 01-.421-.137 4.301 4.301 0 00-1.034.099c-.432.106-.716.275-1.166.71a1.475 1.475 0 00-.239.412 2.22 2.22 0 01.616-.36c.298-.116.668-.15.984-.07.318.08.57.24.765.414.476.398.531 1.359.079 1.919-.719.718-1.818.474-2.094.318-.511-.27-.704-.603-.834-1.19a3.734 3.734 0 00-.24.42 1.182 1.182 0 00-.151.592c.009.228.061.469.209.683.071.109.175.198.272.272.1.077.22.145.36.194a.975.975 0 00.477.036l.035.165c-.212.045-.689.03-1.012-.24a2.717 2.717 0 01-.328-.307 1.47 1.47 0 01-.269-.775 2.03 2.03 0 01.121-.707c.133-.3.304-.587.519-.858.055-.4.224-.835.508-1.167.386-.455.73-.627 1.237-.771.174-.05.343-.081.512-.107a4.048 4.048 0 01-1.241-1.107c-.575-.786-1.616-1.385-1.616-1.385.511-.151.809-1.165 1.077-1.784.041-.094.102-.205.178-.325-.232-.132-.46-.27-.689-.405a5 5 0 01-.21.737c-.275.757-.683 1.352-1.209 1.764a2.936 2.936 0 01-.917.488c.646.598 1.427 2.015 1.311 2.839-.102.71-.501 1.264-.832 1.523h-.001c-.118.095-.737.516-.929.667-.405.319-.91 1.287-1.044 1.495 0 0-.834-.842-2.198-1.244-.542-.16-1.089-.543-1.212-.774-.099.307-.423 1.003-1.307 1.457-1.078.637-5.21.635-5.21.635s.428-1.243.22-3.262c-.166-1.174.111-2.045.249-2.28-.254.284-1.607 1.175-3.201.252-1.623-.938-4.226-4.413-4.226-4.413s1.975-.72 2.519-1.012c1.374-.738 2.686-2.144 3.42-2.553.737-.408 1.39-.387 1.384-.395-.193-.343-1.118-1.408-.987-2.468.101-.815 1.869-2.755 1.869-2.755s.795.639 2.378 1.13a40.07 40.07 0 01-1.712-2.004c-1.01.309-1.891.286-1.986.383-.145.148-.244 2.617-2.073 3.929-.93.684-3.091 1.18-3.091 1.18s.027-1.007-.202-1.604c-.281-.686-1.304-.651-1.304-.651-.348-.094-4.87.73-6.122-1.26 0 0 2.531-3.595 4.128-3.764 0 0-1.566-.855-2.056-1.782-.584-1.078-.456-2.192-.374-3.7.08-1.506-.462-3.063-.462-3.063s2.176.105 2.789.084c.358-.012.74-.025 1.133-.03 2.307-.07 3.506.366 4.127.776a32.528 32.528 0 01-.588-1.645 2.827 2.827 0 01-1.229-.556 5.957 5.957 0 01-.903-.878c-.438.37-1.797 1.36-3.859 1.38-1.457.018-2.759-.805-2.815-.84l-.427-.276.322-.332c.77-.79 1.819-1.793 1.821-1.866.004-.11-1.304-1.571-1.398-3.681-.015-1.142.435-2.255.435-2.255s.43.422 1.022.464c.093.013.437.003.688-.004.78-.021 1.599-.03 2.102.086.015-.047.451-1.156 2.46-1.625l.139-.038c.002-.405.011-.81.026-1.212-.037.024-.071.05-.111.074-.752.455-1.39.595-1.979.68 0 0-.461.039-.873.314-.459.288-1.118 1.002-1.118 1.002s-.57-.416-.572-1.293c-.001-.742.325-1.506.393-1.635-1.106.11-1.734-.12-2.025-.578-.185-.29-.324-.647-.458-.995zm26.929 42.346c-.099.086-.19.177-.276.273-.047.452.067.955.581 1.299.331.21 1.026.203 1.419-.013.391-.207.79-.927.207-1.618-.158-.153-.622-.563-1.3-.315a1.92 1.92 0 00-.631.374zm1.501-10.925c-.113.35-.132.809.017 1.424.263.7.755.723.923.719 1.121-.067.696-1.512.433-1.733-.416-.475-.929-.524-1.373-.41zm.578 3.609c-.875.074-1.626 1.22-1.79 1.629-.104.258-.478.938-.586 1.304.868.377 1.603 1.789 2.876 2.262.733.272 2.51-.12 2.702.082.235.27-.165 2.13-.271 2.578-.106.446-.436.972-.658 1.33.174-.056 1.182-.096 1.548-.118.553-.036 1.477.339 2.054-.103.436-.335.708-.53.982-1.096.241-.45.504.424.526.495.353 1.08 1.072 1.186 1.496 1.239.557.104.938-.082 1.16.005.047-.142-.387-.773.612-1.753.589-.607.708-.987.636-1.326-.168-.796-1.21-2.121-1.21-2.121.004-.007 1.775-1.226 1.511-3.82-.119-1.18-1.271-2.365-1.401-2.606-.005-.011-1.286.13-1.792 1.429-.191.643-.517.207-.687-.12-.565-.764-1.691-1.161-1.774-1.202-1.247-.54-2.967-.458-3.147-.591-.03.31-.017.254-.181.683-.217.577-.112 1.29-.065 1.598.143.608-.351.502-.397.495-.014-.004-.977-.358-2.144-.273zm-11.559-10.53c-.095.202-.62 1.302.333 1.902.672.313 1.332-.143 1.447-.731.151-.631-.086-1.1-.339-1.317-.448-.362-.956-.25-1.357-.022l-.084.169zm-.007 3.62c-1.625-.118-3.509-1.275-3.511-1.275-.452.362-1.551 1.497-1.301 2.777.116.599 1.232 2.178 1.232 2.178s-1.887-.038-3.51 1.667c-1.27 1.334-3.4 2.216-3.733 2.173.805.49 2.102 3.727 4.372 3.932.916.083 1.931-.644 2.256-.918.507-.426.903-.15.594.343-1.115 1.539-.568 5.635-.568 5.635s3.261-.301 4.084-.6c1.337-.48 1.295-2.03 1.296-2.043 0 0 .704.818 1.705 1.23.876.362 1.462.535 1.89.872.199-.41.423-.8.888-1.171.221-.174.988-.72.988-.72.286-.23.453-.442.513-.91.068-.547-.892-2.168-1.552-3.078l-.393-.702s2.104.249 2.865-2.131c.404-1.261.21-2.158.014-2.95-.152-.61-.353-2.042-.215-2.251-.681.063-1.157.08-1.824.377-1.092.488-2.269 1.086-2.269 1.086-.038-.884-.459-2.92-1.361-3.27-.528-.205-1.783-.203-2.46-.251zm-6.921-26.191a1.412 1.412 0 00-.287.043c-.657.157-.774.478-.783.72 0 .298.181.667.566.796.384.13 1.182.082 1.14-.746-.029-.237-.256-.585-.636-.813zm.019-8.158c-.029.01-.296.065-.534.305a.715.715 0 00-.201.377c-.025.139-.023.517.216.72.186.16.535.137.744-.017.215-.151.369-.466.344-.698a.83.83 0 00-.569-.687zm-1.25 23.447c-.12-.534-.605-.904-.834-1.106-.866-.758-2.826-.72-3.954-.696-.419.01-2.356.09-2.812.08.381.925.266 2.229.266 2.229-.13 1.609-.199 3.256.768 4.042l2.609 2.113s-1.694-.01-3.151 1.455c-.236.225-1.083 1.33-1.65 1.832 1.449 1.433 5.445.444 6.276.95 1.14.674.844 1.77.93 2.03.584-.183 1.553-.482 1.946-.75.757-.515 1.436-1.047 1.698-2.05.16-.605.196-1.08.223-1.425.015-.196.029-.368.066-.518.023-.09-.045-.157-.102-.104-.334.309-.886.14-1.158.63-.325.596-.468.689-.549.756l-1.245 1.384c.001-.003-.238-.007-.137-.106.222-.22.646-.714 1.056-1.188.083-.098-1.289.414-1.289.414s-.058-.127.082-.148c.275-.042.93-.423.969-.474.539-.076.819-.556.956-.845.262-.536 1.256-.58 1.285-.803.03-.222-1.573-.795-2.568-.674-.618.072-1.173.36-1.644.75-.093.078-.169.428-.353.8-.173.349-.473.833-.599.82-.128-.011-.045-.095-.045-.095l.509-.698s.389-.622.202-.745c-.131-.086-1.007.04-1.429.12-1.381.436-2.609 1.184-2.836 1.232-.108.023-.224-.071-.011-.113.126-.025.63-.334 1.192-.591.639-.292 1.351-.542 1.646-.655.411-.157 1.071-.011 1.442-.205.377-.311.783-.584 1.343-.74.04-.011-.274-.132-.593-.332-.153-.095-.649-.17-.813-.207-.148-.034.011-.125.03-.128.052-.01.558.024.877.184.398.199.86.416 1.049.377.584-.122 1.551.183 2.113.342-.095-.217-.35-.657-.409-.88a7.308 7.308 0 00-.556-1.474c-.508-.98-1.154-1.776-1.957-2.324-.26-.141-.985.059-.995.017-.024-.106.697-.204.607-.268-.779-.56-1.806-.793-2.188-.927-.185-.066.027-.155.027-.155.904.137 2.137.738 3.149 1.579.048.04-.037-1.268.025-1.254.157.037.099 1.379.163 1.438.364.338.718.724 1.046 1.159.074.099.492-1.295.492-1.295s.135-.131.122-.026c-.067.53-.453 1.532-.396 1.625.365.607.702 1.567.806 1.96.287.862.624.897.778.894.152-.003.155-.1.356-.792.353-1.215.482-3.731.486-3.757l.087-2.127s.083-.182.087.073c.007.475-.067 1.64-.077 2.43-.001.09.812-.762.811-.672-.002.083-.82.892-.821.977-.021.929-.102 1.785-.208 2.303-.044.216-.192 1.224-.214 1.342-.04.214.117.27.24.247.51-.1 1.227-.332 1.873-.625.041-.02.273-.541.398-.761.065-.115.06.004.071-.01.046-.06-.295.676-.226.642.374-.182.859-.555 1.157-.738.077-.048.137-.015.092.038l-.776.539c-.595.41-1.608.819-2.371 1.09-.105.039.002.19.035.206.345.05 1.887.203 3.265-.938.495-.41.831-1.06 1.01-1.466-.598-.24-1.627-.66-1.849-.811-.768-.416-.66-1.261-.622-1.491.036-.23-.085-1.583-.419-2.806-.104-.38-.741-1.741-1.295-2.482-.044.042-.192.54-.826.738-1.953.566-2.212 1.42-2.259 1.677-.028.418-.341.388-.48-.04zm-1.08-13.584c-3.746 1.08-3.709 2.529-3.709 2.529s-.775-.52-2.677-.374a8.922 8.922 0 01-1.112-.016 4.93 4.93 0 00-.096 2.29c.143.737.963 2.187 1.251 2.754.013.539-1.027 1.373-1.58 2.008.195.25.994.9 2.367.856 1.184-.03 3.433-1.357 3.313-1.567-.12-.208-1.413.44-2.129.604-.853.194-2.182.215-2.182.215s-.168-.06-.046-.074c.412-.044 1.236-.045 1.696-.133.085-.016-.68-.414-.602-.395.01.002.036-.048.077-.032.208.08.704.386.768.373a7.957 7.957 0 002.165-.833c-.185-.06-.98-.777-1.128-.905-.044-.04-1.025.169-1.251.116-.06-.014-.136-.065-.019-.108.061-.023 1.163-.137 1.115-.19-.982-1.082-2.491-3.19-2.491-3.19s-.012-.042.01-.081c.023-.04.071.004.071.004l1.121 1.479c.274.239.272-.935.279-1.01.02-.221.231-.366.136.066-.011.048-.167 1.209-.131 1.256.427.552 1.26 1.578 1.901 2.062.507.378.702.35.708.35 0 0 .484-.106.179-1.184-.112-.304-.381-1.032-.397-1.57-.004-.082-.669-.454-.964-.767-.058-.061.098-.084.098-.084s.855.72.862.63c.126-1.384 1.124-3.413 1.778-3.896.06-.044.074.047.074.047s-.906.947-1.261 2.186c-.029.066.445-.085.474-.017.01.026-.504.19-.531.262-.188.536-.414.984-.321 1.79.056.488.241 1.066.346 1.365.115.343.072.943.157 1.004.085.06.917-1.186 1.351-1.353.138-.051.324-.366.478-.635.073-.135.242-.393.341-.474.06-.047.145-.025.086.049.112-.09-.241.206-.333.42-.1.24-.213.495-.18.486.403-.126.711-.16 1.055-.122.314.035.892.046 1.167-.017.36-.082 1.391-.561 1.524-.618.08-.035.221.022-.051.176-.304.173-1.053.455-1.498.589-.295.086-.934.077-.934.077l.866.517s.052.013.032.06c-.021.049-.069.045-.069.045s-1.112-.646-1.28-.664c-.44-.05-.639.052-1.051.257-.839.432-1.396 1.342-1.405 1.498-.008.157.251.378 1.099.8.235.124.531.224.989.298.337.03.729-.327.784-.365.056-.038.072.037.043.065-.11.104-.466.364-.386.378.46.094 1.049.055 1.287.083.115.014.08.09-.032.084-.11-.005-1.641.088-2.65-.343-.496-.217-1.185-.766-1.235-.66-.05.108.189.408.471.687.187.228 1.814 1.677 4.125.263.127-.491-.356-1.692-.356-1.692.038-.095 1.426-.8 2.422-2.323-.12-.052-1.279-.553-1.443-.59-.687-.124-1.083.16-1.514.072-.434-.078-.077-1.427-.077-1.427.25-1.2-1.286-2.467-1.286-2.467-.484-.514-.545-.698-.659-.974zm-.223-11.312c.743-.085 1.492-.6 1.492-.6s.993 1.17 1.497 1.173c.503.003 1.255-.385 1.449-.413-.1-.407.051-1.707.051-1.707s.641-.05 1.114-.293c.25-.152.625-.414.922-.636-.371-.102-.852-.64-1.194-.907-.64-.343-1.364-.167-1.364-.167s.87-1.015.94-1.164c.199-.423.057-.747-.26-1.416-.136-.284-.403-.598-.651-.852a1.626 1.626 0 01-.1.105c-.97.773-2.645 1.258-2.645 1.258-.051.02-.065.026-.09.185-.058.35-.272.548-.634.588 0 0-.158-.241-.276-.398-.118-.158-.428-.293-.731-.263-.09-.007-.803.18-.95.208.046.3-.096.694-.264 1.167a6.038 6.038 0 00-.246.8c-.054.285.761.879 1.245 1.067 0 0-1.494.85-1.492 1.452-.027.104.698.232.97.4.311.192.665.44 1.217.413zm-5.939 4.946c-.691-.071-1.803.498-2.362 1.029.416.47.558 1.886 1.128 2.466.624.533 2.35.42 2.35.42.001-.001-.843 1.615-.394 2.533 1.112-1.054 2.987-1.044 3.634-1.453 1.174-.747 1.179-1.65 1.179-1.65s.983.459 1.941-.04c.554-.266 1.089-1.058 1.249-1.2-.133-.142-.12-.377-.28-.624-.197-.305-.604-.714-.604-.714.016-.005.762-.537 1.177-2.024-.095.01-1.42-.095-1.767-.087-.904-.026-1.189.189-1.189.189s.142-.664-.169-1.333c-.583-1.156-3.02-1.702-3.042-1.61.037.883-.712 1.359-1.906 2.775 0 0-.206.246-.095.416.335.514.287.772-.03.914-.223.1-.473.029-.82-.007z"/><path fill="#fff" d="M76.596 45.655c.275.025.746.395 1.522.376.33-.038.744-.186.744-.186l-.65.834s-.045.043-.016.065c.03.021.066-.014.066-.014s.738-.95.87-1.008c.342-.152.586-.113.907-.003.849.32 1.797.885 1.767 1.075-.03.191-.423-.025-1.157.817-.165.19-.443.402-.69.587-.056.045-.651-.088-.651-.088s-.15.04-.062.06c.369.085.565.15.456.21-.346.238-1.007.557-1.211.673-.12.07.03.046.026.047l1.053-.51c.066-.03.723-.418 1.093-.8.39-.404 1.095-.635 1.574-.614.352.016 1.363-.352 1.979-.579.386-.142.622-.255.75-.367.03-.028-.015-.037-.057-.015-.292.157-.718.332-1.021.365-.033.003.259-.288.357-.42.049-.064-.045-.034-.06-.024-.027.026-.431.467-.476.471-.572.041-1.371.421-1.375.298-.005-.123.209-.35.378-.61.077-.12 1.254-1.875 1.48-2.089.226-.213.769-.547.769-.547s.054-.038.037-.07c-.017-.03-.06-.008-.06-.008s-.716.47-.803.46c-.085-.01-.058-.432-.111-.357-.028.036-.04.524-.075.575a71.27 71.27 0 00-1.333 1.96c-.303.467-.412.497-.415.498 0 0-.085.022-.148-.063-.071-.386.1-1.088.089-1.425a9.364 9.364 0 00-.134-1.344c-.017-.074.249-.787.347-1.127.046-.16-.014-.128-.023-.097-.066.252-.382 1.1-.412 1.016-.424-1.186-1.122-2.065-1.674-2.307-.014-.007-.074-.022-.083.001-.01.022.054.06.038.054-.001.001.558.333.983.908.033.048-1.07-.179-1.073-.11-.004.068.318.074.36.081.093.02.687.087.81.23.248.411.473.978.615 1.71.088.45.07.753.078 1.057.006.177-.13.971-.14 1.155-.248-.27-1.342-.773-1.667-.838-.103-.02-.243-.333-.372-.563a.949.949 0 00-.35-.327c-.008-.002-.081.023-.041.061.066.061.208.111.327.301.092.211.18.417.157.414a1.781 1.781 0 00-.9.15c-.251.107-.528.3-.9.301-.312.005-1.245-.33-1.371-.36-.351-.083-.607.031-.607.031l-.022.053.048.021s.185-.07.46-.045zm14.576 32.349c.095.326.094 1.037.014 1.41-.087.406.848.915.985 1.422.012.04-.414-.158-.811-.34-.348-.16-.59-.575-.654-.488-.064.086.302.408.64.6.438.249.957.556 1.019.729.205.559 1.224 1.364 1.84 1.875-.364-.026-1.125-.135-1.451-.122-.554.019-1.115-.006-1.952-.107-1.335-.158-2.49-.51-3.266-.864-.105-.048-.596-1.095-.638-1.09-.103.015.358 1.072.27 1.025-1.24-.504-2.705.472-2.872.583-.27.18-.562.548-.46.558.572.05.973-2.331 5.826-.028.16.04-.93.704-1.324.84-.036.013.036.103.174.047.458-.181 1.632-.753 1.787-.725.9.166 1.868.087 2.433.07.628-.021 2.185.089 2.322.255.138.167.049.772-.905 1.013-1.135.289-2.321 1.103-2.946 2.102-.057.093-.716.019-.768.11-.05.089.705.07.645.144-.602.75-1.034 2.012-1.131 2.503-.032.165.142-.003.142-.003s.954-3.568 3.507-4.29c.288-.081.576-.24.79-.354.474-.244.778-.461.937-.658.385-.278.695 1.837.853 3.025.014.094-.771.95-.808 1.004-.015.02.02.158.095.109.228-.142.75-.657.756-.577.07.747-.103 1.8-.125 2.005-.022.204.055.316.109.015.055-.302.207-1.285.207-1.285.175-1.524-.262-3.873-.443-4.558-.237-.897.72-1.043 1.392-1.656.74-.808.937-2.808.79-3.107-.146-.298-.608-.793-.608-.793 0 .004-.08-.002-.01.116.213.359.735 1.242.35 1.89-.053.095-1.117-.315-1.535-.446-.133-.041-.043.076-.043.076s1.42.714 1.356.805c.062.525-.45 1.118-.772 1.372-1.141.896-1.242 1.113-1.568 1.149-.003-.002-1.877-.473-2.68-2.193-.255-.552-1.344-1.306-1.232-1.826.02-.094.224-.458.447-.718.253-.297.676-.63.676-.63s.026-.028 0-.062c-.026-.033-.06-.01-.06-.01s-.398.298-.658.58a3.907 3.907 0 00-.442.589s.103-.745-.04-1.091c-.402-.99-1.37-2.061-1.374-2.163 0 0-.176-.286-.218-.217-.04.07.034.114.293.53.092.152 1.014 1.427 1.139 1.85zm-6.179-39.368c.247.268.765.55.814.564l.771.248c-.003 0 .14-.012-.002-.075-.14-.065-.625-.154-.883-.359-.055-.03.44-.25.44-.25s-.042-.102-.087-.049c-.15.172-.516.205-.543.185-.176-.118-.373-.243-.479-.382-.377-.493-.407-.753-.314-.854.123-.168.676-.73 1.173-.919.294-.11.5-.112.744-.019.095.035.498.62.498.62s.04.04.062.005c.024-.033-.017-.07-.017-.07l-.387-.539s.334.095.531.061c.248-.043.17-.056.17-.056s-.015-.028-.147-.017c-.177.017-.4-.047-.576-.113-.193-.072-.427-.146-.695-.096-.02.005.11-.18.23-.353.104-.153.174-.216.156-.21-.007.001.016-.048-.026-.032-.166.058-.125.105-.207.206-.156.19-.245.412-.418.462-.295.08-.763.506-1.055.76.035-.155.132-.485.144-.628.022-.245.02-.542.122-.919.164-.606.515-1.162.752-1.519.033-.048.246-.04.248-.06 0-.05-.156-.04-.124-.082.387-.493.74-.702.738-.702-.027-.066-.07-.05-.185.033-.418.303-1.044 1.021-1.409 1.854-.03.072-.31-.449-.362-.638-.008-.032-.11-.113-.057.07.075.251.411.643.297.857-.138.404-.153.84-.175 1.09-.024.275-.08.498-.24.835a.69.69 0 01-.158.12c-.004 0-.155-.002-.333-.372-.228-.472-.436-1.124-.822-1.71-.023-.043.141-.42.124-.45-.037-.064-.218.356-.218.354 0 0-.34-.263-.555-.362a5.796 5.796 0 00-.593-.209s-.14-.074-.156-.035c-.014.04.081.08.081.08s.298.065.626.226c.196.096.39.253.487.355.263.275.528.807.786 1.526.046.122.09.232.136.33.101.206.192.341.282.413-.33.145-1.026.26-1.623.302-.048.002-.367-.352-.39-.372-.017-.01-.118-.05-.069.025.071.108.302.345.271.347-.376.014-.54-.074-.825-.109l-.026.092.481.081c.748.104 1.93-.029 2.278-.09.457-.08.45.26.714.55zm18.317 45.803c.046-.005 1.138-.31 2.322-.282.093.002-.497.461-.415.509.018.01.478-.305.575-.382.097-.076.33-.061.385-.06.606.014 1.45-.007 2.252.243.746.232 1.616.646 1.986.843.214.112.97.443 1.21.537-.622.067-1.64.351-1.95.705-.097.111-.646.13-1.05.183-.123.016-.445-.026-.557.02-.171.07-.108.234-.122.252-.02.021.342-.165.656-.18.348-.017.718-.036.698-.011a2.108 2.108 0 00-.41 1.102c-.022.33-.006.762-.16 1.028-.171.301-1.145.844-1.504 1.076.02.062.036.126.048.191.443-.248 1.198-.683 1.586-1.241.192-.276.279-.878.279-.878l.522 1.03.169.041s-.617-1.148-.604-1.323c.029-.454.17-.758.533-1.086 1.357-.978 2.34-.671 2.342-.67.189.121.187.152.647 1.099.13.267.286.799.352 1.149.017.082-.584.565-.584.565s.599-.305.612-.198c.037.309-.107.873-.096 1.117.017.349.2.067.2.074l.066-1.099c.009-.083-.022-.966-.251-1.539-.245-.611-.781-.986-.417-1.536.27-.406 1.06-1.797 1.299-2.802 0 0 .226-.596.264-.756.036-.158-.067-.093-.067-.093a7.617 7.617 0 01-.462 1.242c-.03.063-.38-.64-.367-.571.002.011-.1-.116-.051.065.082.214.345.693.323.738-.36.708-.968 2.003-1.124 1.964-.156-.041-.377-.463-.603-.78a15.38 15.38 0 00-.533-.686s.286-1.033.157-1.308c-.08-.172-.067.362-.11.563-.03.15-.021.678-.254.515-.232-.164-1.891-1.799-1.96-1.861 0 0-.914-.781-1.347-1.127-.008.005-.032-.04-.07-.025-.036.015.022.051.009.057a148.87 148.87 0 011.325 1.138c.013.01 1.623 1.494 1.606 1.544-.032.097-1.253-.349-1.437-.392-.271-.065.06.092.06.092s1.27.354 1.545.562c.278.21.622.679.758.871.406.571.407.564.406.571 0 0 .3.353.044.461-.237.072-1.135-.29-1.544-.51-.375-.199-1.193-.625-1.887-.819-.123-.035-.654-.971-.937-1.276-.085-.093-.202-.03-.178-.006.253.255.852 1.152.717 1.124-1.878-.363-4.052-.211-4.903.088-.03.011-.143.155 0 .138zm23.004 2.575c-1.101-.447-2.683-1.911-3.194-2.948-.108-.215-.225-.226-.327-.017-.51 1.056-2.147 2.564-3.254 2.986-.192.073-.204.15-.018.22 1.137.424 2.847 2.012 3.313 3.074.078.177.165.173.244-.006.467-1.058 2.157-2.63 3.292-3.06.19-.074.156-.163-.056-.25zm1.164 79.793c-1.515-.616-3.693-2.632-4.398-4.061-.148-.297-.31-.311-.45-.024-.703 1.455-2.958 3.533-4.484 4.114-.265.1-.28.208-.025.303 1.567.583 3.923 2.772 4.565 4.234.105.245.226.239.335-.01.644-1.454 2.971-3.62 4.534-4.214.263-.101.217-.224-.077-.342zm-10.661-.217l-27.54.25s-.19.063-.19.193.19.195.19.195l27.54.248s-.229-.265-.229-.477c0-.212.23-.409.23-.409zm39.573.249l-27.54-.25s.229.199.229.41c0 .212-.23.478-.23.478l27.54-.248s.192-.066.192-.196-.191-.194-.191-.194z"/></svg>