<svg xmlns="http://www.w3.org/2000/svg" width="92" height="65" viewBox="0 0 92 65"><g><g><path fill="#fff" d="M39.3 25.856c-2.757.007-3.563-1.845-3.84-3.077-.096-.436-.066-.831-.007-1.226.192-.864.753-1.53 1.523-1.53.206 0 1.21.033 1.21.959 0 .925-.687 1.104-.927 1.113-.303.01-.583-.107-.666-.107-.438-.09-.878.145-.69.975.366 1.614 1.557 2.614 3.457 2.622 5.67.023 7.253-7.694 8.113-10.661.937-3.235 3.23-8.36 6.193-11.516-1.153-.861-3.012-1.933-5.897-1.933-.36 0-.711.019-1.053.052.607.746.827 1.059 1.134 2.38.488 2.636-.073 4.912-.596 6.608-1.01 3.233-3.307 5.674-6.037 5.674-2.347 0-3.703-1.871-4.172-3.838-.72-3.027.665-5.861 1.978-7.498 1.076-1.343 3.04-3.224 6.33-3.84-.248-.145-.4-.216-.964-.317-2.753-.493-4.685 1.066-6.461 3.465-1.134 1.67-1.709 3.031-2.107 5.022.29-2.427.607-3.355 1.787-5.396 1.774-2.651 4.087-3.93 6.667-3.563.73.094 1.315.338 1.783.677A12.3 12.3 0 0 1 47.642.8c2.822 0 4.786.854 6.505 2.106.81-.705 1.357-.99 2.86-1.048l-.077.019c-.592.144-1.21.424-2.105 1.604 1.297.964 3.598 3.987 2.494 6.658-.862 2.082-2.774 2.4-3.327 2.566.782.383 2.452 1.2 3.263 3.518.784 2.899-.203 5.564-1.003 6.818-1.413 2.216-3.44 2.798-4.79 2.893-1.388.097-2.44-.635-2.914-2.347-.361-1.305.14-4.138 1.736-5.26 1.184-.83 2.046-.4 2.873-.172.096.026.087.096.087.096-.59-.141-1.753-.675-2.845.209-1.407 1.27-1.905 3.308-1.483 4.957.258 1.007 1.174 1.605 1.922 1.633 1.682.065 3.306-1.716 3.865-2.944.29-.67.542-1.378.709-2.161.203-.975.415-2.717.027-4.106-.098-.346-.424-2.11-2.035-2.743l-1.197.113c-1.062.065-1.44-.24-1.47-.593-.078-.927 1.117-.756 1.273-.73.386.069.882.215 1.453.403 1.282-.415 1.967-1.206 2.47-2.303.643-1.478.615-3.94-1.635-5.965-1.585 1.849-2.644 3.9-3.458 6.382-.396 1.197-1.482 5.172-1.482 5.172-1.414 4.917-3.325 10.28-10.057 10.28zm-3.53-16.23l-.116.495c.053-.33.108-.64.167-.938l-.05.444zm11.66-5.24c-.09-1.043-.48-2.126-1.138-2.81-1.8.246-4.892.846-7.081 4.196-3.768 5.768-.64 8.914.134 9.334 3.216 1.74 6.064-1.81 7.159-4.735.597-1.667 1.138-3.498.926-5.985z"/></g><g><path fill="#fff" d="M47.018 15.486s1.696-6.964 6.26-12.092l-.066-.047S49.326 6.68 46.64 14.644c-1.448 4.293-2.304 9.602-6.378 10.381l-1.167.257c5.04-.164 6.315-4.794 7.923-9.796z"/></g><g><path fill="#fff" d="M28.56 38.935c0-.456.304-.8.69-.8.467 0 .688.45.688.816 0 .46-.307.802-.69.802-.382 0-.688-.346-.688-.818zm1.148.051c0-.472-.215-.776-.469-.776-.209 0-.45.197-.45.693 0 .467.204.775.472.775.257 0 .447-.276.447-.692z"/></g><g><path fill="#fff" d="M61.89 50.231c-.195.082-.4.071-.584.071-.123 0-.133.072-.133.123v.061c0 .052.01.123.133.123.133 0 .245-.02.543-.04.368-.03.593-.052.798-.052.205 0 .43.021.798.051.297.02.41.041.542.041.123 0 .133-.07.133-.123v-.06c0-.052-.01-.124-.133-.124-.184 0-.388.011-.583-.07-.277-.124-.318-.329-.318-.636v-2.62h3.848v2.62c0 .307-.041.512-.317.635-.195.082-.4.071-.584.071-.122 0-.133.072-.133.123v.061c0 .052.01.123.133.123.132 0 .246-.02.543-.04.368-.03.593-.052.797-.052.205 0 .43.021.799.051.296.02.409.041.542.041.122 0 .133-.07.133-.123v-.06c0-.052-.011-.124-.133-.124-.184 0-.388.011-.583-.07-.276-.124-.317-.329-.317-.636V44.46c0-.307.04-.512.317-.634.195-.083.399-.073.583-.073.122 0 .133-.07.133-.123v-.06c0-.052-.011-.124-.133-.124-.133 0-.246.02-.542.042-.37.03-.594.051-.8.051-.203 0-.428-.02-.796-.05-.297-.023-.411-.043-.543-.043-.122 0-.133.072-.133.123v.052c0 .091 0 .122.133.132.205.011.378-.02.584.073.276.122.317.327.317.634v2.087h-3.848V44.46c0-.307.04-.512.318-.634.195-.083.399-.073.583-.073.123 0 .133-.07.133-.123v-.06c0-.052-.01-.124-.133-.124-.132 0-.245.02-.542.042-.368.03-.593.051-.798.051-.205 0-.43-.02-.798-.05-.298-.023-.41-.043-.543-.043-.123 0-.133.072-.133.123v.061c0 .052.01.123.133.123.185 0 .389-.01.584.073.275.122.316.327.316.634v5.137c0 .307-.041.512-.316.635z"/></g><g><path fill="#fff" d="M70.318 50.231c-.194.082-.399.071-.583.071-.123 0-.133.072-.133.123v.051c0 .082 0 .123.133.133.38.011.91-.092 1.238-.092.245 0 .481.03.726.051.38.041.748.052 1.126.041.644-.01 1.494-.07 2.098-.604.563-.502.645-1.146.645-1.658 0-.5-.103-1.022-.532-1.473-.43-.45-1.085-.675-1.72-.675-.439 0-1.023.112-1.442.357l-.032.123.021.062.093.072a2.843 2.843 0 0 1 1.022-.195c.4 0 .87.092 1.23.511.245.288.398.738.398 1.3 0 .491-.153.952-.43 1.25-.42.47-.993.5-1.484.5-.409 0-.676-.02-.859-.133-.307-.184-.318-.49-.318-.696v-4.89c0-.308.041-.513.318-.635.194-.083.398-.073.583-.073.123 0 .132-.07.132-.123v-.06c0-.052-.009-.124-.132-.124-.133 0-.245.02-.542.042-.369.03-.594.051-.798.051-.205 0-.43-.02-.799-.05-.297-.023-.409-.043-.542-.043-.123 0-.133.072-.133.123v.061c0 .052.01.123.133.123.184 0 .39-.01.583.073.276.122.317.327.317.634v5.137c0 .307-.04.512-.317.635z"/></g><g><path fill="#fff" d="M17.962 39.739c-.022 0-.053-.002-.053-.037 0-.035.03-.041.051-.048l.024-.006c.048-.013.088-.044.132-.19l.346-1.126c.02-.065.028-.098.042-.136.004-.01.011-.033.044-.033.037 0 .046.027.05.038l.013.039.018.057.386 1.213c.044.136.063.144.127.15.035.005.056.01.056.044 0 .014-.006.035-.044.035-.074 0-.146-.012-.219-.012-.079 0-.158.012-.239.012-.014 0-.056-.002-.056-.041 0-.031.017-.044.065-.042.014 0 .024.002.037 0 .04-.006.051-.033.051-.06 0-.033-.007-.05-.013-.075l-.084-.281c-.014-.052-.037-.054-.054-.054h-.312c-.048 0-.048.02-.055.048l-.065.243a.264.264 0 0 0-.01.08c0 .099.09.1.128.104.035.002.051.006.051.04 0 .019-.007.038-.049.038-.059 0-.118-.012-.177-.012-.063 0-.127.012-.19.012zm.368-.692c-.002.009-.009.02-.009.035 0 .016.012.018.023.018h.267c.018 0 .042-.002.027-.053l-.145-.47c-.003-.01-.005-.023-.012-.023-.008 0-.008.013-.01.02z"/></g><g><path fill="#fff" d="M25.143 39.58c-.018.078-.081.083-.127.087-.024.002-.04.005-.04.037 0 .035.022.04.044.04.063 0 .125-.014.188-.014.062 0 .123.014.183.014.025 0 .044-.007.044-.04 0-.035-.021-.035-.04-.037-.055-.002-.123 0-.136-.12-.013-.12-.01-.204-.01-.32l-.003-.796.793 1.26c.042.068.046.081.075.081.054 0 .049-.044.049-.072v-1.144c0-.046 0-.16.016-.2.014-.033.044-.066.079-.068l.047-.004c.028-.003.032-.02.032-.037 0-.018-.004-.038-.044-.038-.06 0-.12.014-.181.014-.057 0-.116-.014-.173-.014-.033 0-.044.007-.044.038 0 .03.018.034.03.037l.049.004c.04.005.067.035.08.068a.639.639 0 0 1 .016.198v.755l-.657-1.047c-.03-.044-.03-.053-.075-.053h-.315c-.023 0-.044.005-.044.038 0 .032.013.034.04.037.045.004.108.01.126.087a.709.709 0 0 1 .009.116l-.002.976a.677.677 0 0 1-.01.116z"/></g><g><path fill="#fff" d="M77.64 43.825c.195-.083.4-.072.585-.072.123 0 .133-.072.133-.123v-.062c0-.05-.01-.123-.133-.123-.134 0-.246.021-.543.042-.368.03-.594.051-.798.051-.205 0-.43-.02-.8-.05-.295-.022-.407-.043-.541-.043-.123 0-.132.072-.132.123v.062c0 .051.009.123.132.123.185 0 .389-.01.583.072.277.122.318.327.318.634v5.137c0 .307-.041.512-.318.635-.194.082-.398.072-.583.072-.123 0-.132.071-.132.123v.06c0 .052.009.123.132.123.134 0 .246-.02.542-.04.369-.03.594-.052.799-.052.204 0 .43.021.798.051.297.021.409.041.543.041.123 0 .133-.07.133-.123v-.06c0-.052-.01-.123-.133-.123-.185 0-.39.01-.584-.072-.276-.123-.316-.328-.316-.635V44.46c0-.307.04-.512.316-.634z"/></g><g><path fill="#fff" d="M21.546 39.58c-.018.078-.081.083-.127.087-.024.002-.04.005-.04.037 0 .035.022.04.045.04.063 0 .125-.014.188-.014.06 0 .123.014.182.014.026 0 .044-.007.044-.04 0-.035-.02-.035-.04-.037-.055-.002-.122 0-.136-.12-.012-.12-.01-.204-.01-.32l-.002-.796.792 1.26c.042.068.047.081.076.081.054 0 .048-.044.048-.072v-1.144c0-.046 0-.16.017-.2.014-.033.044-.066.079-.068l.046-.004c.028-.003.033-.02.033-.037 0-.018-.005-.038-.044-.038-.061 0-.121.014-.182.014-.057 0-.116-.014-.173-.014-.032 0-.044.007-.044.038 0 .03.018.034.03.037l.049.004c.042.005.068.035.08.068a.596.596 0 0 1 .017.198v.755l-.658-1.047c-.03-.044-.03-.053-.075-.053h-.315c-.023 0-.044.005-.044.038 0 .032.013.034.042.037.044.004.107.01.125.087a.84.84 0 0 1 .009.116l-.003.976a.677.677 0 0 1-.01.116z"/></g><g><path fill="#fff" d="M62.255 39.663c-.042.002-.042.026-.042.037 0 .037.028.04.055.04.09 0 .179-.014.27-.014.06 0 .124.013.186.013.02 0 .052-.002.052-.039 0-.03-.013-.037-.04-.037-.067-.002-.118.016-.122-.176l-.028-1.037c-.003-.118.004-.159.1-.168.036-.005.062.002.062-.04 0-.032-.015-.037-.042-.037-.048 0-.097.007-.144.007-.05 0-.101-.007-.158-.007-.04 0-.048.01-.055.03l-.351 1.042c-.004.013-.01.02-.011.02-.002 0-.003-.007-.008-.02l-.336-1.033c-.008-.028-.018-.039-.055-.039-.106 0-.004.007-.125.007-.162 0-.142-.007-.182-.007-.032 0-.05.002-.05.035 0 .013.003.03.033.04.019.004.04 0 .059 0 .088.002.083.098.079.182l-.05 1.006c-.01.183-.042.193-.132.195-.01 0-.04 0-.04.04 0 .013.003.036.04.036.06 0 .123-.013.182-.013s.119.013.178.013c.052 0 .06-.014.06-.039 0-.019-.005-.028-.01-.03-.007-.005-.016-.005-.044-.007-.085-.005-.144-.009-.136-.229l.034-.935c0-.009 0-.014.005-.014.003 0 .007.003.009.01l.34 1.043c.024.076.03.1.042.132.007.02.01.032.042.032.028 0 .034-.013.044-.035.019-.05.018-.07.039-.13l.354-1.052c.005-.01.01-.017.012-.017.004 0 .007.007.007.022l.02.993c.003.184-.051.175-.143.18z"/></g><g><path fill="#fff" d="M68.291 39.663c-.021.002-.042.004-.042.037 0 .013.009.04.044.04.083 0 .16-.014.239-.014.078 0 .157.013.237.013.021 0 .043-.004.043-.039s-.019-.035-.039-.037c-.066-.005-.133-.014-.133-.16V38.44c0-.144.067-.155.133-.16.013 0 .039-.002.039-.037 0-.032-.017-.037-.043-.037-.08 0-.159.014-.237.014-.079 0-.16-.014-.239-.014-.023 0-.044.005-.044.037 0 .033.013.035.042.037.069.007.131.014.131.16v1.064c0 .136-.048.153-.131.16z"/></g><g><path fill="#fff" d="M34.748 39.653c.116-.004.133-.055.133-.203v-1.01c0-.16-.033-.154-.102-.136a.247.247 0 0 1-.058.01c-.02 0-.026-.017-.026-.028 0-.03.016-.042.082-.06.06-.015.265-.072.493-.072.532 0 .784.377.784.78 0 .391-.254.796-.727.796-.1 0-.202-.013-.3-.013-.09 0-.183.013-.274.013-.014 0-.044 0-.044-.042 0-.01.004-.032.04-.035zm.362-1.367c-.016.028-.012.072-.012.127v.94c0 .11-.002.187.033.237.044.063.115.066.152.066.32 0 .541-.276.541-.713 0-.449-.24-.715-.56-.715-.113 0-.143.036-.154.058z"/></g><g><path fill="#fff" d="M64.913 38.275l.037.004c.062.007.1.028.204.202l.31.506-.264.445c-.12.206-.165.22-.239.226-.039.005-.066.005-.066.044 0 .015.006.037.04.037.054 0 .06-.01.19-.01.082 0 .162.01.246.01.021 0 .053-.002.053-.037 0-.046-.044-.04-.084-.04-.024 0-.092-.006-.092-.07 0-.028.011-.06.044-.12l.224-.39c.004-.009.008-.013.012-.013.003 0 .005.006.01.013l.247.421c.031.052.042.08.042.102 0 .05-.053.053-.084.053h-.035c-.022 0-.034.022-.034.04 0 .013.006.041.056.041.08 0 .156-.013.233-.013.077 0 .151.013.227.013.051 0 .053-.015.053-.037 0-.032 0-.032-.053-.04-.067-.013-.085-.059-.146-.159l-.384-.634.228-.375c.084-.138.136-.203.272-.212.06-.005.062-.016.062-.04 0-.01 0-.037-.042-.037-.07 0-.14.008-.208.008-.08 0-.156-.008-.244-.008-.015 0-.042 0-.042.035 0 .04.025.04.066.042l.03.002c.027.002.056.004.056.054 0 .027-.014.057-.06.138l-.164.294c-.007.014-.017.011-.024 0l-.198-.335a.324.324 0 0 1-.039-.098c0-.023.011-.049.068-.05h.031c.028 0 .064-.003.064-.043 0-.017-.01-.039-.053-.039-.1 0-.197.01-.294.01-.076 0-.155-.01-.235-.01-.028 0-.052.002-.052.037 0 .007 0 .028.031.033z"/></g><g><path fill="#fff" d="M73.709 39.664c-.02.002-.042.005-.042.037 0 .014.009.04.044.04.084 0 .16-.014.239-.014.079 0 .158.014.237.014.022 0 .043-.005.043-.04s-.019-.035-.039-.037c-.065-.004-.133-.013-.133-.16v-1.063c0-.144.068-.156.133-.16.013 0 .039-.002.039-.037 0-.033-.017-.037-.043-.037-.079 0-.158.013-.237.013-.079 0-.16-.013-.239-.013-.022 0-.044.004-.044.037 0 .032.014.035.042.037.07.007.132.013.132.16v1.063c0 .136-.049.153-.132.16z"/></g><g><path fill="#fff" d="M58.518 39.663c-.041.002-.041.026-.041.037 0 .037.028.04.055.04.09 0 .179-.014.269-.014.062 0 .125.013.187.013.02 0 .052-.002.052-.039 0-.03-.013-.037-.04-.037-.067-.002-.118.016-.122-.176l-.028-1.037c-.003-.118.004-.159.1-.168.036-.005.062.002.062-.04 0-.032-.015-.037-.042-.037-.048 0-.097.007-.144.007-.051 0-.101-.007-.16-.007-.038 0-.046.01-.053.03l-.351 1.042c-.005.013-.01.02-.011.02-.002 0-.004-.007-.008-.02l-.336-1.033c-.01-.028-.018-.039-.055-.039-.107 0-.004.007-.125.007-.162 0-.143-.007-.182-.007-.033 0-.05.002-.05.035 0 .013.002.03.033.04.019.004.04 0 .059 0 .087.002.083.098.078.182l-.05 1.006c-.008.183-.041.193-.131.195-.01 0-.04 0-.04.04 0 .013.003.036.04.036.06 0 .123-.013.18-.013.06 0 .12.013.179.013.053 0 .062-.014.062-.039 0-.019-.007-.028-.011-.03-.007-.005-.016-.005-.044-.007-.086-.005-.144-.009-.136-.229l.033-.935c0-.009.002-.014.006-.014.002 0 .007.003.009.01l.34 1.043c.024.076.03.1.042.132.007.02.01.032.04.032s.037-.013.045-.035c.02-.05.018-.07.04-.13l.354-1.052c.005-.01.009-.017.012-.017.004 0 .006.007.006.022l.02.993c.004.184-.05.175-.143.18z"/></g><g><path fill="#fff" d="M83.628 44.412s.043.151.18.156c.137.006.22-.173.22-.173.13-.627.276-.836.565-1.077.369-.305.997-.659 1.592-1.287.756-.804 1.078-1.833.932-2.83 0 0 .003-.206-.191-.21-.23-.002-.242.177-.242.177 0 .098 0 .354-.033.515-.081.337-.402.644-.708.917-.578.515-1.093.884-1.608 1.61-.66.931-.74 1.655-.707 2.202z"/></g><g><path fill="#fff" d="M71 39.664c-.02.002-.042.005-.042.037 0 .014.009.04.044.04.083 0 .16-.014.239-.014.079 0 .157.014.237.014.022 0 .043-.005.043-.04s-.019-.035-.039-.037c-.066-.004-.133-.013-.133-.16v-1.063c0-.144.067-.156.133-.16.013 0 .039-.002.039-.037 0-.033-.017-.037-.043-.037-.08 0-.158.013-.237.013-.079 0-.16-.013-.239-.013-.022 0-.044.004-.044.037 0 .032.014.035.042.037.07.007.132.013.132.16v1.063c0 .136-.049.153-.132.16z"/></g><g><path fill="#fff" d="M38.313 38.954c0-.455.304-.8.69-.8.467 0 .688.45.688.816 0 .46-.306.802-.69.802-.382 0-.688-.346-.688-.818zm1.148.05c0-.471-.215-.775-.47-.775-.207 0-.448.197-.448.693 0 .467.203.775.47.775.258 0 .448-.276.448-.692z"/></g><g><path fill="#fff" d="M42.953 39.653c-.04.003-.04.026-.04.038 0 .037.027.04.054.04.09 0 .18-.014.27-.014.061 0 .124.013.186.013.021 0 .052-.002.052-.039 0-.03-.013-.038-.04-.038-.067-.002-.118.016-.122-.175l-.029-1.037c-.002-.118.005-.16.101-.169.036-.004.061.002.061-.039 0-.033-.014-.037-.04-.037-.05 0-.098.006-.145.006-.05 0-.1-.006-.159-.006-.039 0-.047.01-.054.03l-.35 1.041c-.006.014-.01.021-.013.021-.002 0-.003-.007-.007-.02l-.336-1.033c-.009-.028-.018-.039-.055-.039-.107 0-.005.006-.125.006-.162 0-.143-.006-.182-.006-.033 0-.05.002-.05.035 0 .013.002.03.033.04.02.003.04 0 .058 0 .088.001.084.098.08.181l-.05 1.007c-.009.183-.042.192-.132.194-.009 0-.039 0-.039.04 0 .013.002.037.04.037.06 0 .122-.013.18-.013.06 0 .12.013.178.013.053 0 .062-.015.062-.039 0-.02-.007-.029-.01-.03-.008-.005-.017-.005-.045-.008-.086-.004-.144-.009-.136-.228l.033-.936c0-.008.002-.013.006-.013.002 0 .007.002.01.01l.34 1.043.041.131c.006.02.011.033.041.033.028 0 .035-.014.044-.035.02-.05.018-.07.04-.132l.354-1.05c.005-.01.01-.017.011-.017.005 0 .007.007.007.022l.02.992c.004.185-.05.176-.143.18z"/></g><g><path fill="#fff" d="M52.626 38.27c.014 0 .04-.002.04-.037 0-.032-.019-.036-.044-.036-.079 0-.158.011-.237.011-.079 0-.16-.011-.238-.011-.023 0-.044.003-.044.036 0 .034.012.036.041.038.07.006.131.012.131.16v1.062c0 .136-.047.154-.131.16-.02.003-.041.005-.041.038 0 .013.008.04.044.04.083 0 .159-.014.238-.014.079 0 .158.013.237.013.022 0 .044-.005.044-.039 0-.035-.02-.035-.04-.038-.065-.004-.134-.013-.134-.16V38.43c0-.144.069-.156.134-.16z"/></g><g><path fill="#fff" d="M49.708 38.343c.014-.033.044-.065.079-.068l.046-.004c.028-.002.033-.02.033-.037 0-.018-.005-.037-.044-.037-.061 0-.12.012-.181.012-.058 0-.117-.012-.174-.012-.032 0-.044.005-.044.037 0 .03.017.035.031.037l.048.004c.042.005.068.035.081.068a.589.589 0 0 1 .016.197v.756l-.658-1.047c-.029-.044-.029-.052-.075-.052h-.315c-.022 0-.044.003-.044.037 0 .033.014.035.042.037.044.004.107.009.125.088a.807.807 0 0 1 .009.116l-.003.975a.812.812 0 0 1-.008.117c-.018.078-.082.083-.127.087-.024.002-.04.004-.04.038s.021.039.044.039c.063 0 .125-.013.188-.013.062 0 .123.013.182.013.026 0 .044-.007.044-.04 0-.035-.02-.035-.039-.037-.056-.002-.123 0-.136-.121-.014-.12-.009-.204-.009-.32l-.005-.796.794 1.26c.041.069.046.082.075.082.054 0 .047-.044.047-.072v-1.145c0-.046.003-.16.018-.2z"/></g><g><path fill="#fff" d="M46.232 38.27c.013 0 .04-.002.04-.037 0-.032-.019-.036-.045-.036-.079 0-.158.011-.237.011-.078 0-.159-.011-.238-.011-.023 0-.044.003-.044.036 0 .034.012.036.042.038.07.006.13.012.13.16v1.063c0 .135-.047.153-.13.16-.02.002-.042.004-.042.037 0 .013.008.04.044.04.083 0 .16-.014.238-.014.08 0 .158.013.237.013.022 0 .044-.005.044-.039 0-.035-.019-.035-.039-.038-.066-.004-.134-.013-.134-.159V38.43c0-.144.068-.156.134-.16z"/></g><g><path fill="#fff" d="M66.6 57.627c-.047 0-.062.055-.08.105-.044.118-.095.253-.201.333a.478.478 0 0 1-.281.084h-.158c-.186 0-.277-.084-.277-.406v-.65c0-.117.036-.113.09-.113h.158c.256 0 .285.066.336.255.022.078.029.176.092.176.062 0 .048-.088.044-.15a2.623 2.623 0 0 1-.007-.483c.007-.121.017-.178.017-.215 0-.015-.006-.077-.046-.077-.03 0-.052.022-.078.117-.025.098-.054.234-.274.234h-.237c-.095 0-.095-.059-.095-.132v-.676c0-.11-.004-.154.252-.154.117 0 .314-.007.432.099a.632.632 0 0 1 .142.257c.015.04.025.086.066.086.054 0 .047-.076.047-.101v-.154l.004-.183v-.08c0-.081-.015-.069-.095-.063-.107.011-.443.011-.527.011l-.482-.003c-.121 0-.296-.012-.403-.012-.043 0-.084 0-.084.067 0 .055.037.058.063.058.212.011.223.124.223.34v1.627c0 .223-.011.322-.22.34-.036.004-.066.004-.066.063 0 .046.034.065.078.065.174 0 .339-.021.507-.021.168 0 .212.01.563.017l.213.004c.27.004.259.019.266-.073 0-.007.015-.227.033-.329l.022-.128c.01-.07.023-.135-.037-.135z"/></g><g><path fill="#fff" d="M62.673 55.857c.02 0 .065-.004.065-.062 0-.034-.007-.063-.077-.063-.131 0-.262.015-.394.015-.117 0-.235-.015-.352-.015h-.277c-.088 0-.172.008-.26.008-.095 0-.19-.008-.288-.008-.016 0-.077 0-.077.06 0 .061.036.065.069.065.143.004.245-.008.245.344 0 .262-.025.79-.07 1.1-.076.552-.186.727-.263.727-.032 0-.05-.022-.07-.047-.018-.025-.047-.077-.127-.077-.106 0-.204.077-.204.234 0 .146.09.227.226.227.212 0 .442-.132.585-.925.062-.352.08-.67.095-.95.015-.268.015-.366.026-.444.01-.069.036-.17.205-.17h.128c.13 0 .229 0 .229.211v1.737c0 .304-.061.33-.223.34-.036.004-.065.004-.065.062 0 .058.04.066.073.066.13 0 .263-.022.395-.022s.263.022.394.022c.074 0 .077-.048.077-.066 0-.056-.036-.058-.065-.062-.146-.01-.224-.022-.224-.34v-1.7c0-.246.099-.256.224-.267z"/></g><g><path fill="#fff" d="M49.183 57.023c0 .768-.512 1.338-1.151 1.338-.636 0-1.15-.577-1.15-1.363 0-.76.51-1.335 1.153-1.335.779 0 1.148.75 1.148 1.36zm-1.13 1.214c.428 0 .746-.46.746-1.155 0-.786-.358-1.294-.782-1.294-.348 0-.75.328-.75 1.154 0 .78.34 1.295.786 1.295z"/></g><g><path fill="#fff" d="M70.863 58.164c-.076-.008-.135-.036-.263-.285l-.27-.523c-.172-.333-.355-.395-.476-.406v-.015c.103-.033.238-.117.333-.449l.07-.249c.03-.109.058-.245.134-.245.044 0 .06.037.074.07.026.066.055.142.161.142.098 0 .201-.08.201-.233 0-.107-.055-.279-.278-.279-.114 0-.31.052-.42.443l-.084.296c-.044.157-.147.461-.41.461h-.058c-.096 0-.107-.015-.107-.11v-.58c0-.363.107-.334.223-.34.037-.005.07-.023.07-.063 0-.063-.029-.067-.106-.067-.12 0-.24.023-.365.023s-.249-.023-.369-.023c-.067 0-.103.004-.103.067 0 .014.007.062.065.062.147 0 .223.018.223.34v1.623c0 .32-.076.33-.219.34-.033.004-.069.007-.069.062 0 .022.015.066.076.066.136 0 .264-.022.396-.022.131 0 .262.022.398.022.018 0 .073-.004.073-.066 0-.055-.022-.058-.066-.062-.12-.015-.227.015-.227-.34v-.71c0-.05-.02-.095.103-.095.091 0 .204.008.38.381l.296.621c.062.132.125.271.315.271.018 0 .04-.004.058-.004.03-.004.055-.004.084-.004.062 0 .121.008.183.008a.066.066 0 0 0 .066-.066c0-.047-.01-.055-.092-.062z"/></g><g><path fill="#fff" d="M56.398 58.09c-.048.063-.12.07-.18.074-.025.004-.065.007-.065.063 0 .06.04.065.074.065.13 0 .267-.021.399-.021.13 0 .258.02.39.02.033 0 .077-.003.077-.064 0-.06-.034-.06-.067-.063-.059-.004-.135-.014-.179-.073-.025-.036-.044-.105-.044-.267v-1.751c0-.113.016-.198.308-.198h.402c.296 0 .3.11.3.205v1.744c0 .114.003.208-.045.267-.043.059-.116.069-.174.073-.026 0-.07.004-.07.063 0 .065.048.065.08.065.132 0 .26-.021.392-.021.13 0 .263.02.395.02.036 0 .073-.007.073-.064 0-.06-.033-.06-.066-.063-.06-.004-.135-.014-.18-.073-.021-.033-.043-.095-.043-.267v-1.627c0-.171.022-.234.044-.266.044-.06.12-.07.179-.073.033-.004.066-.004.066-.063 0-.033-.011-.062-.081-.062-.131 0-.258.022-.39.022-.165 0-.333-.022-.501-.022h-.363c-.161 0-.317.022-.478.022-.14 0-.278-.022-.421-.022-.036 0-.076.004-.076.062 0 .059.032.059.065.063.063.004.135.014.179.073.033.043.045.116.045.266v1.627c0 .114.003.208-.045.267z"/></g><g><path fill="#fff" d="M53.466 52.018c-.092 0-.103-.092-.103-.092V50.61a4.169 4.169 0 0 1-.515-.04c-.235-.02-.399-.052-.543-.052-.194 0-.399.041-.644.062-.215.03-.349.03-.44.03-.05 0-.184-.01-.184-.102v-.06c0-.063.03-.104.102-.124.113-.04.163.01.39-.04.193-.042.315-.124.315-.328a.723.723 0 0 0-.06-.298L51.148 48h-2.753l-.685 1.657c-.073.165-.092.257-.092.328 0 .328.378.317.593.317.061 0 .214 0 .214.133v.062c0 .102-.102.112-.163.112-.05 0-.133 0-.429-.03-.257-.02-.46-.062-.635-.062-.092 0-.194.011-.42.041-.174.021-.317.051-.45.051-.143 0-.174-.06-.174-.102v-.06c0-.145.082-.134.185-.145.153-.02.368-.112.48-.205.103-.09.235-.297.287-.409l2.701-6.273c.051-.113.072-.256.195-.256.153 0 .205.175.235.246l2.477 6.457c.041.103.175.342.373.402.146.046.896.02 1.002-.085l3.04-6.826s.065-.113.122-.112c.057.001.092.102.092.102l2.57 6.836c.438.082.357-.04.664-.04.164 0 .164.143.164.296v1.491s.001.08-.103.092c-.103.013-.164-.06-.164-.06-.282-1.583-1.092-1.349-1.483-1.349h-3.787c-.645 0-1.31-.279-1.568 1.303 0 0-.029.107-.17.106zm1.228-1.839h4.236l-1.944-5.127h-.092zm-3.709-2.609l-1.166-3.039-1.249 3.04z"/></g><g><path fill="#fff" d="M74.723 57.6c-.028 0-.036.02-.047.042-.058.13-.14.317-.256.442a.47.47 0 0 1-.351.154c-.362 0-.793-.373-.793-1.251 0-.655.3-1.198.815-1.198.296 0 .409.197.497.36.063.125.08.158.117.158.059 0 .05-.084.044-.164l-.014-.165c-.012-.132-.015-.164-.08-.197-.115-.063-.385-.117-.56-.117-.702 0-1.203.599-1.203 1.364 0 .713.446 1.334 1.163 1.334.149 0 .325-.03.54-.143.165-.084.16-.176.165-.241l.007-.14c.004-.091.037-.237-.044-.237z"/></g><g><path fill="#fff" d="M78.346 52.371H11.314s-.112.004-.112.131a.12.12 0 0 0 .112.131h67.032s.099-.014.099-.13c0-.11-.1-.132-.1-.132z"/></g><g><path fill="#fff" d="M78.346 41.68H11.314s-.112.004-.112.13a.12.12 0 0 0 .112.132h67.032s.099-.013.099-.131c0-.11-.1-.131-.1-.131z"/></g><g><path fill="#fff" d="M91.765 52.714c-.325 0-.687.019-1.031-.126-.49-.218-.561-.58-.561-1.122V42.04c0-.65.236-1.013.652-1.356 0 0 .158-.164.1-.293-.057-.13-.245-.106-.245-.106-.435.09-1.05.345-1.9 1.41l-7.182 9.047v-8.358c0-.543.072-.904.56-1.122.345-.144.706-.126 1.033-.126.214 0 .233-.123.234-.213-.001-.091-.02-.213-.234-.213-.236 0-.435.036-.96.072-.652.054-1.05.09-1.411.09-.362 0-.76-.031-1.41-.09-.288-.026-.388-.018-.494-.025-.213-.014-.234.076-.235.166 0 .09.02.214.235.213.11 0 .372.019.566.126.467.26.56.579.56 1.122v11.09s.014.18.145.18c.203 0 .254-.107.254-.107l8.177-10.312v8.23c0 .544-.073.905-.562 1.123-.343.145-.705.126-1.03.126-.214 0-.235.123-.236.214 0 .09.022.213.236.213.235 0 .433-.036.958-.073.65-.054 1.05-.09 1.412-.09.36 0 .76.036 1.41.09.525.037.724.073.959.073.214 0 .234-.123.235-.213-.001-.091-.021-.214-.235-.214z"/></g><g><path fill="#fff" d="M51.565 57.839c-.015.307-.069.32-.22.325-.014 0-.065 0-.065.066 0 .022.004.062.065.062.103 0 .205-.021.304-.021.1 0 .197.02.296.02.088 0 .102-.024.102-.064 0-.034-.01-.048-.018-.052-.01-.007-.026-.007-.072-.011-.143-.008-.243-.014-.228-.38l.056-1.561c0-.015.003-.022.01-.022.004 0 .011.003.015.015l.567 1.74c.04.128.051.164.07.219.01.033.017.055.068.055.048 0 .06-.022.073-.06.034-.083.03-.115.067-.218l.592-1.751c.006-.018.014-.03.018-.03.007 0 .011.012.011.037l.033 1.656c.007.307-.084.292-.237.3-.07.004-.07.044-.07.063 0 .06.047.065.091.065.15 0 .3-.021.45-.021.102 0 .21.02.311.02.036 0 .087-.003.087-.064 0-.052-.022-.063-.065-.063-.114-.004-.198.026-.206-.292l-.046-1.73c-.004-.198.006-.267.168-.281.058-.007.102.003.102-.066 0-.055-.025-.062-.069-.062-.08 0-.16.01-.24.01-.085 0-.17-.01-.265-.01-.067 0-.08.014-.09.05l-.587 1.738c-.007.022-.014.033-.017.033-.004 0-.008-.011-.015-.033l-.56-1.722c-.014-.048-.029-.066-.09-.066-.18 0-.008.01-.209.01-.27 0-.238-.01-.304-.01-.055 0-.084.003-.084.058 0 .023.004.052.055.067.033.006.066 0 .098 0 .147.003.14.164.132.302z"/></g><g><path fill="#fff" d="M7.483 46.44c1.798.214 2.974 1.496 2.974 3.223 0 1.176-.499 2.084-1.194 2.636-.997.802-2.422.855-3.24.855-.553 0-.727-.036-1.1-.053a51.267 51.267 0 0 0-2.263-.108c-.41 0-.802.037-1.212.072-.48.053-.712.089-.943.089-.249 0-.249-.09-.249-.196v-.107c0-.232.125-.232.231-.232.32 0 .677.019 1.016-.124.48-.214.551-.57.551-1.104V42.45c0-.534-.07-.89-.55-1.103-.34-.143-.697-.125-1.017-.125-.214 0-.23-.124-.23-.214v-.106c0-.09.016-.214.23-.214h5.464c.908 0 2.19.035 3.063.819.5.445.837 1.157.837 2.03 0 .89-.374 1.478-.605 1.782-.392.498-1.015.908-1.763 1.085zm.587 4.987c.517-.624.66-1.282.66-1.906 0-1.32-.535-2.083-1.478-2.457-.606-.233-1.565-.377-1.956-.377h-.543c-.073 0-.233.057-.233-.174v-.178c0-.142.108-.142.268-.142h.65c.658 0 1.403-.181 1.956-.608.445-.34.783-1.015.783-1.852 0-1.07-.534-1.584-.748-1.763-.588-.463-1.333-.534-2.08-.534-.677 0-1.264.053-1.763.106v9.778c0 .534.407 1.086 2.08 1.086.998 0 1.781-.232 2.404-.98z"/></g><g><path fill="#fff" d="M20.173 58.164c-.117-.01-.157-.092-.256-.289l-.25-.5c-.086-.176-.203-.399-.485-.42v-.016c.194-.066.293-.253.337-.446l.054-.248c.044-.198.099-.249.139-.249.044 0 .059.044.069.07.023.054.055.142.158.142.08 0 .205-.05.205-.24 0-.125-.077-.268-.264-.268-.281 0-.376.256-.428.443l-.076.285c-.044.16-.15.464-.406.464h-.026c-.124 0-.102-.063-.102-.11v-.585c0-.132-.032-.325.22-.34.058-.004.069-.033.069-.062 0-.055-.03-.063-.073-.063-.132 0-.263.023-.395.023s-.266-.023-.398-.023c-.044 0-.073.008-.073.063 0 .03.01.058.069.062.252.015.22.208.22.34v.585c0 .047.02.11-.103.11h-.025c-.256 0-.363-.304-.407-.464l-.077-.285c-.05-.187-.145-.443-.427-.443-.187 0-.263.143-.263.267 0 .19.124.241.204.241.102 0 .136-.088.158-.143.01-.025.026-.069.069-.069.04 0 .095.051.139.25l.055.247c.044.193.142.38.337.446v.015c-.282.022-.4.245-.488.42l-.248.501c-.098.197-.138.278-.255.29-.034.003-.092.003-.092.061 0 .062.052.066.07.066.047 0 .09-.008.139-.008.153 0 .069.012.212.012.146 0 .208-.139.24-.216l.278-.61c.044-.1.155-.312.245-.392.067-.059.12-.059.16-.059.093 0 .079.034.079.095v.71c0 .321-.078.325-.224.34-.044.004-.065.007-.065.062 0 .041.025.066.073.066.135 0 .266-.022.398-.022s.26.022.395.022c.048 0 .073-.025.073-.066 0-.055-.022-.058-.065-.062-.147-.015-.224-.019-.224-.34v-.71c0-.06-.015-.095.077-.095.04 0 .095 0 .16.06.092.08.202.291.245.391l.279.61c.033.077.094.216.24.216.143 0 .059-.012.213-.012.048 0 .092.008.138.008.019 0 .07-.004.07-.066 0-.058-.058-.058-.091-.062z"/></g><g><path fill="#fff" d="M11.76 44.459v6.273s.006.103.083.103.144-.062.144-.062l4.625-5.833v4.657c0 .306-.041.511-.317.634-.195.082-.4.072-.584.072-.123 0-.133.071-.133.123v.06c0 .052.01.123.133.123.133 0 .246-.02.542-.041.369-.03.594-.05.799-.05.205 0 .43.02.798.05.297.021.41.041.543.041.123 0 .133-.071.133-.123v-.06c0-.052-.01-.123-.133-.123-.185 0-.39.01-.584-.072-.277-.123-.317-.328-.317-.634v-5.332c0-.368.133-.574.369-.768 0 0 .073-.095.044-.163-.03-.068-.126-.062-.126-.062-.247.051-.594.194-1.075.798l-4.063 5.118v-4.729c0-.307.04-.512.317-.634.195-.083.4-.072.583-.072.123 0 .134-.071.134-.123v-.062c0-.05-.011-.123-.134-.123-.133 0-.245.021-.542.042-.368.031-.593.051-.798.051-.205 0-.43-.02-.798-.051-.297-.021-.41-.042-.542-.042-.123 0-.133.073-.133.123v.062c0 .052.01.123.133.123.183 0 .388-.011.583.072.276.122.317.327.317.634z"/></g><g><path fill="#fff" d="M19.86 50.231c-.195.082-.399.071-.584.071-.123 0-.133.072-.133.123v.061c0 .052.01.123.133.123.133 0 .245-.02.542-.04.37-.03.594-.052.8-.052.204 0 .428.021.797.051.297.02.41.041.542.041.123 0 .133-.07.133-.123v-.06c0-.052-.01-.124-.133-.124-.184 0-.389.011-.583-.07-.277-.124-.318-.329-.318-.636v-2.62h3.848v2.62c0 .307-.042.512-.317.635-.195.082-.4.071-.584.071-.123 0-.133.072-.133.123v.061c0 .052.01.123.133.123.133 0 .246-.02.543-.04.368-.03.592-.052.797-.052.205 0 .43.021.798.051.297.02.41.041.543.041.123 0 .133-.07.133-.123v-.06c0-.052-.01-.124-.133-.124-.184 0-.388.011-.584-.07-.275-.124-.317-.329-.317-.636V44.46c0-.307.042-.512.317-.634.196-.083.4-.073.584-.073.123 0 .133-.07.133-.123v-.06c0-.052-.01-.124-.133-.124-.133 0-.246.02-.543.042-.368.03-.593.051-.798.051-.205 0-.429-.02-.797-.05-.297-.023-.41-.043-.543-.043-.123 0-.133.072-.133.123v.052c0 .091 0 .122.133.132.205.011.378-.02.584.073.275.122.317.327.317.634v2.087h-3.848V44.46c0-.307.041-.512.318-.634.194-.083.4-.073.583-.073.123 0 .133-.07.133-.123v-.06c0-.052-.01-.124-.133-.124-.132 0-.245.02-.542.042-.369.03-.593.051-.798.051-.205 0-.43-.02-.799-.05-.297-.023-.409-.043-.542-.043-.123 0-.133.072-.133.123v.061c0 .052.01.123.133.123.185 0 .39-.01.583.073.276.122.317.327.317.634v5.137c0 .307-.04.512-.317.635z"/></g><g><path fill="#fff" d="M30.662 50.783c-1.79 0-2.794-.788-3.326-1.77-.318-.574-.45-1.228-.45-1.883 0-.645.153-1.289.41-1.812.643-1.278 1.973-2.046 3.366-2.046 1.381 0 2.721.768 3.367 2.036.266.512.408 1.146.408 1.791 0 .665-.142 1.34-.449 1.913-.41.748-1.31 1.771-3.326 1.771zm-2.508-5.209c-.164.45-.245.952-.245 1.443 0 .512.081 1.024.235 1.474.604 1.71 1.913 1.894 2.518 1.894.573 0 1.913-.185 2.517-1.894.154-.44.236-.95.236-1.463 0-.502-.082-1.004-.246-1.454-.563-1.545-1.719-1.903-2.507-1.903-.523 0-1.873.143-2.508 1.903z"/></g><g><path fill="#fff" d="M41.379 50.231c-.194.082-.4.071-.583.071-.123 0-.133.072-.133.123v.061c0 .052.01.123.133.123.133 0 .245-.02.542-.04.368-.03.594-.052.798-.052.205 0 .43.021.799.051.297.02.409.041.542.041.123 0 .132-.07.132-.123v-.06c0-.052-.01-.124-.132-.124-.184 0-.39.011-.583-.07-.277-.124-.318-.329-.318-.636v-5.158c0-.245.267-.562 1.207-.562.523 0 1.117.05 1.567.501.379.378.49.88.49 1.361 0 .502-.132.992-.4 1.33-.203.257-.602.553-1.288.553-.327 0-.593-.062-1.023-.225-.082-.04-.205-.02-.205.061v.123c0 .041.04.072.072.091.184.114.727.298 1.38.298.482 0 1.27-.092 1.844-.706.338-.358.583-.9.583-1.525 0-.86-.39-1.392-.788-1.709-.635-.5-1.371-.584-1.965-.584-.41 0-.911.072-1.914.072-.318 0-.511 0-.798-.03-.245-.022-.39-.042-.542-.042-.123 0-.133.072-.133.123v.061c0 .052.01.123.133.123.184 0 .389-.01.583.073.276.122.317.327.317.634v5.137c0 .307-.041.512-.317.635z"/></g><g><path fill="#fff" d="M35.463 50.231c-.194.082-.4.071-.584.071-.122 0-.133.072-.133.123v.061c0 .052.01.123.133.123.153 0 .328-.02.543-.05.215-.02.439-.042.798-.042.357 0 .583.021.798.041.215.03.388.051.543.051.122 0 .132-.07.132-.123v-.06c0-.052-.01-.124-.132-.124-.175 0-.4.011-.584-.07-.297-.135-.318-.4-.318-.636v-5.72h1.34c.41 0 .84.03 1.25.44.245.245.49.705.593.92.093.113.236.041.225-.112l-.542-1.934-.072-.03h-.082l-.051.05c.02.124-.05.235-.194.235h-4.247c-.122 0-.133.072-.133.123v.061c0 .052.01.123.133.123.194 0 .379-.01.584.073.276.112.316.265.316.634v5.137c0 .307-.04.512-.316.635z"/></g><g><path fill="#fff" d="M35.58 58.164c-.028.004-.065.004-.065.062 0 .062.051.066.073.066.136 0 .263-.022.394-.022.132 0 .264.022.4.022.01 0 .072 0 .072-.066 0-.055-.025-.058-.069-.062-.143-.01-.22-.033-.22-.314v-.037l1.01-1.396v1.407c0 .321-.077.33-.22.34-.044.004-.069.007-.069.062 0 .062.05.066.073.066.135 0 .263-.022.394-.022.132 0 .264.022.4.022.01 0 .072 0 .072-.066 0-.058-.033-.058-.065-.062-.16-.01-.224-.036-.224-.34v-1.627c0-.34.088-.329.224-.34.036-.004.061-.007.061-.062 0-.063-.054-.063-.069-.063-.128 0-.256.023-.38.023-.136 0-.274-.023-.413-.023-.067 0-.073.03-.073.063 0 .058.033.058.065.062.132.007.224.03.224.292v.02l-1.01 1.4v-1.372c0-.27.041-.329.22-.34.033-.004.066-.004.066-.062 0-.063-.056-.063-.07-.063-.135 0-.267.023-.399.023-.128 0-.258-.023-.39-.023-.07 0-.077.034-.077.063 0 .058.033.058.065.062.172.011.224.055.224.34v1.627c0 .285-.052.33-.224.34z"/></g><g><path fill="#fff" d="M24.64 58.164c-.161-.01-.224-.036-.224-.34v-1.627c0-.34.088-.329.224-.34.036-.004.062-.007.062-.062 0-.063-.055-.063-.07-.063-.128 0-.256.023-.38.023-.135 0-.274-.023-.413-.023-.066 0-.073.03-.073.063 0 .058.032.058.065.062.132.007.224.03.224.292v.02l-1.01 1.4v-1.372c0-.27.04-.329.22-.34.033-.004.065-.004.065-.062 0-.063-.054-.063-.07-.063-.134 0-.266.023-.397.023-.128 0-.26-.023-.392-.023-.07 0-.076.034-.076.063 0 .058.033.058.065.062.172.011.224.055.224.34v1.627c0 .285-.052.33-.224.34-.03.004-.065.004-.065.062 0 .062.05.066.073.066.135 0 .263-.022.395-.022.13 0 .263.022.398.022.01 0 .073 0 .073-.066 0-.055-.025-.058-.07-.062-.142-.01-.22-.033-.22-.314v-.037l1.01-1.396v1.407c0 .321-.076.33-.22.34-.043.004-.068.007-.068.062 0 .062.05.066.073.066.135 0 .263-.022.395-.022s.262.022.398.022c.01 0 .073 0 .073-.066 0-.058-.033-.058-.065-.062z"/></g><g><path fill="#fff" d="M44.55 58.292c.019 0 .04-.004.059-.004.029-.004.054-.004.084-.004.062 0 .12.008.183.008a.066.066 0 0 0 .066-.065c0-.048-.011-.056-.092-.063-.076-.007-.135-.036-.263-.285l-.27-.523c-.172-.333-.355-.395-.476-.406v-.014c.103-.034.237-.118.333-.45l.069-.249c.03-.109.059-.245.135-.245.044 0 .059.037.073.07.026.066.055.142.16.142.1 0 .203-.08.203-.233 0-.107-.055-.279-.28-.279-.112 0-.31.052-.42.443l-.083.296c-.043.157-.146.461-.41.461h-.057c-.096 0-.107-.015-.107-.11v-.581c0-.362.107-.333.223-.34.037-.004.069-.022.069-.062 0-.063-.03-.067-.105-.067-.121 0-.241.023-.366.023-.124 0-.25-.023-.37-.023-.065 0-.101.004-.101.067 0 .014.007.062.065.062.146 0 .223.018.223.34v1.623c0 .319-.077.329-.22.34-.032.004-.068.007-.068.063 0 .021.014.065.076.065.135 0 .264-.021.395-.021.13 0 .263.021.398.021.019 0 .073-.004.073-.065 0-.056-.021-.059-.065-.063-.12-.015-.227.015-.227-.34v-.71c0-.051-.022-.094.103-.094.09 0 .204.007.38.38l.296.621c.062.132.125.271.314.271z"/></g><g><path fill="#fff" d="M37.285 55.1a.197.197 0 0 0 .015-.065c0-.038-.03-.052-.055-.052-.04 0-.069.066-.136.179-.098.175-.186.242-.303.242-.127 0-.194-.103-.208-.245-.01-.095.007-.187-.074-.187-.076 0-.212.197-.212.318 0 .175.205.33.425.33.292 0 .453-.293.548-.52z"/></g><g><path fill="#fff" d="M32.249 55.663c.779 0 1.148.75 1.148 1.36 0 .768-.512 1.338-1.151 1.338-.636 0-1.148-.577-1.148-1.363 0-.76.508-1.335 1.15-1.335zm.019 2.574c.428 0 .745-.46.745-1.155 0-.786-.357-1.294-.782-1.294-.347 0-.75.328-.75 1.154 0 .78.34 1.295.787 1.295z"/></g><g><path fill="#fff" d="M28.914 55.857c.021 0 .065-.004.065-.062 0-.034-.006-.063-.076-.063-.132 0-.263.015-.395.015-.117 0-.234-.015-.35-.015h-.279c-.087 0-.172.008-.26.008-.095 0-.189-.008-.288-.008-.015 0-.077 0-.077.06 0 .061.037.065.07.065.142.004.244-.008.244.344 0 .262-.025.79-.069 1.1-.077.552-.187.727-.264.727-.032 0-.05-.022-.069-.047-.018-.025-.048-.077-.128-.077-.105 0-.204.077-.204.234 0 .146.091.227.226.227.212 0 .443-.132.585-.925.062-.352.081-.67.095-.95.015-.268.015-.366.026-.444.01-.069.037-.17.205-.17h.128c.131 0 .23 0 .23.211v1.737c0 .304-.062.33-.224.34-.036.004-.065.004-.065.062 0 .058.04.066.073.066.132 0 .263-.022.395-.022s.263.022.395.022c.073 0 .076-.048.076-.066 0-.056-.036-.058-.065-.062-.146-.01-.224-.022-.224-.34v-1.7c0-.246.1-.256.224-.267z"/></g><g><path fill="#fff" d="M61.937 18.227l.316.134c-.001 0 .047.003.01-.016-.06-.032-.26-.115-.361-.182-.032-.017.033-.044.155-.085.029-.01-.017-.018-.017-.018s-.197.063-.213.05a1.1 1.1 0 0 1-.198-.17c-.204-.256-.18-.241-.183-.305-.004-.064.097-.306.384-.455.11-.053.193-.077.3-.038.041.015.246.319.246.319s.012.01.023.002c.01-.008-.004-.022-.004-.022l-.18-.267s.132.034.242.033c.265-.027.447-.182.544-.205.099-.022.16-.004.16-.004l.017-.01-.004-.02s-.085-.03-.213.018c-.046.017-.384.18-.49.193-.127.016-.21-.041-.29-.068a.513.513 0 0 0-.294-.014.757.757 0 0 1 .07-.155c.046-.074.096-.1.121-.124.014-.016-.009-.022-.012-.021a.488.488 0 0 0-.13.136c-.052.088-.11.205-.145.217-.107.037-.258.204-.347.307.002-.063.016-.2.013-.258-.007-.103-.023-.203-.01-.366.023-.27.079-.497.148-.674.037-.068.237-.17.267-.19.014-.008.126-.053.123-.077-.004-.025-.374.204-.364.183.127-.266.309-.466.309-.466-.006.005.015-.02.012-.026-.004-.007-.025.006-.03.01-.183.167-.391.578-.492 1.048-.006.032-.139-.224-.17-.303-.002-.01-.024-.013-.003.036.044.107.156.322.152.349-.012.219-.006.366.002.47a.984.984 0 0 1-.032.34c-.023.032-.05.027-.05.027s-.033-.006-.115-.152a18.021 18.021 0 0 0-.368-.625c-.01-.017-.002-.191-.008-.202-.016-.024-.018.125-.045.132-.028.009-.333-.18-.333-.18s-.013-.005-.02.007c-.005.012.01.023.01.023s.255.147.32.212c.067.065.39.624.41.662.047.08.107.15.102.192-.005.04-.303.093-.477.1-.013 0-.127-.131-.134-.138-.004-.003-.033-.01-.02.01.027.04.11.126.1.126a.798.798 0 0 1-.301-.083c-.012-.006-.025-.001-.017.007.035.032.105.06.217.094.183.052.544-.01.654-.03.152-.023.215.164.325.284.103.115.298.22.318.228z"/></g><g><path fill="#fff" d="M57.494 29.58s-.105-.157-.202-.256c-.098-.099-.246-.198-.246-.198l-.004.022.036.056s.103.063.197.168c.084.092.127.154.135.19.04.195-.342.574-.438.784-.297.644-.962.795-.963.796-.112-.01-.14-.053-.522-.359-.107-.085-.274-.284-.255-.468-.02-.03.486-.283.486-.283s-.007-.02-.052-.004c-.14.055-.488.171-.506.14-.125-.22.066-.53.136-.662.022-.044 0-.036 0-.037 0 0-.176.172-.223.28-.048.107.018.8.258 1.07.222.208.555.34.505.558-.055.242-.25 1.066-.193 1.593 0 0 .05.338.07.443.016.104.042.068.035-.003-.008-.07-.065-.487-.04-.743.002-.028.176.21.252.263.025.017.037-.03.032-.038-.013-.018-.274-.325-.27-.358.053-.41.128-1.108.26-1.012.054.07.444.221.546.251.794.231 1.593 1.413 1.69 1.717l.047.003c-.033-.178-.373-.71-.604-1-.022-.029.673.023.653-.01-.019-.036-.717-.037-.739-.07-.23-.373-.843-.696-1.23-.847-.243-.092-.287-.229-.24-.29.048-.06.598-.109.827-.106.208.002.521-.026.87-.095.06-.012.573.25.757.317.056.022.087-.013.073-.018-.16-.05-.646-.318-.582-.336 1.76-.76 2.363-.147 2.56-.023.04.026-.086-.155-.207-.226-.076-.043-.762-.398-1.305-.175-.037.021.312-.469.268-.473-.018 0-.394.488-.439.508a4.51 4.51 0 0 1-1.269.35 4.835 4.835 0 0 1-.733.058c-.119-.003-.435.04-.565.052.263-.106.636-.496.713-.707.025-.065.543-.102.711-.205.131-.08.267-.187.242-.219-.024-.032-.13.093-.264.162-.152.077-.627.14-.62.126.145-.293.238-.35.385-.615.105-.185.37-.379.407-.508.051-.167.441-.689.48-.752.02-.035.041-.059.057-.083.017.002-.025-.012-.067-.019-.08.124-.375.476-.514.82-.056.137-.396.47-.396.47z"/></g><g><path fill="#fff" d="M61.532 14.297l-.008-.033c-.094 0-.148.023-.273.003-.01-.002.066-.074.09-.11.016-.023-.017-.013-.023-.01-.008.005-.115.114-.13.11-.204-.04-.445-.11-.56-.178a.345.345 0 0 0 .095-.135c.016-.033.031-.07.046-.111.088-.247.18-.427.27-.512a.503.503 0 0 1 .17-.101.862.862 0 0 1 .213-.046s.032-.01.027-.024c-.005-.015-.053.003-.053.003s-.129.018-.203.04a1.107 1.107 0 0 0-.192.102s-.066-.165-.077-.144c-.007.01.052.16.044.173-.133.193-.204.419-.282.577-.06.125-.114.119-.115.119 0 0-.028-.018-.058-.051a.948.948 0 0 1-.092-.317c-.01-.093-.019-.255-.073-.416-.044-.087.077-.214.102-.305.02-.066-.019-.042-.022-.03-.017.068-.115.249-.127.219a2.604 2.604 0 0 0-.56-.82c-.046-.042-.063-.052-.073-.027 0 0 .14.11.298.334.012.018-.048.003-.047.023.001.007.082.02.095.04.094.155.232.392.298.63.04.147.043.258.053.35.006.053.044.178.058.237-.109-.108-.285-.29-.395-.336-.065-.028-.102-.118-.163-.2-.033-.042-.018-.058-.082-.09-.017-.008-.007.012-.01.01-.007-.002.021.026.064.09.048.073.098.15.091.147a.47.47 0 0 0-.263-.003.52.52 0 0 1-.222.01c-.052-.012-.057-.001-.057-.001s-.03 0 .068.03c.076.024.204.007.204.007l-.14.183s-.015.012-.006.026c.01.014.024 0 .024 0s.146-.197.182-.206c.091-.021.17-.01.281.049.186.097.393.332.438.398.034.04.026.133-.105.293-.037.045-.107.08-.169.115a.309.309 0 0 1-.2-.09c-.018-.02-.033.014-.033.014s.185.1.165.11c-.092.062-.269.074-.32.09-.053.019.001.029 0 .029l.28-.058a.961.961 0 0 0 .29-.167c.09-.091.085-.214.25-.164.122.038.528.136.78.13z"/></g><g><path fill="#fff" d="M53.252 31.48c-.322-.181-.928-.268-1.65-.125-.052.01.176-.356.273-.46.01-.01-.036-.036-.069 0-.108.126-.31.51-.358.523-.269.079-.587.252-.732.333-.16.09-.512.24-.606.208-.101-.044.016-.19.016-.19-.001-.003 0 0 .157-.235.053-.08.082-.168.19-.254.107-.086.707-.333.707-.333s.128-.064.022-.038c-.07.016-.617.285-.622.243-.005-.042.679-.715.684-.72 0 0 .301-.275.477-.432a.125.125 0 0 1-.01-.027c-.174.15-.5.442-.5.442-.027.025-.682.706-.773.772-.091.067-.077-.162-.09-.225-.016-.084.012-.343-.046-.235-.057.11.069.545.069.545a6.817 6.817 0 0 0-.207.283c-.087.131-.173.306-.234.322-.062.016-.311-.524-.458-.822-.01-.018.093-.218.125-.306.018-.076-.021-.024-.021-.028.005-.029-.131.264-.143.237a3.452 3.452 0 0 1-.193-.523s-.041-.027-.026.04c.017.067.111.317.111.317.1.422.424 1.004.533 1.174.146.228-.064.384-.157.637a2.124 2.124 0 0 0-.091.638l.032.454c0-.003.074.112.079-.03.003-.102-.057-.334-.044-.462.005-.045.243.081.243.081s-.241-.2-.234-.233c.025-.145.083-.366.133-.476.177-.393.176-.406.25-.455 0 0 .387-.126.922.279a.611.611 0 0 1 .212.444c.006.073-.229.543-.229.543l.066-.017.198-.422s.036.246.111.358c.113.17.303.308.463.41a.68.68 0 0 1 .038-.07c-.168-.108-.399-.257-.451-.35-.061-.109-.056-.286-.065-.42a.9.9 0 0 0-.165-.453c-.007-.01.136-.002.272.005.122.006.262.082.254.073-.006-.006.018-.074-.048-.102-.043-.019-.168-.002-.216-.009-.156-.02-.37-.029-.408-.075-.123-.147-.522-.265-.769-.293.095-.039.391-.175.474-.22.144-.08.482-.25.771-.343.309-.1.64-.146.867-.093.21.05.371.426.433.385.032-.02-.282-.4-.247-.397.441.03.772.23.778.212.005-.017-.087-.08-.098-.086z"/></g><g><path fill="#fff" d="M43.526 33.637s.996-.05 1.372-.065c-.083-.086-.192-.173-.275-.26-.32.02-.76.06-1.089.056z"/></g><g><path fill="#fff" d="M57.86 26.236a1.505 1.505 0 0 1-.533-.868s.766-.366.821-.404a.2.2 0 0 0 .082-.19c-.028-.171.04-.705.141-1.09.04-.15.084-.278.132-.381.23-.496.432-.735.44-.746l.23-.27s.056.326.162.412c.028.02.151.066.251.103.3.11.556.299.712.442.01-.012.075-.17.352-.313.04-.112.077-.226.113-.34-.252.119-.502.105-.65.095-.239-.014-.6-.178-.64-.196l-.098-.045s.172-.448.12-.565c-.053-.116-.887-.868-.877-.924.005-.033.323-.211.383-.241.152-.08.258-.134.336-.158a.833.833 0 0 1 .336-.004l-.065-.222c-.089-.307.14-.608.362-.897l.02-.025c.12-.158.3-.514.3-.514s.352.095.467.116c.07.014.145.028.222.045.147.024.268.06.371.102l.004-.205a.728.728 0 0 0-.25-.405c-.175-.125-.32-.14-.429-.106l.036.006c.086.02.207.086.211.2-.004.219-.199.272-.326.249-.047-.011-.21-.068-.203-.236a.289.289 0 0 1 .097-.18l-.05.005a.442.442 0 0 0-.19.059.163.163 0 0 0-.062.064.19.19 0 0 0-.01.088c.002.015.01.032.021.047.012.015.054.046.082.033a.093.093 0 0 0 .052-.082c.002-.032-.03-.062-.055-.068l.01-.007c.017.004.062.043.06.078a.097.097 0 0 1-.058.086c-.077.028-.124-.056-.128-.075a.21.21 0 0 1 .07-.191.488.488 0 0 1 .202-.077.82.82 0 0 1 .124-.01.54.54 0 0 1 .613.091c.078.076.142.15.181.235l.002.005a13.027 13.027 0 0 0-.012-.485.928.928 0 0 1-.093-.124.673.673 0 0 1-.509.154c-.265-.054-.729-.565-.729-.565s.135-.197.19-.361a.6.6 0 0 1 .073-.15.63.63 0 0 1-.176-.174 6.783 6.783 0 0 1-.265-.481l-.075-.151s.344-.068.627-.213c.072-.04.228-.108.322-.106a.387.387 0 0 1-.028-.154c.003-.227.065-.363.2-.534a7.257 7.257 0 0 1-.04-.14 1.425 1.425 0 0 0-.28-.212c-.138-.08-.223-.064-.298-.044-.002 0 .25.002.31.334.007.053.008.253-.182.31a.374.374 0 0 1-.469-.225c-.03-.063-.046-.216.036-.315-.323.087-.363.279-.372.335-.023.122.101.37.27.23.038-.046.04-.114.017-.174-.017-.054-.084-.085-.128-.08l.012-.017c.03-.004.13.034.148.09.026.066.036.152-.02.216-.134.126-.27-.001-.3-.066-.036-.076-.09-.191.023-.374a.543.543 0 0 1 .251-.191.98.98 0 0 1 .155-.055.396.396 0 0 1 .25-.131c.224-.034.435.104.512.16a11.356 11.356 0 0 0-.167-.49c-.093.123-.222.256-.343.289-.142.04-.332-.017-.416-.058a1.615 1.615 0 0 0-.454-.103l-.044-.427a.48.48 0 0 1 .001-.157.76.76 0 0 1-.24-.087c-.144-.083-.427-.291-.438-.3l-.158-.115s.31-.136.403-.251c.037-.044.095-.12.15-.175a.316.316 0 0 1 .198-.106c-.045-.042-.319-.298-.108-.744.187-.395.595-.663.595-.663s-.007.19.195.31c.253.148.76.317.76.317.08.03.122.2.156.244.048-.035.123-.192.213-.205.042-.006.091-.01.142-.011.162-.006.661.16.661.16s-.038.048-.084.15c-.012.129.156.39.18.605.02.189-.208.344-.357.447.037.022.177.108.222.14.245.179.377.535.377.535a1.04 1.04 0 0 0-.554.087c-.114.078-.273.203-.555.225a.692.692 0 0 1-.185-.01c.058.17.113.34.165.51.286-.258.827-.517.846-.528 0 0 .004.21.085.353.033.069.702.714.702.714.088.073.093.16.102.233.095-.033.281-.051.397-.034.007 0 .508.058.751.349-.069.065-.084.103-.204.712-.027.14-.054.288-.1.413-.073.197-.267.342-.634.403.028.042.173.296.21.572.043.326-.123.535-.123.535s-.252-.205-.416-.27c-.149-.063-.302-.034-.302-.034-.196.023-.412.03-.682-.07-.038-.012-.072-.03-.105-.045.007.268.008.539 0 .81a.697.697 0 0 1 .241.263c.171-.05.452-.065.721-.073.086-.003.204-.007.235-.013.202-.027.341-.181.341-.181s.178.373.196.765c.012.725-.406 1.255-.402 1.292.002.025.383.348.663.602l.118.108-.14.103c-.019.013-.45.324-.95.348a2.118 2.118 0 0 1-1.352-.394c-.037.05-.089.115-.155.187-.049.168-.1.335-.156.502.26-.072.618-.12 1.112-.104.147.002.29.007.424.01.231.01 1.047-.03 1.047-.03s-.204.584-.174 1.149c.031.566.08.984-.139 1.388-.185.348-.773.669-.773.669.6.063 1.55 1.412 1.55 1.412-.47.746-2.167.438-2.298.473 0 0-.383-.014-.489.244-.085.224-.075.6-.075.6s-.812-.184-1.16-.441c-.686-.492-.723-1.418-.778-1.475-.02-.02-.136-.026-.303-.048-.264.345-.545.68-.845 1.008.603-.184.906-.428.906-.428s.663.728.701 1.034c.05.397-.298.797-.37.926-.002.003.242-.005.52.148.275.153.767.68 1.283.958.204.109.945.379.945.379s-.977 1.304-1.586 1.656c-.598.346-1.106.012-1.2-.094.051.087.154.415.092.855-.077.757.084 1.224.084 1.224s-1.55 0-1.955-.24a.963.963 0 0 1-.49-.546c-.047.087-.252.23-.455.29-.512.152-.825.467-.825.467-.05-.077-.24-.44-.39-.56-.074-.057-.306-.215-.35-.25a.916.916 0 0 1-.312-.572c-.044-.31.25-.84.491-1.065a1.084 1.084 0 0 1-.344-.183 1.447 1.447 0 0 1-.454-.662 1.83 1.83 0 0 1-.079-.28c-.086.052-.173.103-.26.153a.893.893 0 0 1 .068.125c.101.232.213.613.405.669 0 0-.39.225-.607.52-.135.184-.307.33-.499.435.074.01.15.024.226.045.19.054.32.119.464.29a.858.858 0 0 1 .191.437c.081.1.145.21.194.322.03.092.048.17.046.266a.558.558 0 0 1-.1.29c-.018.023-.1.099-.123.116a.5.5 0 0 1-.38.09l.013-.063a.362.362 0 0 0 .178-.013.452.452 0 0 0 .136-.073.43.43 0 0 0 .102-.102.473.473 0 0 0 .078-.256.44.44 0 0 0-.057-.222 1.296 1.296 0 0 0-.09-.157c-.049.22-.12.345-.312.446-.104.058-.517.15-.786-.12-.169-.21-.149-.57.03-.72a.679.679 0 0 1 .286-.155.627.627 0 0 1 .37.027.856.856 0 0 1 .231.134.586.586 0 0 0-.09-.154c-.169-.163-.276-.226-.438-.266a1.662 1.662 0 0 0-.47-.034l-.076.023a1.52 1.52 0 0 1-.719.002c-.002-.001.104.302.137.553.055.42.435 1.016.435 1.016s-.503-.046-.878-.064c-.375-.018-.605.15-.959-.058a1.516 1.516 0 0 1-.378-.372c-.14.446-.5.489-.549.494-.236.034-.827 0-.827 0s-.03-.004.031-.32c.045-.227-.129-.27-.256-.432-.167-.226-.27-.333-.215-.6.008-.043.021-.087.035-.13-.418.09-.722.158-1.148.22 0 0 .39-.366.395-.367.002 0 .58-.132.917-.214.052-.088.104-.162.147-.218v-.004c-.025-.05-.136-.268-.27-.511a2.003 2.003 0 0 1-.218-.791c-.02-.23.062-.502.153-.655.035-.06.092-.134.182-.25a6.72 6.72 0 0 0 .332-.476l.267.03c.037.024.023-.01.197.069.214.095.326.306.393.444.208-.3.774-.524.774-.524.363-.17 1.431-.22 1.431-.22s-.07.112.055.42c.1.243.053.47.033.618.1-.021.666-.15.912-.08a.814.814 0 0 1 .282.159c.168-.264.285-.637.183-.874a.718.718 0 0 0-.23-.263.91.91 0 0 1-.188.576c-.169.2-.344.189-.429.167-.084-.022-.313-.118-.283-.396a.589.589 0 0 1 .3-.466c.084-.046.25-.098.53-.004-.047-.24-.236-.378-.358-.474 0 0 .252.073.365.338a.81.81 0 0 1 .05.16.83.83 0 0 1 .347.369c.083.179.027.442-.038.629-.035.1-.1.207-.17.307l.04.04c.144-.08.286-.162.427-.246.002-.228.047-.423.085-.582.043-.178.13-1.212.13-1.212.032-.002.523-.056 1.105.192.181.077.318.149.421.21.071-.383.22-1.01.678-1.138.215-.061.503.002.748-.034.052-.008.103-.017.153-.027.042-.041.084-.084.125-.127.081-.17.15-.35.171-.531.016-.154-.005-.27-.094-.48a.671.671 0 0 0-.109-.147c.02.07.025.13.027.223a.573.573 0 0 1-.278.519c-.187.092-.49.025-.622-.232-.148-.338.028-.654.111-.72.157-.13.294-.137.52-.084l.03.013a.752.752 0 0 0-.32-.311c-.26-.125-.393.003-.429.023a.608.608 0 0 0-.14.239l-.022-.005a.45.45 0 0 1 .18-.307c.146-.088.322-.052.407-.021.07.03.271.17.431.443a.98.98 0 0 1 .302.343c.102.189.122.453.06.793.241-.264.472-.537.692-.817a1.83 1.83 0 0 1-.756-.362zm-.505.898c.367-.214.225-.618.196-.697a.966.966 0 0 0-.025-.067c-.14-.1-.325-.161-.507-.043-.102.073-.209.239-.176.48.021.224.231.407.512.327zm-3.905 2.709c.086-.222.101-.392.077-.53a.484.484 0 0 0-.53.085c-.11.069-.339.586.074.667.063.01.247.025.38-.222zm.482 4.074a.488.488 0 0 0 .217-.487 1.251 1.251 0 0 0-.103-.103.743.743 0 0 0-.237-.14.455.455 0 0 0-.488.118c-.218.26-.068.53.078.607.148.08.408.084.533.005zm.278-2.264c-.042-.14-.185-.401-.225-.5-.062-.155-.35-.594-.684-.622-.447-.033-.815.103-.82.104-.018.003-.207.044-.152-.19.017-.117.058-.39-.026-.61-.062-.164-.057-.142-.069-.261-.068.05-.725.019-1.203.225-.03.016-.462.168-.678.46-.065.126-.19.292-.263.046a.866.866 0 0 0-.686-.547c-.049.093-.489.546-.535.997-.1.992.576 1.458.578 1.46 0 0-.398.508-.463.813-.028.129.018.274.243.506.382.375.216.617.235.67.084-.032.23.039.443-.001.162-.02.437-.06.572-.473.008-.028.11-.362.201-.19.105.216.208.29.375.419.221.169.575.026.786.039.14.009.526.024.592.045-.085-.136-.21-.338-.252-.51-.04-.168-.193-.88-.103-.984.113-.12.545.129 1.033-.031.494-.162.77-.721 1.101-.865zm4.713-4.166s-.708.434-1.318.478c-.254.019-.724.018-.923.095-.339.13-.496.894-.51 1.226 0 0-.442-.224-.852-.407-.25-.112-.429-.118-.684-.141.052.078-.024.615-.08.843-.074.298-.159.638.004 1.108.091.258.222.457.391.592a.766.766 0 0 0 .432.177l.252.03-.147.263c-.248.342-.607.95-.582 1.156a.454.454 0 0 0 .192.34c.043.036.288.205.371.27.174.14.258.286.333.44.161-.127.38-.191.71-.327.375-.155.64-.462.64-.462 0 .005-.017.587.485.767.31.112 1.533.225 1.533.225s.205-1.537-.214-2.114c-.115-.185.033-.29.223-.13.122.104.502.376.846.346.852-.077 1.34-1.292 1.641-1.476-.125.016-.924-.314-1.4-.815-.61-.64-1.318-.625-1.318-.625s.42-.593.462-.817c.095-.481-.318-.907-.487-1.042zm1.407-12.361c-.089-.037-.195-.03-.205-.03a.3.3 0 0 0-.102.306c.021.083.106.15.197.173.09.024.202.01.244-.07.054-.101.007-.232-.019-.277a.239.239 0 0 0-.115-.102zm.355 3.369a.508.508 0 0 0-.094-.014c-.082.053-.13.132-.137.187-.007.199.195.213.284.184a.207.207 0 0 0 .14-.19c-.003-.057-.039-.127-.193-.167zm-.092-4.185s.281.193.56.224c.207.01.34-.083.456-.154.102-.063.374-.111.364-.15 0-.226-.56-.545-.56-.545.182-.07.487-.293.468-.4-.017-.087-.056-.196-.093-.3-.063-.177-.116-.326-.099-.438-.055-.011-.323-.081-.356-.078-.115-.012-.23.039-.275.099a3.096 3.096 0 0 0-.103.149c-.136-.015-.216-.09-.237-.221-.01-.06-.015-.061-.035-.07 0 0-.629-.181-.992-.471-.014-.012-.026-.026-.038-.04a1.338 1.338 0 0 0-.244.32c-.119.252-.172.373-.098.53.027.058.353.438.353.438s-.272-.066-.512.063c-.128.1-.309.302-.447.34.111.084.252.18.346.238.176.092.418.11.418.11s.056.488.018.64c.073.012.356.157.544.156.19-.001.562-.44.562-.44zm.718 3.578s.047.335.468.503c.232.092.847-.087 1.263.2.1-.382-.255-.904-.255-.904s.57-.12.75-.376c.156-.27.132-.808.245-1.022-.21-.145-.602-.254-.825-.162-.112.045-.19.096-.268.079-.11-.023-.139-.115-.055-.338.028-.073-.052-.145-.052-.145-.46-.415-.73-.522-.762-.854-.012-.032-.783.399-.916.883-.068.278.011.51.011.51s-.104-.052-.399.042c-.114.029-.542.192-.574.197.21.515.481.643.486.643 0 0-.113.19-.162.322-.04.107-.024.193-.06.259.058.037.273.28.47.329.336.096.635-.166.635-.166zm-1.698 4.44c.823.439 1.351-.092 1.41-.174.091-.102.167-.21.148-.245-.02-.037-.245.167-.41.25-.337.17-.865.169-.903.174-.038.005-.052-.021-.013-.028.081-.015.285-.014.441-.056.026-.006-.1-.088-.14-.121-.012-.01-.008-.035.012-.023.02.012.162.126.277.108.156-.034.255-.075.333-.122.283-.163.35-.263.343-.316-.006-.053-.198-.336-.496-.466-.146-.063-.216-.093-.365-.067-.058.01-.426.254-.426.254s-.017.003-.024-.013c-.008-.016.01-.022.01-.022l.285-.195s-.218.017-.322-.007a3.318 3.318 0 0 1-.526-.171c-.096-.047-.049-.07-.02-.06.046.018.41.16.534.18.096.017.294 0 .402-.017a.833.833 0 0 1 .364.019c.012.003-.032-.082-.072-.162-.035-.072-.162-.166-.123-.138-.022-.024.008-.033.03-.018.034.025.098.11.126.155.058.09.13.194.177.208.152.048.45.427.477.404.03-.023.015-.195.047-.315.03-.105.082-.308.091-.476.016-.28-.106-.428-.182-.61-.01-.023-.156-.067-.154-.076.01-.024.137.02.125-.001-.143-.32-.353-.422-.353-.422s.002-.031.024-.017c.234.152.511.528.582 1 .005.032.306-.24.306-.24s.054.004.035.027c-.094.113-.315.283-.315.31.006.186-.07.413-.103.52-.082.376.062.393.062.393.002 0 .094.015.26-.126.21-.18.474-.55.61-.747.01-.016-.068-.412-.072-.428-.042-.146.033-.101.045-.025.004.025.027.428.117.34l.354-.53s.015-.017.024-.003c.008.012.005.027.005.027s-.474.755-.788 1.148c-.016.018.365.034.387.04.041.013.015.032-.005.038-.076.023-.417-.028-.432-.014-.048.048-.305.31-.368.334.156.076.438.192.761.24.021.004.185-.111.255-.142.014-.007.024.009.027.008.026-.007-.228.145-.197.149.16.02.441.004.584.01.042.003-.015.026-.015.026s-.456.02-.753-.028c-.249-.041-.706-.237-.743-.162-.036.074.763.482 1.17.467.472-.012.732-.253.794-.342-.202-.206-.577-.471-.584-.657.087-.2.338-.715.372-.97a1.696 1.696 0 0 0-.08-.785 3.046 3.046 0 0 1-.382.03c-.656-.011-.91.183-.91.183s-.019-.498-1.326-.79c-.033.097-.05.16-.206.348 0 0-.5.468-.39.873 0 0 .15.456.004.492-.147.039-.288-.051-.522.006-.055.017-.442.213-.482.233.373.502.864.715.88.747 0 0-.142.422-.088.587zm-1.416 2.852c-.084.057-.47.215-.694.305.067.152.193.395.38.549a1.6 1.6 0 0 0 1.223.352c.014-.006.053-.062.014-.076-.286-.103-.667-.256-.89-.41l-.29-.202c-.017-.02.004-.033.033-.014.113.068.294.208.435.276.025.013-.102-.263-.085-.24.004.005.002-.04.026.003.047.083.134.278.15.286.242.109.511.197.703.234.046.009.104-.012.09-.092-.009-.045-.064-.423-.08-.504a5.286 5.286 0 0 1-.078-.863c0-.033-.308-.336-.308-.368 0-.033.304.286.304.253-.004-.297-.032-.734-.03-.912.002-.096.034-.027.034-.027l.032.798c.002.009.05.953.182 1.409.076.26.077.296.134.297.058.002.185-.012.291-.335.04-.148.166-.508.303-.736.021-.035-.123-.411-.149-.61-.004-.04.046.01.046.01s.158.524.185.486c.123-.163.256-.307.393-.434.023-.023.001-.526.06-.54.024-.005-.008.486.01.47.38-.315.843-.541 1.181-.592 0 0 .08.034.01.058-.143.05-.528.138-.82.348-.034.024.236.06.227.1-.003.016-.276-.058-.373-.006-.3.206-.544.504-.734.873a2.68 2.68 0 0 0-.209.552c-.022.084-.117.249-.153.33.211-.06.573-.174.793-.128.07.015.244-.067.393-.141a.856.856 0 0 1 .33-.07c.006 0 .066.036.01.048-.06.015-.247.042-.305.078-.12.076-.238.12-.222.125.21.058.396.162.537.278.132.108.29.26.444.319.208.08 1.028.205 1.128.225.151.03.082.06-.004.042-.085-.018-.64-.066-1.159-.23-.17-.053-.426-.24-.426-.24l.252.504s.03.032-.017.036c-.047.005-.053-.036-.053-.036s-.235-.516-.305-.571a1.19 1.19 0 0 0-.616-.283c-.373-.045-.858.192-.864.199h-.002c-.012.076.005.205.187.593.052.109.118.189.321.217.014.02.496.025.6.04.052.009.03.057.03.057s-.564-.027-.533.009c.155.178.362.198.446.28.038.038-.053.039-.052.04l-.448-.254c-.03-.025-.3-.087-.422-.311-.103-.184-.112-.358-.238-.474-.02-.02-.046.006-.038.039.014.057.02.12.025.194.01.13.023.308.084.535.097.376.353.576.636.769.148.1.511.213.73.282.033-.097-.078-.51.35-.762.311-.19 1.81.18 2.354-.356-.213-.188-.53-.603-.619-.687-.547-.55-1.182-.546-1.182-.546l.98-.793c.361-.295.336-.913.287-1.517l-.005-.064a1.882 1.882 0 0 1 .104-.771c-.17.003-.369-.005-.6-.015-.144-.005-.297-.012-.454-.016-.424-.008-1.158-.024-1.484.26-.086.077-.268.215-.313.416-.052.16-.169.172-.18.014-.017-.095-.115-.416-.847-.63-.238-.073-.293-.26-.31-.275-.208.277-.447.788-.485.93-.126.46-.17.967-.158 1.053.014.087.055.404-.233.56z"/></g><g><path fill="#fff" d="M48.093 32.496l-1.988 1.851-1.987-1.852 1.987-1.85zm-1.988 1.47l1.58-1.47-1.58-1.47-1.578 1.47z"/></g><g><path fill="#fff" d="M48.398 33.37c-.322.003-.592-.018-.896-.035-.08.083-.176.164-.256.247.381.016 1.16.055 1.16.055z"/></g><g><path fill="#fff" d="M28.055 17.486c-.222-.558-.244-.591-.33-.635.225-.351.77-.544.778-.548.124-.048.334-.082.443-.075-.002-.074-.009-.161.077-.256 0 0 .644-.812.67-.89.068-.158.041-.365.041-.365.027.006.795.129 1.112.332.107.068.191.127.258.186.052-.173.108-.347.167-.52a.672.672 0 0 1-.176.008c-.282-.022-.44-.147-.554-.224a1.025 1.025 0 0 0-.554-.087s.132-.357.377-.536c.045-.032.184-.118.221-.141-.149-.102-.377-.257-.356-.446.024-.215.192-.475.18-.605-.047-.102-.084-.15-.084-.15s.5-.166.66-.16c.051 0 .1.005.142.012.09.013.165.17.213.204.034-.044.076-.214.158-.244 0 0 .505-.168.76-.318.2-.118.194-.31.194-.31s.407.268.594.664c.211.446-.064.702-.108.744a.316.316 0 0 1 .198.106c.055.057.114.13.15.176.093.115.402.25.402.25l-.156.115c-.013.009-.295.217-.439.3a.769.769 0 0 1-.24.087c.008.045.01.097.001.156l-.045.428c-.052 0-.33.042-.453.103-.085.04-.273.098-.417.059-.123-.034-.254-.172-.347-.296-.09.247-.172.497-.247.748.101-.131.271-.317.452-.36a.405.405 0 0 1 .29.029c.057-.008.114-.011.17-.008.107.005.22.017.311.085.176.128.163.259.156.345-.005.073-.093.245-.266.177-.079-.038-.1-.122-.098-.195 0-.062.081-.136.111-.144l.018.012c-.045.013-.099.067-.096.125 0 .066.025.13.08.159.212.067.245-.216.18-.322-.03-.05-.136-.216-.48-.174.114.062.152.213.146.284-.03.346-.267.397-.356.396-.206-.003-.298-.154-.306-.227-.06-.337.201-.451.2-.451a.434.434 0 0 0-.292.173c-.11.137-.186.273-.248.433a.446.446 0 0 1-.013.088.99.99 0 0 1 .371.015c.335.06.725.032.725.032l-.06.167a6.871 6.871 0 0 1-.223.542.806.806 0 0 1-.169.218.466.466 0 0 1 .105.126c.083.144.26.297.26.297s-.436.627-.72.752c-.189.083-.474.053-.583-.01a1.19 1.19 0 0 1-.143.224c-.007.123-.013.247-.017.37.054-.09.125-.183.223-.272a.95.95 0 0 1 .57-.23.766.766 0 0 1 .44.093c.073 0 .144.008.211.02.123.023.235.06.33.125a.32.32 0 0 1 .114.3c-.009.059-.08.16-.203.114a.154.154 0 0 1-.098-.137c-.003-.051.07-.112.097-.118l.016.01c-.04.01-.09.057-.087.105.002.055.034.1.083.12.046.02.151-.032.166-.11a.295.295 0 0 0-.117-.242.77.77 0 0 0-.307-.097l-.11-.013c.096.095.134.21.138.282a.364.364 0 0 1-.303.386c-.205.033-.482-.044-.49-.401.003-.188.188-.29.326-.32l.041-.007c-.182-.063-.426-.053-.712.147-.226.222-.299.362-.332.509.16-.048.418-.134.418-.134s.22.376.362.54l.022.026c.262.3.53.612.453.954l-.054.245a.923.923 0 0 1 .365-.017c.086.02.205.073.377.149.066.029.425.202.432.238.014.06-.844.934-.893 1.064-.049.13.168.607.168.607l-.105.055c-.042.023-.424.225-.683.257a2.11 2.11 0 0 1-.227.019c.086.254.18.504.281.752.155-.125.365-.262.603-.348.1-.04.223-.083.251-.105.106-.085.162-.41.162-.41l.23.269c.008.01.21.25.441.747.047.102.091.23.131.38.101.385.17.918.14 1.09-.015.096.05.167.083.19.054.038.821.404.821.404s-.07.488-.533.868a1.595 1.595 0 0 1-.348.22c.148.183.255.316.413.49.002-.233.05-.418.14-.554a.933.933 0 0 1 .32-.296c.178-.244.383-.358.452-.38.084-.021.254-.04.385.059a.437.437 0 0 1 .142.309l-.023.003a.56.56 0 0 0-.109-.24c-.033-.023-.147-.16-.406-.064a.719.719 0 0 0-.333.266l.03-.01c.22-.03.348-.01.485.13.072.07.21.387.036.694-.149.232-.444.267-.612.16-.328-.21-.228-.583-.169-.727a.576.576 0 0 0-.118.129.934.934 0 0 0-.108.645c.1.108.247.26.35.366.054.01.108.02.165.028.245.037.533-.027.75.034.457.129.605.755.676 1.138.102-.061.24-.133.422-.21.581-.248 1.073-.194 1.105-.192 0 0 .087 1.033.13 1.212.038.16.084.356.084.586.117.069.236.138.355.205-.074-.18-.165-.415-.175-.573-.014-.196.002-.466.13-.615a.837.837 0 0 1 .433-.265.852.852 0 0 1 .09-.141c.18-.225.441-.23.441-.23-.142.062-.36.144-.47.364.296-.017.44.077.51.145a.578.578 0 0 1 .164.528c-.044.276-.29.308-.377.308-.087-.003-.26-.04-.37-.278a.907.907 0 0 1-.027-.602.717.717 0 0 0-.293.19c-.19.24-.08.857.062 1.162a.909.909 0 0 1 .355-.223c.246-.071.813.058.911.08-.018-.148-.064-.375.034-.618.126-.31.055-.42.055-.42s1.068.049 1.432.218c0 0 .565.226.773.525.067-.138.18-.35.393-.444.174-.08.161-.045.198-.068l.266-.031c.017.045.261.384.333.475.09.117.146.19.181.25.091.154.173.427.154.656a2.007 2.007 0 0 1-.219.79c-.134.244-.244.463-.269.51l-.002.006c.044.056.097.13.15.219.357.085.93.224.93.225.127.127.272.245.4.372-.444-.064-.732-.14-1.166-.236.013.043.025.085.034.129.056.268-.05.373-.216.6-.128.162-.3.206-.256.433.063.315.032.319.032.319s-.592.034-.828 0c-.047-.005-.409-.048-.548-.494a1.552 1.552 0 0 1-.378.372c-.355.209-.584.04-.959.058-.375.018-.879.064-.879.064s.38-.595.435-1.016c.033-.251.14-.554.137-.553a1.511 1.511 0 0 1-.72-.002 3.184 3.184 0 0 1-.157-.051 1.606 1.606 0 0 0-.389.036c-.162.04-.268.103-.437.268a.553.553 0 0 0-.09.154.811.811 0 0 1 .232-.136.62.62 0 0 1 .656.129c.178.149.2.51.03.72-.27.269-.683.178-.786.12-.192-.102-.264-.227-.314-.446a1.51 1.51 0 0 0-.089.157.43.43 0 0 0-.057.22.485.485 0 0 0 .078.258.4.4 0 0 0 .103.102.477.477 0 0 0 .134.073.356.356 0 0 0 .18.013l.013.062a.491.491 0 0 1-.38-.09.884.884 0 0 1-.122-.115.549.549 0 0 1-.102-.291.744.744 0 0 1 .045-.264c.051-.113.114-.221.195-.323a.866.866 0 0 1 .655-.727c.065-.02.13-.031.192-.04a1.522 1.522 0 0 1-.466-.415c-.215-.295-.606-.52-.606-.52.191-.056.304-.437.404-.67a.976.976 0 0 1 .067-.121l-.258-.152a1.82 1.82 0 0 1-.079.276 1.46 1.46 0 0 1-.453.662 1.099 1.099 0 0 1-.345.183c.242.225.536.756.492 1.065a.921.921 0 0 1-.312.572c-.045.035-.277.193-.349.25-.152.12-.342.483-.392.56 0 0-.312-.315-.825-.466-.203-.06-.408-.204-.454-.29a.962.962 0 0 1-.49.546c-.405.239-1.955.238-1.955.238s.161-.465.083-1.223c-.063-.441.041-.768.093-.856-.095.107-.603.44-1.2.095-.61-.352-1.587-1.656-1.587-1.656s.742-.27.946-.38c.515-.276 1.007-.804 1.283-.957.276-.153.521-.146.518-.148-.07-.13-.419-.53-.37-.926.038-.306.701-1.033.701-1.033s.3.239.893.423a15.119 15.119 0 0 1-.643-.752c-.378.117-.709.108-.745.144-.054.056-.09.982-.777 1.474-.349.256-1.16.443-1.16.443s.011-.378-.075-.602c-.106-.257-.49-.244-.49-.244-.13-.036-1.827.274-2.297-.473 0 0 .95-1.35 1.55-1.412 0 0-.589-.321-.772-.668-.22-.405-.17-.823-.14-1.39.03-.564-.175-1.148-.175-1.148s.818.039 1.047.032c.135-.005.28-.01.426-.012.865-.026 1.315.138 1.548.292-.079-.204-.152-.41-.22-.617a1.097 1.097 0 0 1-.462-.21c-.163-.127-.268-.247-.339-.328a2.31 2.31 0 0 1-1.447.517c-.547.007-1.036-.302-1.057-.315l-.16-.104.121-.124c.29-.296.682-.673.683-.7.002-.041-.489-.59-.524-1.382a2.489 2.489 0 0 1 .163-.845s.162.158.383.173c.036.005.165.002.258-.001.293-.007.601-.01.79.033.005-.018.168-.434.922-.61l.052-.014c.001-.152.005-.304.01-.455l-.04.028a1.852 1.852 0 0 1-.743.255s-.174.014-.329.118c-.17.107-.42.376-.42.376s-.213-.156-.213-.485a1.584 1.584 0 0 1 .147-.614c-.415.04-.65-.045-.76-.217a2.059 2.059 0 0 1-.172-.373zm10.103 15.887a1.252 1.252 0 0 0-.104.102.497.497 0 0 0 .218.488c.124.078.386.076.533-.006.147-.077.296-.347.078-.606a.456.456 0 0 0-.489-.12.741.741 0 0 0-.236.142zm.563-4.1c-.043.132-.049.305.006.536.1.262.285.27.347.269.421-.025.261-.567.162-.65a.489.489 0 0 0-.515-.154zm.217 1.355c-.328.027-.61.458-.672.61-.039.098-.178.353-.219.49.326.142.601.67 1.08.849.274.102.94-.045 1.012.03.088.102-.062.8-.1.968-.04.167-.165.365-.248.499.065-.021.443-.036.581-.045.207-.013.554.128.77-.038.164-.126.266-.2.37-.411.09-.17.188.159.196.186.133.405.402.445.561.465.21.039.352-.032.436 0 .017-.052-.146-.29.23-.657.22-.227.265-.37.238-.497-.064-.3-.454-.796-.454-.796.001-.003.666-.46.567-1.432-.045-.444-.478-.888-.525-.98a.847.847 0 0 0-.673.538c-.073.242-.195.077-.258-.045-.212-.287-.635-.436-.666-.451-.468-.202-1.113-.173-1.18-.221-.012.116-.007.094-.068.255-.082.216-.042.485-.025.6.054.229-.13.188-.149.186a2.132 2.132 0 0 0-.804-.103zm-4.337-3.95c-.035.075-.232.488.125.714.252.117.5-.055.543-.275.057-.237-.032-.413-.127-.494-.169-.137-.358-.094-.508-.01l-.033.065zm-.003 1.357c-.609-.044-1.316-.477-1.316-.477-.17.135-.582.56-.488 1.042.044.224.462.816.462.816s-.708-.015-1.317.625c-.476.5-1.275.832-1.4.816.302.184.788 1.398 1.64 1.475.343.03.724-.242.846-.345.191-.16.34-.055.223.129-.418.577-.213 2.115-.213 2.115s1.224-.114 1.532-.225c.501-.181.486-.763.486-.768 0 0 .264.308.64.462.328.136.55.2.71.327a1.16 1.16 0 0 1 .332-.44c.083-.064.371-.27.371-.27a.45.45 0 0 0 .192-.34c.026-.205-.334-.814-.58-1.155l-.15-.263s.79.093 1.075-.8c.152-.473.08-.81.005-1.107-.056-.228-.132-.766-.08-.844-.256.023-.433.03-.684.14-.41.184-.852.409-.852.409-.014-.333-.172-1.096-.51-1.227-.198-.077-.669-.076-.924-.095zm-2.596-9.825a.587.587 0 0 0-.108.016c-.246.058-.29.179-.293.27 0 .11.068.25.212.299.144.048.444.03.428-.28-.01-.09-.097-.22-.239-.305zm.008-3.061c-.01.004-.112.025-.2.115a.261.261 0 0 0-.076.14c-.01.053-.009.195.081.27.07.06.2.053.28-.005a.317.317 0 0 0 .127-.263.308.308 0 0 0-.212-.257zm-.469 8.796c-.045-.2-.228-.338-.314-.415-.324-.284-1.059-.27-1.483-.26-.156.003-.884.034-1.055.03.143.347.1.836.1.836-.049.603-.074 1.22.288 1.516l.98.792s-.636-.004-1.183.547c-.089.084-.406.499-.619.687.544.538 2.043.167 2.354.356.43.253.317.665.35.763.22-.07.582-.182.73-.282.283-.194.538-.393.637-.77.06-.226.073-.404.083-.534.006-.073.011-.138.025-.194.008-.035-.017-.06-.038-.04-.126.117-.333.053-.434.237-.123.224-.177.259-.206.284l-.468.519c0-.001-.088-.003-.052-.04.084-.082.243-.268.397-.446.031-.036-.484.156-.484.156s-.02-.047.031-.056c.103-.016.35-.158.364-.178.202-.028.307-.21.358-.316.1-.201.472-.218.483-.302.01-.083-.59-.298-.964-.253-.232.027-.44.136-.617.282-.035.029-.063.16-.132.299-.066.132-.178.314-.225.309-.048-.004-.017-.036-.017-.036l.191-.262s.145-.234.076-.28c-.049-.032-.378.016-.536.046-.519.163-.98.444-1.065.46-.04.01-.084-.025-.003-.041.046-.01.236-.126.447-.221.24-.111.507-.204.617-.246.154-.06.402-.004.541-.077.142-.117.294-.22.504-.278.016-.004-.103-.05-.223-.124-.056-.036-.243-.063-.304-.078-.056-.013.003-.047.011-.048a.845.845 0 0 1 .328.069c.151.075.324.156.394.142.22-.047.582.068.793.128-.035-.082-.13-.247-.153-.33a2.76 2.76 0 0 0-.208-.554c-.19-.367-.434-.666-.735-.871-.097-.053-.37.022-.374.006-.009-.04.262-.076.23-.101-.294-.21-.679-.297-.823-.347-.069-.025.011-.058.011-.058.338.05.801.277 1.181.592.018.016-.014-.476.01-.471.058.015.037.518.06.54.138.127.27.272.393.435.028.037.184-.486.184-.486s.051-.05.046-.01c-.024.199-.17.575-.148.61.137.228.263.588.303.735.107.324.233.336.291.335.057-.001.058-.037.134-.296.132-.456.181-1.4.182-1.41l.032-.797s.032-.07.033.026c.003.179-.025.616-.029.912 0 .034.305-.286.305-.252 0 .03-.308.335-.309.366-.008.349-.038.67-.077.865-.017.08-.072.459-.08.503-.016.08.043.102.09.093.19-.037.46-.125.702-.234.016-.008.102-.203.15-.286.024-.043.022.002.026-.004.017-.023-.11.254-.084.24.14-.067.322-.207.433-.276.03-.018.052-.006.034.014l-.29.202c-.223.155-.603.308-.89.41-.039.014.001.07.014.077.128.019.708.076 1.224-.352.186-.154.313-.397.38-.551-.226-.09-.61-.247-.694-.303-.288-.157-.248-.474-.235-.56.014-.086-.03-.594-.156-1.053a4.163 4.163 0 0 0-.486-.931c-.017.016-.072.203-.31.277-.732.213-.83.533-.848.629-.009.157-.127.146-.179-.015zm-.405-5.095c-1.406.405-1.392.948-1.392.948s-.29-.194-1.004-.14c-.193.01-.4-.003-.418-.007a1.838 1.838 0 0 0-.035.86c.054.276.361.82.47 1.033.004.202-.387.516-.594.753.073.095.373.339.89.32.442-.01 1.286-.508 1.241-.586-.045-.08-.53.165-.799.226-.32.073-.818.08-.818.08s-.063-.022-.018-.026c.155-.017.464-.018.637-.05.031-.007-.255-.156-.226-.15.004.002.014-.017.028-.01.08.029.265.144.288.139.35-.075.648-.22.813-.312-.069-.023-.368-.292-.423-.34-.016-.015-.385.063-.47.044-.022-.006-.05-.025-.006-.041.022-.01.435-.051.418-.07-.369-.407-.935-1.198-.935-1.198s-.004-.015.004-.031c.01-.015.026.002.026.002l.421.555c.103.09.103-.351.105-.378.007-.084.087-.138.05.024-.003.018-.062.453-.048.47.16.208.472.593.712.774.191.143.264.132.266.132 0 0 .182-.04.067-.444-.04-.114-.142-.387-.149-.59 0-.03-.25-.17-.36-.287-.023-.023.036-.031.036-.031s.32.27.323.236c.047-.52.422-1.28.667-1.462.023-.017.028.018.028.018s-.34.355-.473.82c-.01.024.167-.032.178-.007.003.01-.19.07-.2.099-.07.2-.155.369-.12.672.021.182.09.399.13.51.043.13.026.355.06.378.031.023.342-.445.506-.508.051-.02.122-.136.178-.238a.85.85 0 0 1 .13-.178c.022-.017.053-.01.031.019.042-.034-.09.077-.125.157-.038.09-.08.186-.068.183a.907.907 0 0 1 .396-.046c.12.014.335.018.438-.006.136-.031.522-.211.572-.232.03-.013.083.008-.019.066a3.68 3.68 0 0 1-.562.22c-.11.033-.35.03-.35.03l.324.193s.02.005.013.024c-.008.017-.027.015-.027.015s-.417-.242-.479-.248c-.166-.018-.24.019-.395.096-.315.162-.524.504-.527.563-.003.058.094.14.412.299.09.047.2.084.371.112.127.01.273-.122.295-.137.02-.014.026.014.016.024-.04.04-.175.137-.145.142.172.036.394.02.482.03.043.007.031.035-.01.034-.042-.002-.618.032-.995-.13-.187-.08-.446-.286-.464-.246-.019.04.071.152.176.256.071.086.681.629 1.548.099.048-.184-.133-.635-.133-.635.014-.035.535-.3.908-.871-.045-.02-.48-.208-.54-.222-.259-.045-.408.06-.57.028-.162-.03-.028-.536-.028-.536.094-.45-.482-.925-.482-.925-.182-.193-.205-.262-.247-.365zm-.084-4.244c.28-.033.56-.225.56-.225s.372.438.561.439c.188 0 .47-.144.544-.154-.038-.153.018-.641.02-.641 0 0 .24-.018.417-.11.094-.057.234-.155.346-.238-.14-.04-.32-.24-.448-.341-.24-.128-.512-.063-.512-.063s.326-.38.352-.436c.076-.16.022-.28-.096-.531a1.365 1.365 0 0 0-.245-.32.348.348 0 0 1-.038.039c-.364.29-.992.472-.992.472-.019.008-.024.01-.034.069-.02.132-.1.207-.238.22 0 0-.059-.09-.103-.148-.045-.06-.16-.11-.274-.1-.034-.002-.302.069-.357.079.017.114-.036.26-.098.438-.037.104-.076.213-.093.3-.02.107.285.33.467.4 0 0-.56.319-.56.546-.01.038.262.087.364.149.117.073.25.166.457.156zm-2.228 1.855c-.26-.026-.677.187-.887.386.157.176.21.708.423.926.235.199.882.157.882.157.001 0-.315.606-.147.95.416-.396 1.121-.392 1.363-.545.44-.28.442-.62.442-.62s.368.173.73-.014c.207-.1.407-.397.466-.45-.049-.054-.044-.142-.104-.234-.074-.115-.227-.268-.227-.268.006-.002.287-.202.442-.76-.036.004-.532-.035-.663-.032-.339-.01-.446.07-.446.07s.053-.25-.064-.5c-.219-.433-1.133-.638-1.14-.603.013.33-.268.51-.716 1.04 0 0-.077.093-.036.157.126.193.108.289-.01.343-.084.037-.178.01-.308-.003z"/></g><g><path fill="#fff" d="M28.719 16.977c.104.009.279.148.57.14.125-.013.28-.07.28-.07l-.244.314s-.017.016-.005.024c.01.008.024-.005.024-.005s.276-.356.326-.378c.128-.057.22-.043.34-.002.319.12.675.332.663.404-.011.072-.158-.01-.433.306-.063.072-.167.15-.26.22-.021.018-.243-.032-.243-.032s-.057.015-.024.02c.138.034.212.058.17.08-.13.09-.377.21-.453.253-.045.027.01.018.01.018l.394-.191c.026-.012.272-.158.41-.3a.865.865 0 0 1 .59-.231c.133.006.513-.132.743-.216a.998.998 0 0 0 .283-.138c.01-.011-.006-.015-.022-.006a1.23 1.23 0 0 1-.384.137c-.011 0 .098-.11.135-.158.018-.024-.017-.012-.022-.008-.011.009-.162.174-.18.175-.214.016-.514.159-.516.113-.001-.046.079-.132.143-.23.028-.045.47-.703.555-.783.085-.08.289-.205.289-.205s.019-.015.013-.026c-.006-.012-.022-.003-.022-.003s-.27.176-.302.173c-.032-.005-.021-.163-.042-.134-.01.012-.015.196-.027.215-.116.163-.358.516-.501.736-.113.175-.154.185-.155.186 0 0-.033.008-.055-.024-.027-.145.036-.407.033-.534a3.519 3.519 0 0 0-.051-.504c-.007-.028.094-.295.13-.423.018-.06-.005-.048-.008-.036-.025.094-.143.412-.155.38-.158-.444-.421-.775-.628-.865-.005-.002-.027-.008-.031 0-.003.009.02.023.015.02 0 0 .209.125.369.342.01.017-.403-.067-.404-.042-.001.025.12.027.136.03.034.008.257.033.304.086.093.154.177.367.23.643.033.168.027.282.03.396.002.067-.05.364-.052.434-.094-.103-.505-.291-.626-.315-.04-.007-.091-.125-.14-.212a.354.354 0 0 0-.131-.122c-.004-.001-.031.008-.016.023.025.023.078.042.123.113.034.079.068.156.059.155a.676.676 0 0 0-.338.056c-.094.04-.198.113-.337.113-.118.002-.467-.124-.514-.134-.133-.032-.23.01-.23.01l-.006.02.017.009s.069-.027.173-.017z"/></g><g><path fill="#fff" d="M28.913 21.125l.028-.028a.163.163 0 0 0-.028.028z"/></g><g><path fill="#fff" d="M34.188 29.112c.034.122.034.39.004.53-.032.152.319.342.37.532.005.016-.155-.059-.304-.127-.132-.06-.222-.216-.246-.183-.023.032.114.153.24.226.165.092.36.208.383.273.077.21.459.512.69.703-.136-.01-.421-.05-.544-.046a4.55 4.55 0 0 1-.733-.04 4.248 4.248 0 0 1-1.224-.324c-.04-.018-.225-.41-.24-.408-.04.005.134.401.102.384-.466-.19-1.016.176-1.078.218-.101.068-.211.205-.173.21.215.02.365-.875 2.187-.01.06.014-.35.263-.497.314-.014.005.013.04.065.018.172-.068.612-.283.67-.272.338.063.7.032.913.026.234-.007.818.034.87.096.053.063.02.29-.34.38-.425.108-.87.413-1.103.788-.024.035-.27.008-.29.042-.018.033.265.026.243.054-.227.281-.389.755-.425.94-.012.061.053-.003.053-.003s.358-1.339 1.316-1.608c.108-.03.216-.09.296-.133.178-.092.292-.174.352-.248.144-.103.26.69.32 1.136.005.035-.289.356-.304.376-.005.008.008.06.036.041.085-.053.282-.246.284-.217.027.28-.039.676-.047.753-.008.076.02.118.041.006.02-.115.078-.483.078-.483.065-.572-.099-1.453-.166-1.71-.09-.337.27-.39.521-.622.278-.302.352-1.052.297-1.165-.055-.112-.228-.297-.228-.297 0 .001-.03 0-.003.043.08.135.275.466.131.71-.02.034-.419-.119-.577-.168-.049-.015-.016.03-.016.03s.534.266.51.3c.022.198-.169.42-.29.515-.428.337-.466.418-.588.432-.002 0-.704-.178-1.006-.824-.096-.207-.504-.49-.462-.684.007-.036.084-.172.167-.27.096-.11.254-.236.254-.236s.01-.01 0-.023-.023-.004-.023-.004-.149.112-.247.217c-.096.106-.166.221-.166.221s.04-.279-.014-.409c-.15-.37-.514-.772-.516-.812 0 0-.065-.107-.08-.08-.017.026.011.041.108.2.035.055.381.534.428.692z"/></g><g><path fill="#fff" d="M31.87 14.343c.092.1.286.207.305.212l.29.093c-.002 0 .05-.004-.002-.03-.053-.023-.235-.056-.33-.133-.022-.012.164-.094.164-.094s-.016-.038-.033-.02c-.056.067-.194.078-.204.072-.066-.045-.14-.092-.179-.144-.142-.185-.154-.282-.118-.32.045-.064.253-.275.44-.345a.353.353 0 0 1 .28-.007c.034.013.186.232.186.232s.014.015.023.002c.01-.012-.007-.027-.007-.027l-.144-.201s.125.035.2.023c.092-.016.063-.021.063-.021s-.006-.011-.056-.007a.516.516 0 0 1-.216-.042.475.475 0 0 0-.26-.036c-.007 0 .04-.067.085-.133.04-.057.066-.081.06-.08-.003.002.006-.016-.01-.011-.062.022-.048.039-.078.078-.059.07-.092.155-.157.173-.11.03-.286.19-.396.285.013-.058.05-.181.055-.236.008-.092.007-.203.045-.345.061-.226.193-.435.282-.57.013-.017.093-.014.093-.021 0-.02-.059-.016-.046-.032.145-.184.276-.262.276-.262-.009-.026-.026-.02-.069.01a1.87 1.87 0 0 0-.528.698c-.012.026-.117-.17-.136-.24-.003-.012-.042-.042-.022.026.03.095.155.24.112.322-.052.152-.058.315-.066.408a.83.83 0 0 1-.09.314c-.03.03-.059.045-.059.045-.002 0-.059 0-.125-.14-.085-.177-.164-.422-.308-.642-.009-.015.053-.157.046-.168-.013-.024-.082.133-.082.132 0 0-.127-.098-.208-.135-.08-.037-.223-.08-.223-.08s-.052-.026-.058-.011c-.005.014.03.029.03.029s.112.025.236.085a.715.715 0 0 1 .182.134c.1.102.198.303.295.572.017.046.033.087.051.123a.452.452 0 0 0 .106.155c-.124.055-.385.098-.609.114-.019 0-.138-.132-.147-.14-.005-.004-.044-.018-.025.01.026.04.113.13.102.13-.142.006-.204-.028-.31-.041l-.01.035.18.03c.281.039.725-.011.855-.034.171-.03.17.098.268.206z"/></g><g><path fill="#fff" d="M38.741 31.526c.017-.002.426-.116.871-.105.034.001-.186.172-.156.19.007.004.18-.113.216-.143.036-.029.125-.023.144-.022.228.005.545-.003.845.091.28.087.606.242.745.316.08.042.364.166.455.201-.234.026-.616.132-.732.265-.037.042-.243.05-.394.068-.047.007-.168-.009-.21.008-.063.027-.04.088-.045.095-.008.008.128-.063.246-.068.13-.006.27-.013.262-.003a.785.785 0 0 0-.153.413c-.009.123-.003.285-.06.385-.065.113-.43.317-.565.404a.443.443 0 0 1 .017.072c.167-.094.451-.257.595-.466.073-.103.106-.329.106-.329l.195.386.063.015s-.23-.43-.226-.496a.538.538 0 0 1 .2-.408c.51-.366.878-.252.88-.25.07.044.07.056.242.411.048.101.106.3.132.432.006.03-.22.212-.22.212s.225-.115.23-.075c.014.116-.04.328-.036.42.006.13.076.024.075.027l.025-.412a1.852 1.852 0 0 0-.095-.577c-.09-.23-.293-.37-.156-.577.102-.152.398-.674.487-1.05 0 0 .085-.225.1-.284.013-.06-.025-.036-.025-.036a3.078 3.078 0 0 1-.174.466c-.01.024-.143-.24-.138-.214.001.004-.037-.044-.018.025.03.08.128.26.121.276-.135.266-.364.752-.422.737-.059-.015-.142-.173-.226-.293a9.3 9.3 0 0 0-.2-.257s.106-.387.06-.49c-.032-.065-.027.135-.042.211-.012.056-.008.254-.096.193-.087-.062-.709-.675-.735-.699 0 0-.343-.293-.505-.422-.004.002-.013-.015-.027-.009-.013.006.008.018.003.021.164.137.497.427.497.427.005.004.61.561.603.58-.012.035-.47-.132-.539-.148-.102-.025.022.035.022.035s.477.133.58.211c.104.078.233.254.284.326.153.214.153.212.153.214 0 0 .112.133.016.174-.088.026-.425-.11-.58-.192a3.955 3.955 0 0 0-.707-.307c-.047-.013-.246-.365-.35-.479-.034-.035-.077-.01-.069-.002.096.096.321.432.27.422-.704-.137-1.52-.079-1.84.032-.012.004-.054.06.001.052z"/></g><g><path fill="#fff" d="M47.371 32.492c-.413-.167-1.006-.717-1.198-1.105-.04-.082-.084-.085-.122-.007-.193.396-.806.962-1.222 1.121-.072.027-.076.056-.007.082.427.16 1.07.755 1.243 1.153.03.067.062.065.092-.003.175-.396.81-.985 1.235-1.147.072-.028.06-.062-.02-.094z"/></g><g><path fill="#fff" d="M47.809 62.428c-.57-.23-1.386-.987-1.651-1.523-.055-.112-.116-.117-.168-.01-.264.547-1.111 1.326-1.683 1.545-.1.037-.104.078-.01.113.588.219 1.473 1.04 1.713 1.589.04.092.085.089.126-.004.242-.546 1.115-1.358 1.7-1.581.1-.038.082-.084-.027-.13z"/></g><g><path fill="#fff" d="M43.809 62.347l-10.332.094s-.072.024-.072.073c0 .048.072.073.072.073l10.332.093s-.086-.1-.086-.18c0-.08.086-.153.086-.153z"/></g><g><path fill="#fff" d="M58.654 62.44l-10.332-.094s.086.074.086.154-.086.18-.086.18l10.332-.094s.072-.025.072-.073c0-.049-.072-.073-.072-.073z"/></g></g></svg>