<svg xmlns="http://www.w3.org/2000/svg" width="96" height="28" viewBox="0 0 96 28"><g><g><path fill="#fff" d="M29.885 1.452c0-.474.317-.833.719-.833.487 0 .718.468.718.85 0 .479-.32.836-.719.836-.398 0-.718-.361-.718-.853zm1.197.053c0-.491-.224-.81-.488-.81-.218 0-.469.207-.469.724 0 .486.212.809.491.809.268 0 .466-.288.466-.723z"/></g><g><path fill="#fff" d="M64.62 13.225c-.203.085-.416.074-.608.074-.128 0-.139.074-.139.128v.064c0 .053.011.129.14.129.137 0 .254-.022.564-.043.384-.033.618-.054.832-.054.213 0 .447.02.832.054.31.02.427.043.565.043.127 0 .14-.076.14-.13v-.063c0-.054-.013-.128-.14-.128-.192 0-.405.01-.608-.074-.288-.13-.33-.342-.33-.662V9.832h4.01v2.73c0 .32-.044.534-.332.663-.203.085-.416.074-.609.074-.128 0-.137.074-.137.128v.064c0 .053.01.129.137.129.14 0 .257-.022.566-.043.384-.033.62-.054.832-.054.214 0 .448.02.832.054.308.02.427.043.565.043.128 0 .14-.076.14-.13v-.063c0-.054-.012-.128-.14-.128-.192 0-.405.01-.608-.074-.288-.13-.33-.342-.33-.662V7.209c0-.32.042-.533.33-.661.203-.086.416-.075.608-.075.128 0 .14-.074.14-.128V6.28c0-.053-.012-.128-.14-.128-.138 0-.257.02-.565.044-.384.03-.618.052-.832.052-.213 0-.448-.021-.832-.052-.309-.023-.427-.044-.566-.044-.128 0-.137.075-.137.128v.053c0 .097 0 .128.137.139.214.01.395-.02.61.075.287.128.33.34.33.66v2.177h-4.01V7.209c0-.32.043-.533.331-.661.203-.086.416-.075.608-.075.127 0 .14-.074.14-.128V6.28c0-.053-.013-.128-.14-.128-.138 0-.256.02-.565.044-.385.03-.619.052-.832.052-.214 0-.448-.021-.832-.052-.31-.023-.427-.044-.565-.044-.128 0-.139.075-.139.128v.064c0 .054.011.128.14.128.191 0 .404-.011.607.075.288.128.33.34.33.66v5.355c0 .32-.042.533-.33.662z"/></g><g><path fill="#fff" d="M73.405 13.225c-.203.085-.417.074-.608.074-.128 0-.139.074-.139.128v.053c0 .086 0 .128.14.14.393.01.948-.097 1.29-.097.255 0 .5.032.755.054.395.043.78.053 1.173.043.673-.012 1.558-.076 2.187-.63.587-.523.672-1.195.672-1.728 0-.522-.107-1.066-.554-1.536-.448-.47-1.13-.703-1.792-.703-.459 0-1.066.117-1.504.373l-.032.128.021.063.096.075a3.012 3.012 0 0 1 1.066-.203c.417 0 .908.097 1.281.534.256.298.416.768.416 1.354 0 .513-.16.992-.448 1.302-.438.49-1.035.522-1.546.522-.427 0-.704-.021-.897-.138-.319-.193-.33-.512-.33-.726V7.209c0-.32.042-.533.33-.661.203-.086.416-.075.61-.075.126 0 .137-.074.137-.128V6.28c0-.053-.01-.128-.138-.128-.139 0-.256.02-.566.044-.384.03-.618.052-.832.052-.213 0-.447-.021-.83-.052-.31-.023-.428-.044-.566-.044-.128 0-.139.075-.139.128v.064c0 .054.011.128.14.128.19 0 .404-.011.607.075.287.128.33.34.33.66v5.355c0 .32-.043.533-.33.662z"/></g><g><path fill="#fff" d="M18.842 2.29c-.023 0-.055-.002-.055-.038 0-.038.03-.044.052-.05l.026-.008c.049-.014.09-.046.136-.196l.362-1.174c.02-.069.029-.104.043-.142.005-.01.01-.035.046-.035.039 0 .047.028.052.04l.014.04.019.06.4 1.263c.047.142.067.151.134.158.036.005.059.01.059.046 0 .013-.007.036-.046.036-.077 0-.153-.014-.228-.014-.082 0-.164.014-.25.014-.015 0-.06-.002-.06-.043 0-.033.02-.046.07-.043.014 0 .025.002.039 0 .04-.007.052-.034.052-.063 0-.036-.006-.052-.013-.079l-.087-.293c-.016-.055-.038-.056-.057-.056h-.324c-.051 0-.051.022-.058.05l-.068.253a.282.282 0 0 0-.012.084c0 .104.094.106.135.108.037.003.053.006.053.044 0 .017-.007.038-.05.038-.062 0-.124-.014-.186-.014-.066 0-.132.014-.198.014zm.384-.722c-.003.01-.01.021-.01.037 0 .016.012.018.024.018h.278c.019 0 .044-.002.027-.055l-.15-.488c-.003-.012-.005-.026-.012-.026-.01 0-.01.014-.011.023z"/></g><g><path fill="#fff" d="M26.324 2.123c-.019.083-.085.087-.133.092-.024.002-.04.005-.04.039 0 .036.023.041.045.041.066 0 .13-.014.196-.014.065 0 .128.014.19.014.027 0 .046-.007.046-.041 0-.037-.02-.037-.04-.039-.058-.002-.129 0-.143-.126-.014-.125-.009-.212-.009-.333l-.005-.829.828 1.313c.043.07.047.084.077.084.057 0 .05-.045.05-.075V1.057c0-.048.002-.167.018-.208.015-.035.046-.069.083-.071l.048-.005c.03-.002.034-.02.034-.039 0-.017-.005-.039-.046-.039-.063 0-.126.014-.189.014-.06 0-.12-.014-.18-.014-.035 0-.047.007-.047.039 0 .033.02.037.032.039l.051.005c.043.004.071.036.084.071a.634.634 0 0 1 .017.206v.788L26.605.75c-.03-.045-.03-.055-.078-.055h-.329c-.022 0-.045.005-.045.039 0 .035.014.037.043.039.046.005.112.009.13.091.007.035.01.094.01.121l-.003 1.017c0 .03-.002.087-.009.121z"/></g><g><path fill="#fff" d="M81.035 6.548c.203-.086.417-.075.608-.075.128 0 .14-.074.14-.128V6.28c0-.052-.012-.128-.14-.128-.138 0-.255.022-.565.044-.384.032-.618.053-.83.053-.215 0-.449-.021-.833-.053-.31-.022-.427-.044-.566-.044-.127 0-.138.076-.138.128v.065c0 .054.011.128.138.128.192 0 .406-.011.608.075.288.128.331.34.331.66v5.355c0 .32-.043.533-.33.662-.203.085-.417.074-.609.074-.127 0-.138.074-.138.128v.063c0 .054.011.129.138.129.14 0 .256-.021.566-.043.384-.032.618-.053.832-.053.213 0 .447.02.831.053.31.022.427.043.565.043.128 0 .14-.075.14-.13v-.062c0-.054-.012-.128-.14-.128-.19 0-.405.01-.608-.074-.287-.13-.33-.342-.33-.662V7.209c0-.32.043-.533.33-.661z"/></g><g><path fill="#fff" d="M22.576 2.123c-.018.083-.084.087-.132.092-.025.002-.04.005-.04.039 0 .036.022.041.044.041.066 0 .131-.014.197-.014.064 0 .128.014.19.014.027 0 .045-.007.045-.041 0-.037-.02-.037-.04-.039-.058-.002-.129 0-.143-.126-.014-.125-.009-.212-.009-.333l-.005-.829.828 1.313c.044.07.047.084.078.084.056 0 .05-.045.05-.075V1.057a.83.83 0 0 1 .018-.208c.014-.035.045-.069.082-.071l.048-.005c.03-.002.034-.02.034-.039 0-.017-.004-.039-.046-.039-.063 0-.125.014-.189.014-.06 0-.12-.014-.18-.014-.035 0-.046.007-.046.039 0 .033.02.037.032.039l.05.005c.043.004.071.036.084.071.015.037.017.087.017.206v.788L22.857.75c-.029-.045-.029-.055-.078-.055h-.328c-.023 0-.046.005-.046.039 0 .035.014.037.043.039.046.005.112.009.131.091a.767.767 0 0 1 .01.121l-.003 1.017a.74.74 0 0 1-.01.121z"/></g><g><path fill="#fff" d="M65.001 2.21c-.043.003-.043.028-.043.039 0 .039.029.04.057.04.093 0 .187-.013.281-.013.063 0 .13.014.193.014.024 0 .056-.002.056-.041 0-.031-.014-.038-.041-.038-.071-.003-.124.016-.129-.184l-.029-1.08c-.002-.123.005-.167.105-.175.036-.005.064.002.064-.041 0-.035-.016-.04-.043-.04-.051 0-.101.007-.152.007-.051 0-.104-.007-.164-.007-.041 0-.051.009-.057.033l-.366 1.085a.108.108 0 0 1-.008.02s-.007-.007-.012-.02l-.35-1.077c-.008-.03-.018-.041-.056-.041-.113 0-.005.007-.131.007-.169 0-.149-.007-.19-.007-.034 0-.052.002-.052.037 0 .013.003.032.035.042.02.004.041 0 .061 0 .091.002.087.102.082.189l-.052 1.048c-.009.192-.043.2-.137.204-.01 0-.041 0-.041.04 0 .015.002.039.041.039.063 0 .128-.014.189-.014.062 0 .123.014.186.014.054 0 .063-.016.063-.041 0-.02-.006-.03-.011-.031-.007-.005-.016-.005-.046-.007-.089-.005-.151-.01-.142-.238l.034-.976a.03.03 0 0 1 .003-.014c.007 0 .011.003.014.01l.353 1.087.044.138c.007.02.011.034.043.034.031 0 .037-.014.046-.037.021-.052.019-.073.041-.137l.37-1.095.01-.017c.006 0 .009.007.009.022l.02 1.036c.005.19-.052.182-.148.187z"/></g><g><path fill="#fff" d="M71.291 2.21c-.021.003-.043.005-.043.039 0 .014.009.04.046.04.086 0 .166-.013.249-.013.082 0 .164.014.246.014.023 0 .046-.004.046-.041 0-.036-.021-.036-.041-.038-.068-.005-.14-.014-.14-.167V.936c0-.151.072-.162.14-.166.014 0 .041-.003.041-.04 0-.034-.019-.04-.046-.04-.082 0-.164.015-.246.015-.083 0-.167-.014-.249-.014-.024 0-.046.005-.046.04 0 .034.014.036.043.039.073.006.138.013.138.166v1.108c0 .142-.051.16-.138.167z"/></g><g><path fill="#fff" d="M36.335 2.201c.12-.005.14-.058.14-.213V.935c0-.167-.034-.16-.108-.14a.27.27 0 0 1-.06.01c-.023 0-.027-.018-.027-.03 0-.032.016-.043.085-.062.062-.015.277-.075.514-.075.555 0 .817.393.817.814 0 .406-.264.83-.757.83-.106 0-.211-.015-.314-.015-.094 0-.19.014-.285.014-.014 0-.046 0-.046-.044 0-.01.005-.034.04-.036zm.377-1.426c-.016.03-.012.075-.012.133v.98c0 .114-.002.194.034.246.046.067.12.07.159.07.333 0 .564-.289.564-.743 0-.469-.252-.746-.585-.746-.117 0-.148.038-.16.06z"/></g><g><path fill="#fff" d="M67.77.765l.04.005c.064.007.103.029.212.21l.322.527-.273.464c-.127.215-.172.229-.25.235-.04.005-.068.005-.068.046 0 .016.006.038.04.038.057 0 .062-.01.2-.01.084 0 .168.01.256.01.023 0 .054-.002.054-.038 0-.048-.046-.044-.087-.044-.024 0-.095-.004-.095-.07 0-.03.01-.064.045-.126l.234-.406a.058.058 0 0 1 .008-.014c.008 0 .009.007.014.014l.259.438c.03.055.043.082.043.108 0 .05-.055.054-.087.054H68.6c-.023 0-.037.023-.037.04 0 .015.007.044.06.044.082 0 .162-.013.242-.013.08 0 .157.013.237.013.053 0 .055-.015.055-.038 0-.034 0-.034-.055-.044-.07-.01-.09-.06-.152-.164l-.401-.66.238-.39c.087-.145.142-.213.284-.222.06-.005.063-.017.063-.041 0-.012 0-.04-.043-.04-.073 0-.146.01-.217.01-.083 0-.163-.01-.253-.01-.017 0-.044 0-.044.037 0 .042.025.042.069.044l.029.002c.03.003.06.005.06.057 0 .028-.014.059-.062.144l-.172.307c-.006.013-.018.01-.025 0l-.205-.35a.297.297 0 0 1-.041-.104c0-.022.01-.05.07-.051h.032c.03 0 .067-.003.067-.044 0-.02-.013-.041-.056-.041-.104 0-.205.01-.305.01-.082 0-.164-.01-.246-.01-.03 0-.054.002-.054.039 0 .007 0 .029.031.034z"/></g><g><path fill="#fff" d="M76.939 2.212c-.021.002-.044.005-.044.039 0 .014.01.04.046.04.087 0 .167-.013.249-.013.082 0 .164.014.246.014.023 0 .045-.005.045-.041 0-.037-.02-.037-.04-.04-.068-.004-.14-.013-.14-.166V.938c0-.152.072-.163.14-.167.014 0 .04-.002.04-.04 0-.034-.017-.04-.045-.04-.083 0-.165.016-.247.016-.081 0-.166-.015-.248-.015-.023 0-.046.005-.046.04 0 .034.014.037.044.039.072.006.137.013.137.167v1.107c0 .142-.051.16-.137.167z"/></g><g><path fill="#fff" d="M61.106 2.21c-.043.003-.043.028-.043.039 0 .039.03.04.057.04.093 0 .187-.013.281-.013.064 0 .131.014.194.014.023 0 .055-.002.055-.041 0-.031-.014-.038-.04-.038-.07-.003-.124.016-.129-.184l-.029-1.08c-.003-.123.004-.167.104-.175.037-.005.065.002.065-.041 0-.035-.017-.04-.044-.04-.05 0-.1.007-.15.007-.053 0-.106-.007-.165-.007-.04 0-.05.009-.057.033l-.366 1.085a.075.075 0 0 1-.009.02s-.007-.007-.01-.02L60.47.732c-.01-.03-.019-.041-.058-.041-.112 0-.004.007-.13.007-.169 0-.149-.007-.19-.007-.034 0-.052.002-.052.037 0 .013.002.032.034.042.02.004.041 0 .061 0 .092.002.087.102.082.189l-.05 1.048c-.01.192-.045.2-.139.204-.009 0-.04 0-.04.04 0 .015.001.039.04.039.064 0 .128-.014.19-.014s.123.014.185.014c.055 0 .063-.016.063-.041 0-.02-.006-.03-.01-.031-.007-.005-.017-.005-.046-.007-.089-.005-.15-.01-.142-.238l.034-.976c0-.01.002-.014.007-.014 0 0 .007.003.01.01l.353 1.087c.026.08.033.103.043.138.007.02.012.034.044.034.03 0 .036-.014.046-.037.021-.052.018-.073.041-.137l.37-1.095.01-.017s.01.007.01.022l.018 1.036c.005.19-.05.182-.148.187z"/></g><g><path fill="#fff" d="M87.274 7.16s.045.157.188.163c.143.006.231-.18.231-.18.135-.654.285-.872.587-1.124.386-.318 1.04-.686 1.66-1.34.787-.838 1.122-1.91.972-2.95 0 0 .002-.215-.2-.218-.239-.002-.252.184-.252.184 0 .101 0 .368-.035.536-.084.352-.419.671-.737.956-.603.536-1.14.922-1.676 1.676-.688.973-.77 1.727-.738 2.297z"/></g><g><path fill="#fff" d="M74.114 2.212c-.02.002-.043.005-.043.039 0 .014.01.04.046.04.087 0 .166-.013.25-.013.081 0 .163.014.245.014.023 0 .046-.005.046-.041 0-.037-.02-.037-.04-.04-.069-.004-.14-.013-.14-.166V.938c0-.152.071-.163.14-.167.013 0 .04-.002.04-.04 0-.034-.019-.04-.046-.04-.082 0-.164.016-.246.016-.083 0-.167-.015-.249-.015-.024 0-.046.005-.046.04 0 .034.014.037.043.039.073.006.138.013.138.167v1.107c0 .142-.05.16-.138.167z"/></g><g><path fill="#fff" d="M40.05 1.471c0-.474.317-.833.72-.833.486 0 .716.468.716.85 0 .48-.319.836-.719.836-.398 0-.717-.36-.717-.853zm1.197.053c0-.49-.225-.809-.489-.809-.217 0-.468.206-.468.723 0 .486.212.81.49.81.268 0 .467-.289.467-.724z"/></g><g><path fill="#fff" d="M44.886 2.201c-.043.002-.043.027-.043.04 0 .037.029.04.057.04.093 0 .187-.014.28-.014.065 0 .13.014.195.014.023 0 .055-.003.055-.04 0-.033-.014-.04-.041-.04-.071-.002-.123.016-.128-.183l-.03-1.08c-.002-.124.005-.167.105-.176.037-.005.065.002.065-.04 0-.036-.017-.04-.044-.04-.05 0-.101.006-.151.006-.052 0-.105-.007-.165-.007-.041 0-.05.01-.056.033L44.619 1.8a.075.075 0 0 1-.01.02c-.004 0-.006-.007-.01-.02l-.35-1.077c-.01-.029-.018-.04-.057-.04-.113 0-.005.006-.13.006-.17 0-.15-.007-.19-.007-.035 0-.052.003-.052.038 0 .013.002.031.034.041.02.004.04 0 .06 0 .093.002.088.102.083.19l-.052 1.048c-.01.191-.043.201-.137.203-.01 0-.041 0-.041.041 0 .014.002.04.04.04.065 0 .129-.015.19-.015.063 0 .124.014.186.014.055 0 .063-.017.063-.04 0-.02-.006-.03-.01-.033-.007-.005-.017-.005-.046-.007-.09-.005-.151-.01-.142-.237l.034-.976c0-.01.002-.014.007-.014 0 0 .007.002.009.01l.354 1.087.043.137c.007.02.012.034.044.034.03 0 .036-.014.045-.037.02-.052.019-.072.042-.137l.37-1.094c.004-.01.009-.018.01-.018 0 0 .008.007.008.022l.02 1.036c.005.191-.051.182-.148.187z"/></g><g><path fill="#fff" d="M54.967.76c.014 0 .04-.003.04-.04 0-.033-.018-.038-.045-.038-.082 0-.165.014-.247.014-.082 0-.166-.014-.25-.014-.021 0-.044.005-.044.039s.013.036.043.039c.073.007.137.014.137.167v1.107c0 .142-.05.16-.137.167-.02.002-.043.004-.043.039 0 .014.009.04.045.04.087 0 .167-.012.249-.012.082 0 .165.013.247.013.023 0 .046-.004.046-.041 0-.037-.02-.037-.041-.04-.07-.003-.14-.012-.14-.166V.927c0-.151.07-.163.14-.167z"/></g><g><path fill="#fff" d="M51.926.835c.014-.034.045-.068.082-.071l.048-.004c.029-.003.034-.021.034-.039 0-.019-.005-.039-.046-.039-.063 0-.125.013-.19.013-.06 0-.12-.013-.18-.013-.034 0-.045.007-.045.039s.018.036.03.039l.052.004c.043.005.07.037.084.071a.626.626 0 0 1 .017.205v.788L51.126.736c-.03-.045-.03-.054-.078-.054h-.328c-.023 0-.046.005-.046.039s.014.036.043.039c.046.004.112.009.13.091a.75.75 0 0 1 .01.121l-.002 1.016a.731.731 0 0 1-.01.121c-.018.082-.084.087-.132.092-.025.002-.041.004-.041.039 0 .036.023.041.045.041.066 0 .13-.013.196-.013.065 0 .129.013.19.013.028 0 .047-.007.047-.041 0-.037-.022-.037-.042-.039-.057-.002-.128 0-.142-.126-.014-.125-.01-.212-.01-.334l-.004-.829.828 1.315c.043.07.047.084.078.084.056 0 .049-.046.049-.076V1.043a.88.88 0 0 1 .019-.208z"/></g><g><path fill="#fff" d="M48.303.76c.014 0 .04-.003.04-.04 0-.033-.018-.038-.045-.038-.082 0-.164.014-.247.014-.082 0-.166-.014-.248-.014-.023 0-.046.005-.046.039s.014.036.043.039c.073.007.137.014.137.167v1.107c0 .142-.05.16-.137.167-.02.002-.043.004-.043.039 0 .014.009.04.046.04.086 0 .166-.012.248-.012.083 0 .165.013.247.013.024 0 .046-.004.046-.041 0-.037-.02-.037-.041-.04-.068-.003-.14-.012-.14-.166V.927c0-.151.072-.163.14-.167z"/></g><g><path fill="#fff" d="M69.53 20.932c-.05 0-.065.057-.085.11-.045.122-.099.263-.209.347a.493.493 0 0 1-.293.088h-.164c-.194 0-.29-.088-.29-.423v-.68c0-.121.038-.117.096-.117h.163c.267 0 .298.07.35.267.024.08.032.183.096.183s.05-.091.046-.156a2.756 2.756 0 0 1-.008-.503c.008-.126.02-.186.02-.225 0-.015-.008-.08-.05-.08-.03 0-.054.023-.08.122-.028.103-.058.244-.286.244h-.247c-.1 0-.1-.061-.1-.137v-.705c0-.114-.004-.16.263-.16.122 0 .328-.008.45.102.072.066.118.18.148.268.015.04.027.09.07.09.056 0 .048-.08.048-.106v-.16l.004-.19v-.084c0-.084-.015-.073-.099-.065a9.514 9.514 0 0 1-.548.01l-.503-.002c-.126 0-.31-.012-.42-.012-.045 0-.087 0-.087.069 0 .057.038.06.065.06.22.012.232.13.232.355v1.696c0 .232-.012.335-.229.354-.038.003-.068.003-.068.065 0 .049.034.068.08.068.183 0 .354-.022.53-.022.174 0 .22.01.586.018l.221.004c.282.004.271.019.278-.076 0-.008.015-.236.035-.343l.022-.133c.012-.073.024-.141-.038-.141z"/></g><g><path fill="#fff" d="M65.436 19.088c.022 0 .068-.004.068-.065 0-.035-.007-.065-.08-.065-.136 0-.274.015-.41.015-.123 0-.245-.015-.367-.015h-.289c-.092 0-.18.008-.27.008-.1 0-.199-.008-.302-.008-.015 0-.08 0-.08.06 0 .066.038.07.073.07.148.004.255-.008.255.357 0 .275-.027.824-.073 1.148-.08.575-.194.758-.274.758-.034 0-.054-.023-.072-.05-.02-.026-.05-.08-.134-.08-.11 0-.213.08-.213.244 0 .152.095.236.236.236.221 0 .461-.137.61-.964.064-.366.084-.697.098-.991.016-.277.016-.381.028-.461.01-.072.039-.178.214-.178h.132c.137 0 .24 0 .24.22v1.81c0 .316-.065.344-.233.354-.038.004-.068.004-.068.066 0 .06.042.068.076.068.138 0 .274-.022.412-.022.137 0 .275.022.411.022.076 0 .08-.05.08-.068 0-.058-.038-.062-.068-.066-.152-.01-.232-.022-.232-.353v-1.773c0-.255.102-.266.232-.277z"/></g><g><path fill="#fff" d="M51.378 20.302c0 .8-.533 1.395-1.2 1.395-.664 0-1.197-.602-1.197-1.42 0-.794.53-1.392 1.2-1.392.812 0 1.197.781 1.197 1.417zM50.2 21.567c.446 0 .777-.479.777-1.203 0-.819-.373-1.35-.815-1.35-.36 0-.78.343-.78 1.204 0 .812.353 1.35.818 1.35z"/></g><g><path fill="#fff" d="M73.973 21.491c-.08-.007-.141-.038-.274-.297l-.283-.545c-.178-.346-.37-.41-.495-.423v-.015c.108-.034.248-.12.347-.469l.072-.259c.03-.114.062-.255.142-.255.046 0 .06.038.076.073.026.068.058.148.168.148.102 0 .209-.084.209-.244 0-.11-.057-.289-.29-.289-.117 0-.323.054-.438.461l-.088.308c-.045.164-.152.481-.426.481h-.061c-.1 0-.11-.016-.11-.114v-.607c0-.377.11-.347.232-.353.038-.004.073-.024.073-.066 0-.064-.032-.068-.111-.068-.126 0-.252.022-.381.022-.13 0-.26-.022-.385-.022-.07 0-.107.004-.107.068 0 .016.008.066.068.066.154 0 .233.018.233.353v1.692c0 .332-.08.343-.23.354-.033.004-.071.008-.071.065 0 .023.016.07.08.07.142 0 .275-.024.412-.024.137 0 .274.023.415.023.019 0 .077-.004.077-.069 0-.057-.024-.06-.07-.065-.125-.015-.235.016-.235-.354v-.739c0-.053-.024-.099.106-.099.095 0 .213.007.397.396l.308.648c.065.137.129.282.328.282.019 0 .04-.004.06-.004.03-.004.058-.004.088-.004.065 0 .126.008.19.008.039 0 .069-.03.069-.069 0-.049-.011-.057-.095-.065z"/></g><g><path fill="#fff" d="M58.898 21.415c-.05.065-.127.072-.188.076-.026.004-.068.008-.068.066 0 .064.041.068.075.068.139 0 .28-.023.417-.023.136 0 .27.023.407.023.035 0 .08-.004.08-.068 0-.062-.035-.062-.069-.066-.06-.004-.14-.014-.186-.076-.028-.038-.046-.11-.046-.277v-1.826c0-.118.014-.206.32-.206h.42c.307 0 .312.115.312.213v1.819c0 .118.004.216-.045.277-.046.062-.122.072-.183.076-.027 0-.073.004-.073.066 0 .068.05.068.084.068.137 0 .27-.023.407-.023.138 0 .275.023.412.023.038 0 .076-.008.076-.068 0-.062-.034-.062-.068-.066-.062-.004-.141-.014-.187-.076-.023-.034-.045-.099-.045-.277v-1.697c0-.178.022-.243.045-.277.046-.062.125-.072.187-.076.034-.004.068-.004.068-.066 0-.034-.011-.064-.084-.064-.137 0-.27.022-.408.022-.171 0-.346-.022-.521-.022h-.377c-.168 0-.331.022-.5.022-.144 0-.29-.022-.438-.022-.039 0-.08.004-.08.064 0 .062.033.062.068.066.066.004.142.014.188.076.033.045.045.121.045.277v1.697c0 .118.004.216-.045.277z"/></g><g><path fill="#fff" d="M55.842 15.087c-.096 0-.108-.096-.108-.096v-1.373a4.35 4.35 0 0 1-.536-.042c-.246-.02-.416-.054-.565-.054-.204 0-.416.043-.672.065-.225.032-.364.032-.459.032-.054 0-.193-.012-.193-.107v-.064c0-.064.033-.106.108-.128.117-.043.171.011.405-.043.202-.042.33-.128.33-.34a.773.773 0 0 0-.063-.31l-.662-1.728h-2.869l-.715 1.728c-.074.171-.095.266-.095.341 0 .341.394.331.618.331.064 0 .224 0 .224.138v.065c0 .105-.107.117-.17.117-.054 0-.139 0-.449-.032-.266-.022-.479-.065-.66-.065-.096 0-.204.011-.438.043-.18.022-.33.054-.469.054-.149 0-.182-.064-.182-.107v-.064c0-.149.085-.139.193-.149.16-.022.384-.118.501-.213.106-.097.245-.31.3-.427l2.814-6.538c.053-.117.074-.267.202-.267.16 0 .214.182.246.256l2.581 6.73c.042.106.183.355.39.42.151.046.933.018 1.043-.089l3.168-7.115s.068-.118.128-.116c.06.001.096.107.096.107l2.676 7.124c.458.085.373-.043.694-.043.171 0 .171.15.171.31v1.553s.001.082-.108.096c-.107.013-.17-.065-.17-.065-.295-1.647-1.139-1.403-1.547-1.403h-3.946c-.672 0-1.366-.292-1.634 1.356 0 0-.03.113-.178.112zm1.28-1.916h4.415L59.51 7.827h-.096zm-3.865-2.72l-1.216-3.168-1.302 3.168z"/></g><g><path fill="#fff" d="M77.995 20.905c-.03 0-.038.02-.05.041-.06.138-.144.332-.266.462a.49.49 0 0 1-.367.16c-.377 0-.826-.39-.826-1.304 0-.68.313-1.25.85-1.25.308 0 .427.206.517.378.066.13.084.163.122.163.062 0 .054-.087.046-.17l-.015-.172c-.01-.137-.015-.17-.083-.205-.118-.066-.4-.123-.583-.123-.732 0-1.254.625-1.254 1.421 0 .744.465 1.391 1.212 1.391.156 0 .34-.03.563-.148.172-.088.168-.183.172-.252l.008-.145c.004-.095.038-.247-.046-.247z"/></g><g><path fill="#fff" d="M81.77 15.454H11.912s-.116.004-.116.137c0 .132.116.135.116.135H81.77s.104-.013.104-.135c0-.116-.104-.137-.104-.137z"/></g><g><path fill="#fff" d="M81.77 4.313H11.912s-.116.004-.116.137c0 .132.116.135.116.135H81.77s.104-.013.104-.135c0-.116-.104-.137-.104-.137z"/></g><g><path fill="#fff" d="M95.755 15.812c-.34 0-.716.02-1.074-.132-.51-.225-.585-.602-.585-1.17V4.69c0-.68.245-1.057.679-1.414 0 0 .165-.171.104-.306-.06-.134-.255-.11-.255-.11-.452.095-1.094.359-1.98 1.472l-7.485 9.426v-8.71c0-.566.075-.942.585-1.17.359-.15.735-.131 1.074-.131.224 0 .245-.128.246-.222-.001-.095-.022-.222-.246-.222-.245 0-.452.037-1 .075-.677.056-1.092.094-1.47.094-.376 0-.791-.032-1.47-.094-.3-.027-.403-.02-.513-.026-.222-.015-.245.079-.245.173 0 .095.022.224.245.222.113 0 .387.02.588.13.488.272.585.605.585 1.17v11.559s.015.187.15.187c.213 0 .265-.112.265-.112l8.522-10.747v8.578c0 .567-.075.944-.585 1.169-.358.152-.736.132-1.074.132-.223 0-.245.129-.246.223 0 .093.023.222.246.222.245 0 .452-.038.999-.076.678-.057 1.093-.094 1.47-.094s.792.037 1.47.094c.548.038.755.076 1 .076.223 0 .244-.13.245-.222-.001-.094-.022-.223-.245-.223z"/></g><g><path fill="#fff" d="M53.861 21.152c-.016.32-.073.335-.229.34-.015 0-.069 0-.069.068 0 .023.004.065.07.065.106 0 .212-.023.315-.023.103 0 .206.023.31.023.09 0 .106-.027.106-.069 0-.034-.012-.05-.02-.053-.01-.008-.026-.008-.076-.012-.148-.007-.25-.015-.236-.396l.058-1.627c0-.015.003-.023.01-.023 0 0 .012.004.016.016l.591 1.813.072.23c.012.033.02.056.072.056.05 0 .062-.023.076-.06.035-.089.031-.123.07-.23l.616-1.825c.008-.019.016-.03.016-.03.011 0 .015.011.015.038l.034 1.725c.007.321-.088.306-.248.313-.072.004-.072.046-.072.065 0 .065.05.07.096.07.155 0 .312-.024.468-.024.107 0 .217.023.324.023.038 0 .092-.004.092-.069 0-.053-.024-.065-.07-.065-.118-.004-.205.027-.213-.305l-.049-1.802c-.004-.206.007-.278.175-.293.061-.007.107.003.107-.069 0-.057-.027-.064-.073-.064-.083 0-.167.011-.25.011-.088 0-.176-.01-.275-.01-.069 0-.084.013-.096.051l-.609 1.811a.174.174 0 0 1-.016.034c-.007 0-.01-.012-.019-.034l-.582-1.795c-.016-.05-.03-.068-.096-.068-.186 0-.008.011-.217.011-.282 0-.248-.01-.316-.01-.058 0-.088.003-.088.06 0 .023.004.053.058.07.034.005.068 0 .102 0 .153.002.145.17.137.314z"/></g><g><path fill="#fff" d="M7.92 9.274c1.875.222 3.1 1.558 3.1 3.359 0 1.225-.52 2.17-1.244 2.746-1.039.836-2.524.89-3.378.89-.575 0-.758-.036-1.147-.054a54.028 54.028 0 0 0-2.358-.111c-.426 0-.835.036-1.26.074-.502.055-.744.092-.985.092-.26 0-.26-.092-.26-.203v-.113c0-.241.13-.241.242-.241.334 0 .705.019 1.057-.13.501-.222.575-.593.575-1.15V5.116c0-.557-.074-.928-.575-1.15-.352-.15-.723-.131-1.057-.131-.223 0-.242-.13-.242-.222V3.5c0-.093.02-.222.242-.222h5.694c.946 0 2.282.037 3.192.853.52.465.872 1.207.872 2.116 0 .928-.389 1.54-.63 1.857-.409.518-1.058.946-1.838 1.13zm.613 5.196c.538-.65.687-1.336.687-1.986 0-1.373-.557-2.171-1.54-2.561-.632-.241-1.63-.392-2.04-.392h-.565c-.075 0-.242.06-.242-.181v-.186c0-.148.111-.148.278-.148h.678c.686 0 1.463-.19 2.04-.633.462-.353.815-1.06.815-1.931 0-1.113-.556-1.651-.779-1.837-.613-.483-1.39-.557-2.169-.557-.705 0-1.317.056-1.837.11v10.19c0 .557.424 1.133 2.168 1.133 1.04 0 1.857-.242 2.506-1.021z"/></g><g><path fill="#fff" d="M21.145 21.491c-.122-.01-.164-.095-.267-.3l-.259-.522c-.09-.184-.213-.416-.507-.439v-.015c.202-.069.304-.263.35-.465l.058-.259c.046-.206.103-.259.145-.259.045 0 .061.046.072.072.023.057.057.15.164.15.084 0 .213-.055.213-.252 0-.13-.08-.278-.275-.278-.292 0-.391.266-.444.461l-.08.296c-.046.168-.156.485-.423.485h-.026c-.13 0-.108-.066-.108-.114v-.61c0-.138-.034-.34.23-.354.06-.004.072-.035.072-.066 0-.056-.031-.064-.076-.064-.138 0-.275.022-.412.022-.137 0-.278-.022-.415-.022-.046 0-.076.008-.076.064 0 .031.01.062.072.066.263.014.228.216.228.353v.611c0 .048.024.114-.106.114h-.026c-.267 0-.378-.317-.423-.485l-.08-.296c-.054-.195-.153-.46-.447-.46-.194 0-.274.147-.274.277 0 .197.13.251.214.251.106 0 .14-.092.164-.149.01-.026.026-.072.072-.072.04 0 .099.053.145.26l.056.258c.046.202.15.396.35.465v.015c-.292.023-.414.255-.506.44l-.26.52c-.101.206-.143.29-.265.301-.035.004-.095.004-.095.065 0 .065.053.07.072.07.049 0 .095-.009.145-.009.16 0 .072.012.22.012.153 0 .218-.145.252-.225l.289-.637c.046-.102.16-.324.256-.407.069-.06.125-.06.167-.06.096 0 .08.033.08.098v.74c0 .334-.08.338-.232.353-.046.004-.068.008-.068.065 0 .042.026.07.076.07.14 0 .278-.024.415-.024.137 0 .27.023.412.023.048 0 .075-.027.075-.069 0-.057-.023-.06-.069-.065-.152-.015-.232-.019-.232-.354v-.739c0-.065-.014-.099.08-.099.041 0 .1 0 .167.061.095.083.21.305.255.407l.29.637c.034.08.1.225.252.225.15 0 .061-.012.221-.012.05 0 .095.008.144.008.02 0 .073-.004.073-.069 0-.06-.06-.06-.095-.065z"/></g><g><path fill="#fff" d="M12.378 7.209v6.538s.006.107.086.107c.08 0 .149-.065.149-.065l4.82-6.079v4.853c0 .32-.042.533-.33.662-.203.085-.415.074-.608.074-.128 0-.138.074-.138.128v.063c0 .054.01.129.138.129.139 0 .256-.021.566-.043.383-.032.618-.054.832-.054.213 0 .447.022.832.054.308.022.426.043.565.043.128 0 .139-.075.139-.129v-.063c0-.054-.011-.128-.14-.128-.191 0-.405.011-.607-.074-.288-.129-.33-.342-.33-.662V7.006c0-.384.137-.597.383-.8 0 0 .077-.099.046-.17-.03-.071-.132-.064-.132-.064-.255.052-.618.202-1.12.832l-4.233 5.333V7.209c0-.32.043-.533.33-.661.203-.086.416-.075.608-.075.128 0 .139-.075.139-.128V6.28c0-.052-.011-.128-.14-.128-.137 0-.254.022-.564.044-.384.032-.618.053-.832.053-.213 0-.447-.021-.832-.053-.31-.022-.426-.044-.565-.044-.128 0-.138.076-.138.128v.065c0 .053.01.128.138.128.192 0 .406-.011.608.075.288.128.33.341.33.661z"/></g><g><path fill="#fff" d="M20.818 13.225c-.202.085-.415.074-.607.074-.128 0-.139.074-.139.128v.064c0 .053.011.129.14.129.137 0 .254-.022.564-.043.384-.033.618-.054.831-.054.214 0 .448.02.833.054.31.02.426.043.565.043.127 0 .138-.076.138-.13v-.063c0-.054-.01-.128-.138-.128-.192 0-.406.01-.608-.074-.288-.13-.33-.342-.33-.662V9.832h4.008v2.73c0 .32-.042.534-.33.663-.203.085-.417.074-.609.074-.128 0-.138.074-.138.128v.064c0 .053.01.129.138.129.14 0 .256-.022.566-.043.384-.033.618-.054.832-.054.213 0 .448.02.832.054.308.02.427.043.564.043.13 0 .14-.076.14-.13v-.063c0-.054-.01-.128-.14-.128-.19 0-.404.01-.607-.074-.288-.13-.33-.342-.33-.662V7.209c0-.32.042-.533.33-.661.203-.086.416-.075.607-.075.13 0 .14-.074.14-.128V6.28c0-.053-.01-.128-.14-.128-.137 0-.256.02-.564.044-.384.03-.619.052-.832.052-.214 0-.448-.021-.832-.052-.31-.023-.427-.044-.566-.044-.128 0-.138.075-.138.128v.053c0 .097 0 .128.138.139.214.01.395-.02.61.075.287.128.33.34.33.66v2.177h-4.01V7.209c0-.32.043-.533.331-.661.202-.086.416-.075.608-.075.127 0 .138-.074.138-.128V6.28c0-.053-.01-.128-.138-.128-.139 0-.256.02-.565.044-.385.03-.619.052-.833.052-.213 0-.447-.021-.83-.052-.31-.023-.428-.044-.566-.044-.128 0-.139.075-.139.128v.064c0 .054.011.128.14.128.191 0 .404-.011.606.075.288.128.331.34.331.66v5.355c0 .32-.043.533-.33.662z"/></g><g><path fill="#fff" d="M32.076 13.8c-1.866 0-2.911-.822-3.466-1.845-.331-.598-.47-1.279-.47-1.963 0-.672.16-1.344.427-1.888.672-1.333 2.059-2.132 3.509-2.132 1.44 0 2.837.8 3.509 2.122.277.533.427 1.194.427 1.866 0 .693-.15 1.397-.47 1.995-.426.778-1.364 1.845-3.466 1.845zm-2.613-5.429c-.17.47-.256.992-.256 1.504 0 .533.086 1.066.246 1.536.629 1.78 1.994 1.973 2.623 1.973.598 0 1.994-.193 2.624-1.973.16-.459.245-.992.245-1.525 0-.523-.085-1.045-.255-1.515-.587-1.61-1.792-1.983-2.614-1.983-.544 0-1.951.15-2.613 1.983z"/></g><g><path fill="#fff" d="M43.245 13.225c-.202.085-.416.074-.608.074-.128 0-.138.074-.138.128v.064c0 .053.01.129.138.129.138 0 .255-.022.565-.043.385-.033.62-.054.832-.054.214 0 .448.02.832.054.31.02.427.043.566.043.127 0 .138-.076.138-.13v-.063c0-.054-.01-.128-.138-.128-.193 0-.406.01-.609-.074-.287-.13-.33-.342-.33-.662V7.188c0-.256.277-.587 1.258-.587.544 0 1.163.054 1.632.523.394.394.512.917.512 1.418 0 .523-.138 1.035-.417 1.387-.212.267-.629.576-1.342.576-.342 0-.62-.064-1.068-.235-.085-.042-.213-.022-.213.064v.128c0 .043.043.075.076.096.191.118.756.31 1.44.31.5 0 1.321-.096 1.92-.736.35-.374.606-.94.606-1.59 0-.896-.405-1.45-.82-1.781-.662-.522-1.43-.608-2.048-.608-.427 0-.95.075-1.995.075-.33 0-.533 0-.832-.031-.256-.023-.405-.044-.565-.044-.128 0-.138.075-.138.128v.064c0 .054.01.128.138.128.192 0 .406-.011.608.075.288.128.33.34.33.66v5.355c0 .32-.042.533-.33.662z"/></g><g><path fill="#fff" d="M37.08 13.225c-.203.085-.417.074-.608.074-.128 0-.139.074-.139.128v.064c0 .053.011.129.14.129.158 0 .34-.022.564-.054.224-.022.458-.043.831-.043.373 0 .608.02.832.043.224.032.405.054.566.054.127 0 .138-.076.138-.13v-.063c0-.054-.01-.128-.138-.128-.182 0-.416.01-.609-.074-.308-.14-.33-.416-.33-.662V6.6h1.397c.426 0 .875.032 1.301.459.256.256.512.735.618.96.096.117.246.043.235-.117l-.566-2.016-.074-.032h-.086l-.052.053c.021.129-.053.245-.203.245h-4.425c-.128 0-.139.075-.139.128v.064c0 .054.011.128.14.128.201 0 .393-.011.606.075.288.117.33.278.33.66v5.355c0 .32-.042.533-.33.662z"/></g><g><path fill="#fff" d="M37.202 21.491c-.03.004-.068.004-.068.065 0 .065.053.07.076.07.14 0 .274-.024.412-.024.137 0 .273.023.415.023.011 0 .076 0 .076-.069 0-.057-.027-.06-.073-.065-.148-.01-.229-.034-.229-.327v-.038l1.052-1.456v1.467c0 .335-.08.343-.228.354-.046.004-.073.008-.073.065 0 .065.054.07.077.07.14 0 .274-.024.411-.024.137 0 .274.023.416.023.01 0 .076 0 .076-.069 0-.06-.034-.06-.069-.065-.167-.01-.233-.038-.233-.354v-1.696c0-.353.092-.343.233-.353.038-.004.065-.008.065-.066 0-.064-.058-.064-.072-.064-.134 0-.267.022-.397.022-.14 0-.286-.022-.43-.022-.069 0-.077.03-.077.064 0 .062.035.062.07.066.136.007.231.03.231.304v.02l-1.052 1.458v-1.429c0-.28.042-.343.23-.353.034-.004.068-.004.068-.066 0-.064-.057-.064-.072-.064-.142 0-.278.022-.415.022-.134 0-.272-.022-.408-.022-.073 0-.08.034-.08.064 0 .062.034.062.068.066.18.01.232.056.232.353v1.696c0 .297-.052.343-.232.354z"/></g><g><path fill="#fff" d="M25.8 21.491c-.168-.01-.232-.038-.232-.354v-1.696c0-.353.09-.343.232-.353.038-.004.064-.008.064-.066 0-.064-.056-.064-.072-.064-.133 0-.266.022-.396.022-.141 0-.285-.022-.43-.022-.07 0-.076.03-.076.064 0 .062.034.062.068.066.137.007.233.03.233.304v.02l-1.052 1.458v-1.429c0-.28.042-.343.228-.353.035-.004.069-.004.069-.066 0-.064-.057-.064-.073-.064-.14 0-.278.022-.415.022-.133 0-.27-.022-.408-.022-.072 0-.08.034-.08.064 0 .062.035.062.069.066.179.01.233.056.233.353v1.696c0 .297-.054.343-.233.354-.031.004-.068.004-.068.065 0 .065.053.07.076.07.14 0 .274-.024.41-.024.138 0 .276.023.416.023.012 0 .077 0 .077-.069 0-.057-.027-.06-.073-.065-.148-.01-.228-.034-.228-.327v-.038l1.052-1.456v1.467c0 .335-.08.343-.23.354-.045.004-.071.008-.071.065 0 .065.053.07.076.07.14 0 .273-.024.41-.024.138 0 .276.023.416.023.012 0 .076 0 .076-.069 0-.06-.034-.06-.068-.065z"/></g><g><path fill="#fff" d="M46.55 21.625c.019 0 .042-.004.06-.004.032-.004.058-.004.088-.004.065 0 .126.008.19.008.039 0 .069-.03.069-.068 0-.05-.011-.058-.095-.066-.08-.007-.14-.038-.274-.297l-.282-.545c-.18-.346-.37-.411-.495-.422v-.016c.106-.034.248-.121.346-.469l.073-.259c.03-.114.06-.254.14-.254.046 0 .062.038.077.072.027.068.057.148.167.148.104 0 .21-.084.21-.244 0-.11-.057-.289-.29-.289-.118 0-.323.054-.437.461l-.088.309c-.046.164-.152.48-.427.48h-.06c-.1 0-.111-.016-.111-.114v-.607c0-.377.11-.346.233-.353.038-.004.072-.024.072-.066 0-.064-.031-.068-.11-.068-.126 0-.252.022-.382.022s-.26-.022-.385-.022c-.068 0-.106.004-.106.068 0 .016.007.066.068.066.152 0 .232.018.232.353v1.693c0 .331-.08.342-.228.353-.034.004-.072.008-.072.066 0 .022.015.068.08.068.14 0 .274-.022.41-.022.139 0 .275.022.417.022.018 0 .076-.004.076-.068 0-.058-.023-.062-.07-.066-.124-.014-.235.016-.235-.353v-.74c0-.053-.023-.099.107-.099.095 0 .213.008.396.396l.308.648c.065.137.13.282.328.282z"/></g><g><path fill="#fff" d="M38.978 18.298a.21.21 0 0 0 .016-.068c0-.038-.03-.054-.058-.054-.04 0-.072.068-.14.186-.103.184-.195.252-.317.252-.133 0-.202-.106-.217-.255-.012-.1.008-.195-.076-.195-.08 0-.22.206-.22.332 0 .183.212.343.441.343.305 0 .473-.305.572-.541z"/></g><g><path fill="#fff" d="M33.73 18.885c.812 0 1.197.781 1.197 1.417 0 .8-.533 1.395-1.2 1.395-.664 0-1.197-.602-1.197-1.42 0-.794.53-1.392 1.2-1.392zm.019 2.682c.446 0 .777-.479.777-1.203 0-.819-.373-1.35-.814-1.35-.362 0-.781.343-.781 1.204 0 .812.354 1.35.818 1.35z"/></g><g><path fill="#fff" d="M30.255 19.088c.022 0 .068-.004.068-.065 0-.035-.007-.065-.08-.065-.137 0-.274.015-.411.015-.122 0-.244-.015-.366-.015h-.29c-.091 0-.18.008-.27.008-.1 0-.198-.008-.301-.008-.015 0-.08 0-.08.06 0 .066.038.07.073.07.148.004.255-.008.255.357 0 .275-.027.824-.073 1.148-.08.575-.194.758-.274.758-.034 0-.054-.023-.072-.05-.02-.026-.05-.08-.134-.08-.11 0-.213.08-.213.244 0 .152.095.236.236.236.22 0 .46-.137.61-.964.064-.366.084-.697.098-.991.016-.277.016-.381.028-.461.01-.072.038-.178.213-.178h.133c.137 0 .24 0 .24.22v1.81c0 .316-.065.344-.233.354-.038.004-.068.004-.068.066 0 .06.042.068.076.068.138 0 .274-.022.412-.022.137 0 .274.022.41.022.077 0 .08-.05.08-.068 0-.058-.037-.062-.067-.066-.152-.01-.232-.022-.232-.353v-1.773c0-.255.102-.266.232-.277z"/></g><g><path fill="#fff" d="M49.945 25.936c-.593-.241-1.444-1.03-1.72-1.588-.057-.116-.12-.122-.176-.01-.275.57-1.156 1.381-1.752 1.61-.104.038-.11.08-.01.117.612.227 1.533 1.084 1.784 1.655.042.096.09.094.132-.003.251-.569 1.161-1.416 1.772-1.648.103-.04.085-.088-.03-.134z"/></g><g><path fill="#fff" d="M45.777 25.85l-10.768.099s-.075.025-.075.076c0 .05.075.076.075.076l10.768.097s-.09-.104-.09-.187.09-.16.09-.16z"/></g><g><path fill="#fff" d="M61.249 25.948l-10.768-.098s.09.077.09.16c0 .084-.09.187-.09.187l10.768-.097s.075-.025.075-.076c0-.05-.075-.076-.075-.076z"/></g></g></svg>